<svg width="59" height="59" viewBox="0 0 59 59" fill="none" xmlns="http://www.w3.org/2000/svg">
<circle cx="29.5" cy="29.5" r="26" stroke="#F87956" stroke-opacity="0.5"/>
<circle cx="29.5" cy="29.5" r="29" stroke="#F87956" stroke-opacity="0.2"/>
<path d="M46.2376 27.4145C46.266 26.9919 46.2683 26.7294 46.2685 26.6968L46.2721 25.9642L45.598 25.6773C40.3791 23.4561 36.6088 24.2719 34.3649 25.3475C31.8898 26.5338 30.681 28.2897 30.6307 28.3639L30.4045 28.6977L30.4472 29.0986C30.4506 29.131 30.4839 29.4292 30.5754 29.895H29.4244C29.516 29.4292 29.5492 29.131 29.5527 29.0986L29.5954 28.6977L29.3692 28.3639C29.3189 28.2897 28.11 26.5339 25.635 25.3475C23.3912 24.272 19.6208 23.4562 14.4019 25.6773L13.7277 25.9642L13.7314 26.6968C13.7315 26.7294 13.7339 26.9917 13.7622 27.4145H12V29.6186H14.0384C14.1667 30.3203 14.3486 31.0931 14.6069 31.8737C15.8181 35.5325 18.0933 37.5536 21.1865 37.7185C21.3393 37.7267 21.4905 37.7308 21.6402 37.7308C24.4935 37.7308 26.7608 36.2522 28.2165 33.433C28.449 32.9827 28.6423 32.5315 28.8033 32.0992H31.1967C31.3577 32.5315 31.5511 32.9827 31.7835 33.433C33.2392 36.2524 35.5063 37.7308 38.3598 37.7308C38.5094 37.7308 38.6608 37.7266 38.8135 37.7185C41.9067 37.5536 44.1819 35.5325 45.3931 31.8737C45.6515 31.0931 45.8333 30.3203 45.9616 29.6186H48V27.4145H46.2376Z" fill="#F87956"/>
</svg>
