<svg width="427" height="60" viewBox="0 0 427 60" fill="none" xmlns="http://www.w3.org/2000/svg">
<path d="M81.132 32.396C77.604 32.396 74.916 31.34 73.068 29.228C71.22 27.092 70.296 24.176 70.296 20.48C70.296 18.032 70.716 15.884 71.556 14.036C72.396 12.188 73.62 10.76 75.228 9.752C76.836 8.744 78.744 8.24 80.952 8.24C82.056 8.24 83.136 8.384 84.192 8.672C85.272 8.936 86.196 9.236 86.964 9.572C87.756 9.884 88.152 10.052 88.152 10.076L87.648 12.704C87.48 12.608 87.072 12.428 86.424 12.164C85.776 11.876 84.996 11.6 84.084 11.336C83.196 11.072 82.356 10.94 81.564 10.94C80.22 10.94 79.128 11.24 78.288 11.84C77.448 12.44 76.812 13.424 76.38 14.792C75.972 16.16 75.768 17.996 75.768 20.3C75.768 23.684 76.26 26.096 77.244 27.536C78.228 28.976 79.752 29.696 81.816 29.696C82.968 29.696 83.976 29.456 84.84 28.976C85.728 28.472 86.436 27.932 86.964 27.356C87.516 26.756 87.792 26.42 87.792 26.348L89.376 28.076C89.376 28.196 89.052 28.628 88.404 29.372C87.78 30.116 86.856 30.812 85.632 31.46C84.408 32.084 82.908 32.396 81.132 32.396ZM95.3222 32V16.628H90.1382L90.1022 14H105.258V16.628H100.074V32H95.3222ZM107.828 14H111.68L112.328 15.62H112.436C112.436 15.572 112.64 15.38 113.048 15.044C113.456 14.684 114.02 14.36 114.74 14.072C115.46 13.76 116.324 13.604 117.332 13.604C119.468 13.604 121.148 14.42 122.372 16.052C123.596 17.684 124.208 19.88 124.208 22.64C124.208 24.584 123.92 26.3 123.344 27.788C122.768 29.252 121.94 30.392 120.86 31.208C119.804 32 118.544 32.396 117.08 32.396C116.144 32.396 115.352 32.288 114.704 32.072C114.056 31.88 113.564 31.676 113.228 31.46C112.892 31.22 112.724 31.076 112.724 31.028H112.616V41L107.828 41.144V14ZM115.28 29.66C116.192 29.66 116.912 29.444 117.44 29.012C117.992 28.58 118.4 27.872 118.664 26.888C118.928 25.88 119.06 24.5 119.06 22.748C119.06 21.092 118.928 19.808 118.664 18.896C118.424 17.96 118.052 17.312 117.548 16.952C117.068 16.592 116.432 16.412 115.64 16.412C115.064 16.412 114.548 16.52 114.092 16.736C113.66 16.952 113.312 17.18 113.048 17.42C112.808 17.66 112.664 17.84 112.616 17.96V28.472C112.664 28.544 112.784 28.676 112.976 28.868C113.168 29.036 113.456 29.216 113.84 29.408C114.248 29.576 114.728 29.66 115.28 29.66ZM134.717 32.396C132.029 32.396 129.953 31.58 128.489 29.948C127.049 28.316 126.329 26 126.329 23C126.329 20 127.049 17.684 128.489 16.052C129.953 14.42 132.029 13.604 134.717 13.604C137.429 13.604 139.505 14.42 140.945 16.052C142.409 17.684 143.141 20 143.141 23C143.141 25.976 142.385 28.292 140.873 29.948C139.385 31.58 137.333 32.396 134.717 32.396ZM134.717 30.02C135.509 30.02 136.133 29.792 136.589 29.336C137.069 28.88 137.417 28.148 137.633 27.14C137.849 26.132 137.957 24.752 137.957 23C137.957 21.248 137.849 19.868 137.633 18.86C137.417 17.852 137.081 17.132 136.625 16.7C136.169 16.244 135.533 16.016 134.717 16.016C133.901 16.016 133.265 16.244 132.809 16.7C132.353 17.132 132.017 17.852 131.801 18.86C131.585 19.868 131.477 21.236 131.477 22.964C131.477 24.716 131.585 26.108 131.801 27.14C132.017 28.148 132.353 28.88 132.809 29.336C133.289 29.792 133.925 30.02 134.717 30.02ZM146.359 32V14H151.147V25.844L157.735 14H161.911V32H157.123V19.436L150.103 32H146.359ZM154.351 11.732C151.855 11.732 150.283 11.204 149.635 10.148C148.987 9.068 148.663 8.12 148.663 7.304L152.407 6.98V7.412C152.383 7.46 152.347 7.556 152.299 7.7C152.275 7.82 152.263 7.964 152.263 8.132C152.263 8.516 152.419 8.852 152.731 9.14C153.043 9.404 153.583 9.536 154.351 9.536C155.143 9.536 155.695 9.404 156.007 9.14C156.319 8.852 156.475 8.516 156.475 8.132C156.475 7.964 156.451 7.82 156.403 7.7C156.379 7.556 156.355 7.46 156.331 7.412V6.98L160.075 7.304C160.075 8.12 159.739 9.068 159.067 10.148C158.419 11.204 156.847 11.732 154.351 11.732ZM165.179 23.432V20.768H174.971V23.432H165.179ZM179.651 41.396C179.099 41.396 178.607 41.348 178.175 41.252C177.767 41.18 177.455 41.096 177.239 41C177.023 40.928 176.891 40.88 176.843 40.856L177.239 38.048C177.335 38.096 177.575 38.168 177.959 38.264C178.343 38.384 178.727 38.444 179.111 38.444C180.191 38.444 181.067 38.012 181.739 37.148C182.411 36.308 183.155 34.832 183.971 32.72L176.303 14H182.099L186.491 26.816L190.199 14H193.187L186.959 32.396C186.215 34.436 185.507 36.092 184.835 37.364C184.187 38.636 183.443 39.62 182.603 40.316C181.763 41.036 180.779 41.396 179.651 41.396ZM193.635 29.444H196.011C196.755 27.5 197.247 25.364 197.487 23.036C197.727 20.708 197.847 17.696 197.847 14H209.547V29.444H212.103L211.563 37.328H209.295L208.467 32H197.379L196.299 37.328H193.995L193.635 29.444ZM204.759 29.444V16.556H200.511C200.487 19.388 200.379 21.812 200.187 23.828C199.995 25.82 199.611 27.692 199.035 29.444H204.759ZM221.94 32.396C219.252 32.396 217.176 31.58 215.712 29.948C214.272 28.316 213.552 26 213.552 23C213.552 20 214.272 17.684 215.712 16.052C217.176 14.42 219.252 13.604 221.94 13.604C224.652 13.604 226.728 14.42 228.168 16.052C229.632 17.684 230.364 20 230.364 23C230.364 25.976 229.608 28.292 228.096 29.948C226.608 31.58 224.556 32.396 221.94 32.396ZM221.94 30.02C222.732 30.02 223.356 29.792 223.812 29.336C224.292 28.88 224.64 28.148 224.856 27.14C225.072 26.132 225.18 24.752 225.18 23C225.18 21.248 225.072 19.868 224.856 18.86C224.64 17.852 224.304 17.132 223.848 16.7C223.392 16.244 222.756 16.016 221.94 16.016C221.124 16.016 220.488 16.244 220.032 16.7C219.576 17.132 219.24 17.852 219.024 18.86C218.808 19.868 218.7 21.236 218.7 22.964C218.7 24.716 218.808 26.108 219.024 27.14C219.24 28.148 219.576 28.88 220.032 29.336C220.512 29.792 221.148 30.02 221.94 30.02ZM241.034 32.396C238.274 32.396 236.15 31.604 234.662 30.02C233.198 28.436 232.466 26.132 232.466 23.108C232.466 20.18 233.234 17.864 234.77 16.16C236.306 14.456 238.43 13.604 241.142 13.604C241.886 13.604 242.642 13.712 243.41 13.928C244.202 14.12 244.862 14.336 245.39 14.576C245.918 14.792 246.254 14.936 246.398 15.008L245.93 17.312C245.81 17.24 245.51 17.108 245.03 16.916C244.55 16.7 243.998 16.496 243.374 16.304C242.75 16.112 242.186 16.016 241.682 16.016C240.77 16.016 240.026 16.208 239.45 16.592C238.874 16.976 238.43 17.684 238.118 18.716C237.806 19.724 237.65 21.164 237.65 23.036C237.65 25.7 237.986 27.524 238.658 28.508C239.33 29.492 240.29 29.984 241.538 29.984C242.378 29.984 243.098 29.804 243.698 29.444C244.322 29.06 244.802 28.664 245.138 28.256C245.474 27.824 245.642 27.572 245.642 27.5L247.334 28.58C247.334 28.724 247.118 29.12 246.686 29.768C246.254 30.392 245.57 30.992 244.634 31.568C243.698 32.12 242.498 32.396 241.034 32.396ZM253.068 32V16.628H247.884L247.848 14H263.004V16.628H257.82V32H253.068ZM272.846 32.396C270.158 32.396 268.082 31.58 266.618 29.948C265.178 28.316 264.458 26 264.458 23C264.458 20 265.178 17.684 266.618 16.052C268.082 14.42 270.158 13.604 272.846 13.604C275.558 13.604 277.634 14.42 279.074 16.052C280.538 17.684 281.27 20 281.27 23C281.27 25.976 280.514 28.292 279.002 29.948C277.514 31.58 275.462 32.396 272.846 32.396ZM272.846 30.02C273.638 30.02 274.262 29.792 274.718 29.336C275.198 28.88 275.546 28.148 275.762 27.14C275.978 26.132 276.086 24.752 276.086 23C276.086 21.248 275.978 19.868 275.762 18.86C275.546 17.852 275.21 17.132 274.754 16.7C274.298 16.244 273.662 16.016 272.846 16.016C272.03 16.016 271.394 16.244 270.938 16.7C270.482 17.132 270.146 17.852 269.93 18.86C269.714 19.868 269.606 21.236 269.606 22.964C269.606 24.716 269.714 26.108 269.93 27.14C270.146 28.148 270.482 28.88 270.938 29.336C271.418 29.792 272.054 30.02 272.846 30.02ZM284.488 14H291.364C293.908 14 295.756 14.444 296.908 15.332C298.06 16.196 298.636 17.36 298.636 18.824C298.636 20.624 297.58 21.944 295.468 22.784C296.524 23.072 297.412 23.552 298.132 24.224C298.876 24.872 299.248 25.712 299.248 26.744C299.248 28.424 298.648 29.72 297.448 30.632C296.248 31.544 294.244 32 291.436 32H284.488V14ZM291.904 22.028C291.904 22.076 292.084 22.028 292.444 21.884C292.804 21.716 293.128 21.416 293.416 20.984C293.704 20.528 293.848 19.892 293.848 19.076C293.848 17.132 292.996 16.16 291.292 16.16H289.276V22.028H291.904ZM291.328 29.84C292.384 29.84 293.152 29.54 293.632 28.94C294.112 28.34 294.352 27.536 294.352 26.528C294.352 24.656 293.428 23.72 291.58 23.72H289.276V29.84H291.328ZM309.761 32.396C307.097 32.396 305.021 31.664 303.533 30.2C302.069 28.712 301.337 26.42 301.337 23.324C301.337 20.204 302.057 17.816 303.497 16.16C304.937 14.48 306.881 13.64 309.329 13.64C311.561 13.64 313.289 14.348 314.513 15.764C315.761 17.156 316.385 19.16 316.385 21.776C316.385 22.376 316.337 22.88 316.241 23.288C316.169 23.696 316.121 23.948 316.097 24.044H306.413C306.437 26.204 306.749 27.74 307.349 28.652C307.973 29.54 308.969 29.984 310.337 29.984C311.153 29.984 311.873 29.816 312.497 29.48C313.121 29.12 313.613 28.736 313.973 28.328C314.333 27.896 314.513 27.656 314.513 27.608L316.133 28.868C316.133 28.964 315.881 29.312 315.377 29.912C314.897 30.512 314.177 31.076 313.217 31.604C312.281 32.132 311.129 32.396 309.761 32.396ZM311.921 21.704V20.876C311.921 19.052 311.729 17.78 311.345 17.06C310.961 16.316 310.289 15.944 309.329 15.944C308.657 15.944 308.117 16.112 307.709 16.448C307.325 16.784 307.025 17.372 306.809 18.212C306.593 19.028 306.461 20.192 306.413 21.704H311.921ZM319.504 14H323.356L324.004 15.62H324.112C324.112 15.572 324.316 15.38 324.724 15.044C325.132 14.684 325.696 14.36 326.416 14.072C327.136 13.76 328 13.604 329.008 13.604C331.144 13.604 332.824 14.42 334.048 16.052C335.272 17.684 335.884 19.88 335.884 22.64C335.884 24.584 335.596 26.3 335.02 27.788C334.444 29.252 333.616 30.392 332.536 31.208C331.48 32 330.22 32.396 328.756 32.396C327.82 32.396 327.028 32.288 326.38 32.072C325.732 31.88 325.24 31.676 324.904 31.46C324.568 31.22 324.4 31.076 324.4 31.028H324.292V41L319.504 41.144V14ZM326.956 29.66C327.868 29.66 328.588 29.444 329.116 29.012C329.668 28.58 330.076 27.872 330.34 26.888C330.604 25.88 330.736 24.5 330.736 22.748C330.736 21.092 330.604 19.808 330.34 18.896C330.1 17.96 329.728 17.312 329.224 16.952C328.744 16.592 328.108 16.412 327.316 16.412C326.74 16.412 326.224 16.52 325.768 16.736C325.336 16.952 324.988 17.18 324.724 17.42C324.484 17.66 324.34 17.84 324.292 17.96V28.472C324.34 28.544 324.46 28.676 324.652 28.868C324.844 29.036 325.132 29.216 325.516 29.408C325.924 29.576 326.404 29.66 326.956 29.66ZM346.429 32.396C343.765 32.396 341.689 31.664 340.201 30.2C338.737 28.712 338.005 26.42 338.005 23.324C338.005 20.204 338.725 17.816 340.165 16.16C341.605 14.48 343.549 13.64 345.997 13.64C348.229 13.64 349.957 14.348 351.181 15.764C352.429 17.156 353.053 19.16 353.053 21.776C353.053 22.376 353.005 22.88 352.909 23.288C352.837 23.696 352.789 23.948 352.765 24.044H343.081C343.105 26.204 343.417 27.74 344.017 28.652C344.641 29.54 345.637 29.984 347.005 29.984C347.821 29.984 348.541 29.816 349.165 29.48C349.789 29.12 350.281 28.736 350.641 28.328C351.001 27.896 351.181 27.656 351.181 27.608L352.801 28.868C352.801 28.964 352.549 29.312 352.045 29.912C351.565 30.512 350.845 31.076 349.885 31.604C348.949 32.132 347.797 32.396 346.429 32.396ZM348.589 21.704V20.876C348.589 19.052 348.397 17.78 348.013 17.06C347.629 16.316 346.957 15.944 345.997 15.944C345.325 15.944 344.785 16.112 344.377 16.448C343.993 16.784 343.693 17.372 343.477 18.212C343.261 19.028 343.129 20.192 343.081 21.704H348.589ZM356.172 32V14H360.96V21.524H366.54V14H371.328V32H366.54V23.972H360.96V32H356.172ZM375.648 32V14H380.436V25.844L387.024 14H391.2V32H386.412V19.436L379.392 32H375.648ZM402.82 32.396C400.156 32.396 398.08 31.664 396.592 30.2C395.128 28.712 394.396 26.42 394.396 23.324C394.396 20.204 395.116 17.816 396.556 16.16C397.996 14.48 399.94 13.64 402.388 13.64C404.62 13.64 406.348 14.348 407.572 15.764C408.82 17.156 409.444 19.16 409.444 21.776C409.444 22.376 409.396 22.88 409.3 23.288C409.228 23.696 409.18 23.948 409.156 24.044H399.472C399.496 26.204 399.808 27.74 400.408 28.652C401.032 29.54 402.028 29.984 403.396 29.984C404.212 29.984 404.932 29.816 405.556 29.48C406.18 29.12 406.672 28.736 407.032 28.328C407.392 27.896 407.572 27.656 407.572 27.608L409.192 28.868C409.192 28.964 408.94 29.312 408.436 29.912C407.956 30.512 407.236 31.076 406.276 31.604C405.34 32.132 404.188 32.396 402.82 32.396ZM404.98 21.704V20.876C404.98 19.052 404.788 17.78 404.404 17.06C404.02 16.316 403.348 15.944 402.388 15.944C401.716 15.944 401.176 16.112 400.768 16.448C400.384 16.784 400.084 17.372 399.868 18.212C399.652 19.028 399.52 20.192 399.472 21.704H404.98Z" fill="white"/>
<path d="M74.4838 49.9633H71.6687L71.1771 51.5552H68.9824L72.1077 43.0339H74.039L77.1876 51.5552H74.9812L74.4838 49.9633ZM72.1603 48.3773H73.9922L73.0733 45.4218L72.1603 48.3773ZM84.9995 44.62H82.442V51.5552H80.3878V44.62H77.8771V43.0339H84.9995V44.62ZM93.8532 44.62H91.2957V51.5552H89.2414V44.62H86.7307V43.0339H93.8532V44.62ZM101.209 47.9442H97.978V49.975H101.794V51.5552H95.9238V43.0339H101.806V44.62H97.978V46.4167H101.209V47.9442ZM110.724 48.6699C110.696 49.2629 110.536 49.7877 110.244 50.2442C109.951 50.6968 109.539 51.048 109.009 51.2977C108.482 51.5474 107.879 51.6722 107.2 51.6722C106.081 51.6722 105.199 51.3074 104.555 50.5778C103.911 49.8482 103.589 48.8182 103.589 47.4877V47.0663C103.589 46.2314 103.734 45.5017 104.022 44.8775C104.315 44.2493 104.735 43.7655 105.281 43.4261C105.827 43.0827 106.459 42.911 107.177 42.911C108.211 42.911 109.042 43.1842 109.67 43.7304C110.298 44.2727 110.655 45.0218 110.741 45.9778H108.693C108.677 45.4588 108.546 45.0862 108.301 44.8599C108.055 44.6336 107.68 44.5205 107.177 44.5205C106.666 44.5205 106.291 44.7117 106.053 45.094C105.815 45.4764 105.69 46.087 105.679 46.9259V47.5287C105.679 48.4377 105.792 49.0874 106.018 49.4775C106.248 49.8677 106.642 50.0628 107.2 50.0628C107.672 50.0628 108.033 49.9516 108.283 49.7292C108.533 49.5068 108.665 49.1537 108.681 48.6699H110.724ZM119.408 44.62H116.85V51.5552H114.796V44.62H112.285V43.0339H119.408V44.62ZM125.616 49.9633H122.801L122.309 51.5552H120.114L123.24 43.0339H125.171L128.32 51.5552H126.113L125.616 49.9633ZM123.292 48.3773H125.124L124.205 45.4218L123.292 48.3773ZM130.004 43.0339H132.047V49.975H135.107V43.0339H137.167V49.9926H138.473L138.356 53.6094H136.418V51.5552H130.004V43.0339ZM145.588 43.0339H147.642V51.5552H145.588V46.1826L142.527 51.5552H140.473V43.0339H142.527V48.4124L145.588 43.0339ZM153.769 51.5552V48.5646H152.586L151.147 51.5552H148.917L150.667 47.8681C149.906 47.3726 149.526 46.6449 149.526 45.6851C149.526 44.8424 149.803 44.1908 150.357 43.7304C150.911 43.2661 151.709 43.0339 152.75 43.0339H155.829V51.5552H153.769ZM151.574 45.8666C151.574 46.2996 151.662 46.6137 151.837 46.8088C152.013 47.0039 152.307 47.1014 152.721 47.1014H153.769V44.62H152.733C152.323 44.62 152.027 44.7273 151.843 44.9419C151.664 45.1525 151.574 45.4608 151.574 45.8666ZM164.394 48.664V51.5552H162.34V43.0339H165.741C166.392 43.0339 166.968 43.1549 167.467 43.3968C167.97 43.6348 168.359 43.9762 168.632 44.421C168.909 44.8619 169.047 45.3632 169.047 45.9251C169.047 46.7561 168.749 47.4214 168.152 47.9208C167.559 48.4163 166.743 48.664 165.705 48.664H164.394ZM164.394 47.078H165.741C166.138 47.078 166.441 46.9785 166.648 46.7795C166.858 46.5806 166.964 46.2996 166.964 45.9368C166.964 45.5388 166.856 45.2208 166.642 44.9828C166.427 44.7448 166.135 44.6239 165.764 44.62H164.394V47.078ZM175.144 49.9633H172.329L171.838 51.5552H169.643L172.768 43.0339H174.7L177.848 51.5552H175.642L175.144 49.9633ZM172.821 48.3773H174.653L173.734 45.4218L172.821 48.3773ZM185.432 44.62H181.739V45.966H182.798C183.473 45.966 184.07 46.0811 184.589 46.3113C185.108 46.5415 185.506 46.8673 185.783 47.2887C186.064 47.7062 186.204 48.1861 186.204 48.7284C186.204 49.5673 185.892 50.2481 185.268 50.7709C184.648 51.2938 183.813 51.5552 182.763 51.5552H179.673V43.0339H185.432V44.62ZM181.739 47.5462V49.975H182.792C183.21 49.975 183.54 49.858 183.781 49.6239C184.027 49.3898 184.15 49.0874 184.15 48.7167C184.15 48.3656 184.029 48.0827 183.787 47.8681C183.545 47.6535 183.21 47.5462 182.781 47.5462H181.739ZM195.579 47.4701C195.579 48.3012 195.425 49.0367 195.117 49.6765C194.808 50.3164 194.369 50.81 193.8 51.1572C193.234 51.5006 192.588 51.6722 191.863 51.6722C191.137 51.6722 190.493 51.5064 189.931 51.1748C189.369 50.8392 188.93 50.3613 188.614 49.7409C188.302 49.1205 188.138 48.4085 188.123 47.6047V47.1248C188.123 46.2899 188.275 45.5544 188.579 44.9185C188.888 44.2786 189.326 43.785 189.896 43.4378C190.47 43.0905 191.121 42.9169 191.851 42.9169C192.573 42.9169 193.216 43.0886 193.782 43.4319C194.348 43.7753 194.787 44.2649 195.099 44.9009C195.415 45.533 195.575 46.2587 195.579 47.078V47.4701ZM193.49 47.1131C193.49 46.2665 193.347 45.6247 193.062 45.1877C192.781 44.7468 192.378 44.5263 191.851 44.5263C190.821 44.5263 190.277 45.2989 190.218 46.8439L190.212 47.4701C190.212 48.3051 190.351 48.9469 190.628 49.3956C190.905 49.8443 191.316 50.0686 191.863 50.0686C192.381 50.0686 192.781 49.8482 193.062 49.4073C193.343 48.9664 193.486 48.3324 193.49 47.5053V47.1131ZM204.936 43.0339V51.5552H202.887V48.4065L202.285 48.4826L201.53 48.5294C200.383 48.5294 199.505 48.2817 198.896 47.7862C198.287 47.2868 197.979 46.5806 197.971 45.6676V43.0339H200.026V45.6383C200.026 46.1026 200.137 46.4381 200.359 46.6449C200.585 46.8478 200.976 46.9493 201.53 46.9493L201.705 46.9434C202.185 46.92 202.579 46.8829 202.887 46.8322V43.0339H204.936ZM212.414 43.0339H214.468V51.5552H212.414V46.1826L209.353 51.5552H207.299V43.0339H209.353V48.4124L212.414 43.0339ZM220.208 45.8666L221.601 43.0339H223.948L221.566 47.2594L224.013 51.5552H221.642L220.208 48.6699L218.775 51.5552H216.41L218.851 47.2594L216.475 43.0339H218.816L220.208 45.8666ZM235.066 43.0339H237.12V51.5552H235.066V46.1826L232.005 51.5552H229.951V43.0339H232.005V48.4124L235.066 43.0339ZM248.758 43.0339H250.812V51.5552H248.758V46.1826L245.697 51.5552H243.643V43.0339H245.697V48.4124L248.758 43.0339ZM259.783 44.62H257.225V51.5552H255.171V44.62H252.661V43.0339H259.783V44.62ZM263.908 48.664V51.5552H261.854V43.0339H265.254C265.906 43.0339 266.481 43.1549 266.98 43.3968C267.484 43.6348 267.872 43.9762 268.145 44.421C268.422 44.8619 268.561 45.3632 268.561 45.9251C268.561 46.7561 268.262 47.4214 267.665 47.9208C267.072 48.4163 266.257 48.664 265.219 48.664H263.908ZM263.908 47.078H265.254C265.652 47.078 265.954 46.9785 266.161 46.7795C266.372 46.5806 266.477 46.2996 266.477 45.9368C266.477 45.5388 266.37 45.2208 266.155 44.9828C265.941 44.7448 265.648 44.6239 265.277 44.62H263.908V47.078Z" fill="#C6BABA"/>
<path d="M41.4091 12.8184H14.4091C11.7091 12.8184 9.5 15.0275 9.5 17.7275V52.0911C9.5 54.7911 11.7091 57.0002 14.4091 57.0002H41.4091C44.1091 57.0002 46.3182 54.7911 46.3182 52.0911V17.7275C46.3182 15.0275 44.1091 12.8184 41.4091 12.8184ZM41.4091 52.0911H14.4091V17.7275H41.4091V52.0911Z" fill="white"/>
<path d="M4.90909 4H34.3636V8.90909H4.90909V43.2727H0V8.90909C0 6.20909 2.20909 4 4.90909 4Z" fill="#F87956"/>
<rect x="21" y="39" width="14" height="3" fill="#C4C4C4"/>
<rect x="21" y="33" width="14" height="3" fill="#C4C4C4"/>
<rect x="21" y="27" width="14" height="3" fill="#C4C4C4"/>
</svg>
