<svg width="40" height="32" viewBox="0 0 40 32" fill="none" xmlns="http://www.w3.org/2000/svg">
<path d="M23.6053 21.6128C26.0231 20.5935 27.9319 19.206 29.3306 17.4498C30.7291 15.694 31.4284 13.7819 31.4284 11.7134C31.4284 9.64486 30.7291 7.73261 29.33 5.97672C27.9315 4.22082 26.0231 2.83317 23.6049 1.8136C21.1867 0.794181 18.5566 0.284668 15.7141 0.284668C12.8719 0.284668 10.2418 0.794493 7.82345 1.8136C5.40535 2.83309 3.49685 4.22075 2.09825 5.97672C0.699495 7.73292 0 9.64486 0 11.7135C0 13.4842 0.529058 15.1515 1.58553 16.714C2.64193 18.2762 4.09291 19.5934 5.93801 20.6646C5.78931 21.0221 5.63677 21.349 5.48049 21.6471C5.32412 21.9446 5.13828 22.2309 4.92235 22.5064C4.70656 22.782 4.53933 22.9976 4.42018 23.1533C4.30111 23.3095 4.10769 23.5295 3.83968 23.8118C3.57175 24.0946 3.40053 24.2806 3.32626 24.3696C3.32626 24.3547 3.29647 24.3884 3.2369 24.4702C3.17724 24.5521 3.14378 24.5891 3.13643 24.5821C3.12893 24.5741 3.09914 24.6113 3.04707 24.6931C2.995 24.7751 2.96889 24.8159 2.96889 24.8159L2.91299 24.9272C2.89094 24.9722 2.87577 25.0161 2.86842 25.061C2.86092 25.1054 2.85717 25.1541 2.85717 25.206C2.85717 25.2579 2.86451 25.3061 2.87968 25.3509C2.90947 25.5441 2.995 25.7001 3.13635 25.8197C3.27763 25.9386 3.43001 25.9979 3.59388 25.9979H3.66088C4.40478 25.8938 5.04478 25.7748 5.5804 25.6407C7.87208 25.0457 9.9407 24.0929 11.7859 22.7835C13.1251 23.0217 14.4346 23.1407 15.7143 23.1407C18.5568 23.1417 21.1872 22.6323 23.6053 21.6128Z" fill="#F87956"/>
<path d="M38.415 22.4387C39.4719 20.8837 39.9999 19.2139 39.9999 17.428C39.9999 15.5974 39.4412 13.8851 38.3256 12.293C37.2094 10.701 35.6913 9.37638 33.7719 8.31982C34.1138 9.4358 34.285 10.5667 34.285 11.7128C34.285 13.7067 33.7871 15.5965 32.7894 17.3825C31.7925 19.1678 30.3638 20.7451 28.5038 22.1144C26.7775 23.3643 24.8132 24.3239 22.6107 24.9937C20.4088 25.6631 18.1095 25.9982 15.7136 25.9982C15.2673 25.9982 14.6125 25.9687 13.7495 25.9093C16.7404 27.8732 20.2525 28.8556 24.285 28.8556C25.5649 28.8556 26.8743 28.7363 28.2137 28.4982C30.0588 29.8082 32.1275 30.7601 34.4191 31.3557C34.9548 31.49 35.5947 31.6088 36.3387 31.7129C36.5172 31.7278 36.6813 31.6756 36.83 31.5566C36.9787 31.4376 37.0756 31.2743 37.12 31.0662C37.1131 30.9768 37.12 30.9278 37.1425 30.9207C37.1644 30.9137 37.1607 30.865 37.1312 30.7759C37.1018 30.6865 37.0868 30.6418 37.0868 30.6418L37.0311 30.5305C37.0156 30.5011 36.9905 30.4599 36.953 30.408C36.9158 30.3564 36.8862 30.3186 36.8637 30.2964C36.8418 30.2742 36.8085 30.2368 36.7636 30.1851C36.7192 30.1335 36.6892 30.0997 36.6742 30.0848C36.5999 29.9954 36.4288 29.8095 36.161 29.5266C35.893 29.2442 35.6998 29.0247 35.5808 28.8685C35.4617 28.7122 35.2942 28.4966 35.0785 28.221C34.8629 27.946 34.6767 27.6594 34.5204 27.3617C34.3642 27.0641 34.2116 26.7366 34.0629 26.3797C35.9081 25.3074 37.3587 23.9942 38.415 22.4387Z" fill="#F87956"/>
</svg>
