<svg width="1439" height="300" viewBox="0 0 1439 300" fill="none" xmlns="http://www.w3.org/2000/svg">
<mask id="mask0" mask-type="alpha" maskUnits="userSpaceOnUse" x="0" y="0" width="1440" height="300">
<rect width="1440" height="300" fill="white"/>
</mask>
<g mask="url(#mask0)">
<ellipse cx="1415.5" cy="48.1035" rx="333.5" ry="345" fill="#F87956"/>
<path d="M1697 106.552C1697 261.382 1575.67 386.896 1426 386.896C1276.33 386.896 1155 261.382 1155 106.552C1155 -48.2786 1276.33 -173.793 1426 -173.793C1575.67 -173.793 1697 -48.2786 1697 106.552Z" fill="#F38F74"/>
<path d="M67 305.172C67 460.003 -54.3308 585.517 -204 585.517C-353.669 585.517 -475 460.003 -475 305.172C-475 150.342 -353.669 24.8276 -204 24.8276C-54.3308 24.8276 67 150.342 67 305.172Z" fill="#F38F74"/>
</g>
</svg>
