<svg width="102" height="103" viewBox="0 0 102 103" fill="none" xmlns="http://www.w3.org/2000/svg">
<ellipse cx="51" cy="51.5" rx="51" ry="51.5" fill="#F87956"/>
<g clip-path="url(#clip0)">
<path d="M67.048 58.3093C65.8811 57.0943 64.4735 56.4447 62.9818 56.4447C61.5021 56.4447 60.0825 57.0823 58.8674 58.2973L55.0659 62.0868C54.7531 61.9184 54.4403 61.762 54.1396 61.6056C53.7065 61.3891 53.2974 61.1846 52.9486 60.968C49.3876 58.7063 46.1515 55.7589 43.0477 51.9453C41.5439 50.0446 40.5334 48.4445 39.7995 46.8205C40.786 45.9182 41.7003 44.9798 42.5905 44.0776C42.9274 43.7407 43.2642 43.3918 43.6011 43.055C46.1274 40.5286 46.1274 37.2564 43.6011 34.7301L40.3168 31.4458C39.9439 31.0729 39.5589 30.6879 39.198 30.3029C38.4762 29.5571 37.7183 28.7871 36.9363 28.0653C35.7694 26.9104 34.3739 26.2969 32.9062 26.2969C31.4385 26.2969 30.0189 26.9104 28.8159 28.0653C28.8039 28.0774 28.8039 28.0774 28.7918 28.0894L24.7016 32.2158C23.1617 33.7556 22.2835 35.6323 22.091 37.8098C21.8023 41.3226 22.8369 44.5949 23.6309 46.7363C25.5798 51.9935 28.4911 56.8657 32.834 62.0868C38.1033 68.3787 44.4432 73.3471 51.6854 76.8479C54.4523 78.1592 58.1456 79.7111 62.272 79.9758C62.5246 79.9878 62.7893 79.9999 63.0299 79.9999C65.8089 79.9999 68.1428 79.0014 69.9714 77.0164C69.9834 76.9923 70.0074 76.9803 70.0195 76.9562C70.645 76.1983 71.3669 75.5126 72.1248 74.7787C72.6421 74.2855 73.1714 73.7682 73.6887 73.2268C74.8797 71.9877 75.5053 70.5441 75.5053 69.0644C75.5053 67.5726 74.8677 66.141 73.6526 64.938L67.048 58.3093ZM71.3548 70.9772C71.3428 70.9772 71.3428 70.9892 71.3548 70.9772C70.8857 71.4825 70.4044 71.9396 69.8871 72.4449C69.1052 73.1908 68.3112 73.9727 67.5653 74.8509C66.3503 76.1502 64.9187 76.7637 63.0419 76.7637C62.8615 76.7637 62.669 76.7637 62.4885 76.7517C58.9156 76.5231 55.5952 75.1276 53.105 73.9366C46.2958 70.6403 40.3168 65.9606 35.3483 60.0297C31.246 55.0852 28.5031 50.5137 26.6866 45.6054C25.5677 42.6099 25.1587 40.276 25.3392 38.0745C25.4595 36.6669 26.0008 35.5 26.9993 34.5015L31.1017 30.3992C31.6911 29.8458 32.3167 29.545 32.9303 29.545C33.6882 29.545 34.3017 30.0022 34.6867 30.3872C34.6987 30.3992 34.7107 30.4112 34.7228 30.4232C35.4566 31.109 36.1544 31.8188 36.8882 32.5767C37.2611 32.9616 37.6461 33.3466 38.0311 33.7436L41.3153 37.0279C42.5905 38.3031 42.5905 39.482 41.3153 40.7572C40.9664 41.1061 40.6296 41.455 40.2807 41.7918C39.2702 42.8264 38.3078 43.7888 37.2611 44.7272C37.2371 44.7513 37.213 44.7633 37.201 44.7874C36.1664 45.822 36.3589 46.8325 36.5754 47.5182C36.5874 47.5543 36.5995 47.5904 36.6115 47.6265C37.4657 49.6957 38.6687 51.6446 40.4973 53.9664L40.5093 53.9785C43.8296 58.0687 47.3304 61.2568 51.1922 63.6989C51.6854 64.0117 52.1907 64.2643 52.6719 64.5049C53.105 64.7215 53.514 64.926 53.8629 65.1425C53.911 65.1666 53.9591 65.2027 54.0072 65.2267C54.4163 65.4312 54.8012 65.5275 55.1982 65.5275C56.1967 65.5275 56.8223 64.9019 57.0268 64.6974L61.1412 60.5831C61.5502 60.174 62.1998 59.6808 62.9577 59.6808C63.7036 59.6808 64.3171 60.15 64.6901 60.559C64.7021 60.571 64.7021 60.571 64.7141 60.5831L71.3428 67.2117C72.5819 68.4388 72.5819 69.702 71.3548 70.9772Z" fill="white"/>
<path d="M52.8041 36.5587C55.956 37.088 58.8192 38.5798 61.105 40.8655C63.3907 43.1513 64.8704 46.0145 65.4118 49.1664C65.5441 49.9604 66.2299 50.5138 67.0118 50.5138C67.1081 50.5138 67.1923 50.5018 67.2885 50.4897C68.1788 50.3454 68.7682 49.5032 68.6239 48.613C67.9742 44.7994 66.1697 41.3227 63.4148 38.5678C60.6599 35.8128 57.1831 34.0083 53.3695 33.3587C52.4793 33.2143 51.6492 33.8038 51.4928 34.682C51.3364 35.5602 51.9139 36.4143 52.8041 36.5587Z" fill="white"/>
<path d="M78.9338 48.1439C77.8631 41.8641 74.9037 36.1498 70.3562 31.6023C65.8088 27.0549 60.0944 24.0955 53.8146 23.0248C52.9364 22.8684 52.1063 23.4699 51.95 24.3481C51.8056 25.2383 52.3951 26.0684 53.2853 26.2248C58.8914 27.1752 64.0043 29.8339 68.0705 33.8881C72.1367 37.9543 74.7833 43.0671 75.7337 48.6732C75.8661 49.4672 76.5518 50.0206 77.3338 50.0206C77.43 50.0206 77.5142 50.0086 77.6105 49.9966C78.4887 49.8642 79.0902 49.0221 78.9338 48.1439Z" fill="white"/>
</g>
<defs>
<clipPath id="clip0">
<rect width="57" height="57" fill="white" transform="translate(22 23)"/>
</clipPath>
</defs>
</svg>
