<svg width="102" height="103" viewBox="0 0 102 103" fill="none" xmlns="http://www.w3.org/2000/svg">
<ellipse cx="51" cy="51.5" rx="51" ry="51.5" fill="#F87956"/>
<g clip-path="url(#clip0)">
<path d="M76.1743 29.1616L58.1624 19.4082C56.4538 18.4826 54.1044 19.1946 53.1789 20.9032L42.6424 40.4813H29.8276C28.1902 40.4813 26.9087 41.7628 26.9087 43.4002V48.5261V75.0811C26.9087 76.7186 28.1902 78.0001 29.8276 78.0001H70.7636C72.4011 78.0001 73.6825 76.7186 73.6825 75.0811V67.6771H74.8928C75.5336 67.6771 76.0319 67.1787 76.0319 66.538V58.066C76.0319 57.4253 75.5336 56.9269 74.8928 56.9269H73.6825V48.5973C73.6825 47.2446 72.6858 46.0344 71.4044 45.7496L77.6693 34.1451C78.5949 32.3653 77.9541 30.1583 76.1743 29.1616ZM63.3595 24.8188L52.111 45.6784H48.9073L60.939 23.5373L63.3595 24.8188ZM55.2435 21.9711C55.5995 21.3304 56.4538 21.0456 57.0946 21.4016L58.8744 22.3983L46.3444 45.6784H42.4288L55.2435 21.9711ZM29.1157 43.329C29.1157 43.1154 29.4004 42.7595 29.7564 42.7595H41.3609L39.7946 45.6072H29.7564C29.5428 45.6072 29.3293 45.6072 29.1157 45.6784V43.329ZM71.3332 75.0811C71.3332 75.4371 71.0484 75.7219 70.6924 75.7219H29.7564C29.4004 75.7219 29.1157 75.4371 29.1157 75.0811V48.5973C29.1157 48.2413 29.4004 47.9566 29.7564 47.9566H40.5066H45.0629H53.3925H69.4109H70.6212C70.9772 47.9566 71.262 48.2413 71.262 48.5973V56.9269H66.9192C64.997 56.9269 63.5019 58.4931 63.5019 60.3442V64.2598C63.5019 66.182 65.0682 67.6771 66.9192 67.6771H71.3332V75.0811ZM73.6113 59.2051H73.6825V65.3989H73.6113H66.9192C66.2785 65.3989 65.7801 64.9005 65.7801 64.2598V60.3442C65.7801 59.7034 66.2785 59.2051 66.9192 59.2051H73.6113ZM75.6047 33.006L68.7702 45.6784H54.674L65.3529 25.9579L75.0352 31.2262C75.7471 31.511 75.9607 32.3653 75.6047 33.006Z" fill="white"/>
<path d="M71.2618 31.9383L70.6923 31.6535C69.2684 30.8704 67.3462 31.4399 66.5631 32.8638L65.8512 34.2165C65.4952 34.9284 65.3528 35.7827 65.6376 36.5658C65.8512 37.3489 66.4207 37.9897 67.1326 38.3456L67.7022 38.6304C68.1293 38.844 68.6277 38.9864 69.126 38.9864C70.2651 38.9864 71.2618 38.3456 71.8314 37.4201L72.5433 36.0675C73.2552 34.5724 72.6857 32.7214 71.2618 31.9383ZM70.4787 34.9996L69.7668 36.3522C69.5532 36.7082 69.0548 36.8506 68.6989 36.637L68.1293 36.2811C67.9869 36.2099 67.8446 35.9963 67.7734 35.8539C67.7022 35.6403 67.7022 35.4267 67.8446 35.2843L68.5565 33.9317C68.6989 33.7181 68.9837 33.5045 69.2684 33.5045C69.4108 33.5045 69.482 33.5045 69.6244 33.5757L70.1939 33.8605C70.4787 34.1453 70.6211 34.5724 70.4787 34.9996Z" fill="white"/>
</g>
<defs>
<clipPath id="clip0">
<rect width="59" height="59" fill="white" transform="translate(23 19)"/>
</clipPath>
</defs>
</svg>
