<svg width="96" height="96" viewBox="0 0 96 96" fill="none" xmlns="http://www.w3.org/2000/svg">
<g clip-path="url(#clip0)">
<mask id="mask0" mask-type="alpha" maskUnits="userSpaceOnUse" x="-4" y="-3" width="103" height="95">
<rect width="103" height="95" transform="matrix(1 0 0 -1 -4 92)" fill="#C4C4C4"/>
</mask>
<g mask="url(#mask0)">
<path d="M95.4832 91.6962C87.4297 81.4304 76.1605 73.9825 63.6425 70.6247V70.069C63.6775 70.0367 63.7147 70.0045 63.7495 69.9724C63.8002 69.9314 63.848 69.8867 63.8926 69.8391C67.5241 66.4409 69.3653 63.1581 69.3653 60.081C69.3653 60.0344 69.3652 59.9875 69.3646 59.9406C71.6607 58.695 73.3347 55.3529 73.7223 52.3544C73.9833 50.3359 73.5871 48.7259 72.5446 47.5694C71.6753 46.6049 70.3852 46.006 68.71 45.7896C66.8382 45.5477 65.5128 45.9233 64.5785 46.5287C64.3775 45.6107 64.276 44.6719 64.276 43.72V43.1691C64.7735 42.6689 65.0817 41.9802 65.0817 41.2208V37.5951C65.0817 36.5933 65.8752 35.7666 66.8883 35.7126L67.0004 35.706C72.7417 35.3436 77.3288 30.5549 77.4434 24.8039C77.528 20.5592 75.2603 16.708 71.5169 14.7225C71.5045 13.411 71.2662 12.129 70.8083 10.9105C70.5355 10.1837 69.7242 9.8168 68.9988 10.0892C68.2722 10.3622 67.9047 11.1724 68.1775 11.8988C68.5289 12.834 68.707 13.8207 68.707 14.8384C68.7067 15.822 69.2472 16.7125 70.1174 17.1621C72.967 18.6345 74.6975 21.5414 74.6337 24.748C74.5478 29.0487 71.1172 32.6301 66.8219 32.9014L66.7392 32.9061C64.2338 33.0392 62.2713 35.0989 62.2713 37.5949V41.1747H59.1046C58.3285 41.1747 57.6995 41.8037 57.6995 42.5798C57.6995 43.3559 58.3285 43.9849 59.1046 43.9849H61.4722C61.5055 46.0294 61.9207 48.0216 62.716 49.9095C62.9356 50.4306 63.446 50.7692 64.0111 50.7692H64.015C64.5817 50.7677 65.0918 50.4259 65.309 49.9026C65.644 49.0958 66.2673 48.3074 68.3498 48.5764C69.3406 48.7047 70.0495 48.9987 70.4572 49.4507C70.9253 49.9701 71.0862 50.8257 70.9351 51.9936C70.564 54.8637 68.8606 57.3728 67.6426 57.6162C66.9457 57.7555 66.4625 58.3932 66.517 59.1019C66.5423 59.431 66.5551 59.7602 66.5551 60.0809C66.5551 62.3642 64.9934 64.9754 61.9137 67.8419C61.9128 67.8426 61.912 67.8434 61.9113 67.8441C61.9092 67.846 61.9073 67.8479 61.9053 67.8497C60.424 69.2273 58.6068 70.6433 56.5036 72.0585C53.2021 74.2806 49.2293 75.1154 45.3181 74.4104C44.5546 74.2731 43.8235 74.7801 43.6859 75.5438C43.5481 76.3077 44.0557 77.0384 44.8193 77.176C45.8933 77.3697 46.9703 77.4653 48.0412 77.4653C51.5922 77.4653 55.0677 76.4125 58.0728 74.3901C59.0515 73.7314 59.9707 73.0705 60.8322 72.411V75.6597C60.8322 78.8714 58.2192 81.4844 55.0075 81.4844H41.0234C37.8117 81.4844 35.1987 78.8715 35.1987 75.6597V72.4112C36.0603 73.0707 36.9792 73.7314 37.9582 74.3903C38.1455 74.5163 38.3343 74.6384 38.525 74.7567C38.7556 74.8999 39.0115 74.968 39.2643 74.968C39.7343 74.968 40.1937 74.7321 40.4598 74.3033C40.8689 73.6439 40.666 72.7776 40.0064 72.3685C39.8452 72.2684 39.6854 72.165 39.5272 72.0585C37.424 70.6429 35.6065 69.2269 34.1255 67.8497C34.1227 67.8471 34.12 67.8447 34.1174 67.842C31.0375 64.9757 29.476 62.3644 29.476 60.081C29.476 59.7584 29.4888 59.4291 29.5141 59.1029C29.569 58.3939 29.0857 57.7557 28.3883 57.6164C27.1703 57.373 25.4667 54.864 25.0957 51.9938C24.8137 49.8117 25.5385 48.8535 27.6811 48.5764C29.765 48.3075 30.3873 49.0956 30.722 49.9026C30.9391 50.4259 31.4495 50.7677 32.0161 50.7692H32.0198C32.585 50.7692 33.0953 50.4306 33.3147 49.9095C34.1101 48.0212 34.5252 46.029 34.5588 43.9849H52.6762C53.4522 43.9849 54.0813 43.3559 54.0813 42.5798C54.0813 41.8037 53.4522 41.1747 52.6762 41.1747H33.7591V37.5949C33.7591 35.0989 31.7965 33.0392 29.2915 32.9061L29.2073 32.9012C24.9134 32.6301 21.4827 29.0487 21.397 24.748C21.3331 21.5414 23.0635 18.6345 25.913 17.1621C26.7837 16.7123 27.3241 15.8219 27.3235 14.8313C27.3235 10.2321 31.0651 6.49055 35.6643 6.49055C36.6895 6.49055 37.6908 6.67486 38.6407 7.03842C39.6843 7.43761 40.8593 7.1288 41.564 6.26986C43.1568 4.32848 45.508 3.21511 48.0153 3.21511C50.5225 3.21511 52.8738 4.32848 54.4666 6.26986C55.1712 7.12898 56.3461 7.43742 57.3901 7.03842C58.34 6.67505 59.3412 6.49055 60.3665 6.49055C61.9072 6.49055 63.4118 6.91355 64.7174 7.71361C65.3787 8.1188 66.244 7.91161 66.6498 7.24973C67.0552 6.58805 66.8476 5.72292 66.1859 5.31736C64.438 4.24617 62.4258 3.67992 60.3665 3.67992C59.0493 3.67992 57.76 3.90811 56.5323 4.3583C54.406 1.84317 51.3117 0.404297 48.0151 0.404297C44.7188 0.404297 41.6243 1.84317 39.4981 4.3583C38.2703 3.90792 36.9811 3.67992 35.6639 3.67992C29.5542 3.67992 24.5763 8.61886 24.5135 14.7224C20.77 16.7078 18.5022 20.5592 18.587 24.8039C18.7013 30.5545 23.2885 35.3432 29.0283 35.7059L29.1419 35.7124C30.155 35.7662 30.9487 36.5931 30.9487 37.5949V41.2206C30.9487 41.9802 31.2569 42.669 31.7545 43.1691V43.7198C31.7545 44.6715 31.6531 45.6104 31.4521 46.5284C30.5174 45.9229 29.1922 45.547 27.3203 45.7894C23.657 46.263 21.8302 48.6559 22.3083 52.3542C22.696 55.3529 24.37 58.695 26.666 59.9404C26.6656 59.9873 26.6654 60.0342 26.6654 60.0809C26.6654 63.1581 28.5067 66.4409 32.1383 69.8391C32.18 69.8834 32.2246 69.9248 32.2717 69.9634C32.3095 69.9985 32.35 70.0337 32.3883 70.0688V70.6165C19.8577 73.9705 8.57766 81.4212 0.517221 91.6962C-0.0570916 92.4282 -0.160967 93.403 0.246096 94.2398C0.653158 95.0762 1.4836 95.5958 2.4136 95.5958H93.587C94.5168 95.5958 95.3472 95.0762 95.7543 94.24C96.1613 93.4032 96.0575 92.4285 95.4832 91.6962ZM3.24216 92.7855C10.7313 83.5182 20.9967 76.7472 32.3881 73.534V75.6597C32.3881 80.421 36.2617 84.2946 41.023 84.2946H55.0072C59.7685 84.2946 63.6421 80.421 63.6421 75.6597V73.5424C75.0213 76.759 85.2758 83.5268 92.7578 92.7855H3.24216Z" fill="#4F4F4F"/>
<path d="M56.3436 52.7449C57.566 52.7449 58.5569 51.7539 58.5569 50.5316C58.5569 49.3093 57.566 48.3184 56.3436 48.3184C55.1213 48.3184 54.1304 49.3093 54.1304 50.5316C54.1304 51.7539 55.1213 52.7449 56.3436 52.7449Z" fill="#4F4F4F"/>
<path d="M39.6866 52.7449C40.909 52.7449 41.8999 51.7539 41.8999 50.5316C41.8999 49.3093 40.909 48.3184 39.6866 48.3184C38.4643 48.3184 37.4734 49.3093 37.4734 50.5316C37.4734 51.7539 38.4643 52.7449 39.6866 52.7449Z" fill="#4F4F4F"/>
<path d="M36.4833 57.4618C35.7972 57.3631 35.1129 57.6759 34.7384 58.259C34.3629 58.844 34.3636 59.5996 34.7403 60.1837C36.5347 62.9668 39.5793 64.6284 42.8849 64.6284C43.4056 64.6284 43.9179 64.5851 44.4219 64.505C45.0273 65.6358 46.4073 66.4267 48.0149 66.4267C49.6226 66.4267 51.0026 65.6358 51.608 64.505C52.1118 64.5851 52.6242 64.6284 53.1447 64.6284C56.4504 64.6284 59.4952 62.9668 61.2897 60.1833C61.6662 59.5991 61.6668 58.8435 61.2912 58.2586C60.9166 57.6757 60.2334 57.3633 59.5466 57.4618C59.2229 57.5085 58.8931 57.5323 58.5667 57.5323C56.9052 57.5323 55.3016 56.9315 54.0507 55.8408C52.6218 54.5947 50.597 54.3223 48.8917 55.1471C48.5765 55.2995 48.2829 55.4827 48.0146 55.6935C47.7461 55.4827 47.4526 55.2997 47.1374 55.1471C45.4323 54.3225 43.4071 54.5947 41.9784 55.8408C40.7277 56.9315 39.1241 57.5323 37.4626 57.5323C37.1367 57.5323 36.8069 57.5086 36.4833 57.4618ZM43.8262 57.9588C44.4052 57.4541 45.2247 57.3435 45.9142 57.677C46.2942 57.861 46.5828 58.136 46.772 58.4947C47.0152 58.956 47.4937 59.2443 48.0151 59.2443C48.5366 59.2443 49.0149 58.9556 49.2581 58.4945C49.4471 58.1358 49.7356 57.8608 50.1159 57.6768C50.8053 57.3435 51.6251 57.4535 52.2039 57.9587C53.6917 59.2562 55.5333 60.0617 57.4792 60.2812C56.2713 61.2647 54.7512 61.818 53.1447 61.818C52.0612 61.818 51.0249 61.5733 50.0651 61.0912C49.7079 60.9118 49.4354 60.6491 49.2558 60.3108C49.0119 59.852 48.5345 59.5652 48.0149 59.5652C47.4952 59.5652 47.018 59.852 46.7741 60.3108C46.5942 60.6493 46.322 60.9118 45.9648 61.0912C45.0048 61.5737 43.9685 61.8182 42.8849 61.8182C41.2786 61.8182 39.7586 61.265 38.5507 60.2814C40.4966 60.0618 42.3384 59.2563 43.8262 57.9588Z" fill="#4F4F4F"/>
</g>
</g>
<defs>
<clipPath id="clip0">
<rect width="96" height="96" fill="white"/>
</clipPath>
</defs>
</svg>
