<svg width="43" height="39" viewBox="0 0 43 39" fill="none" xmlns="http://www.w3.org/2000/svg">
<path d="M12.4932 22.5548C13.7016 22.5548 14.8697 22.4768 15.975 22.3315V10.2164C14.8698 10.0712 13.7016 9.99316 12.4932 9.99316C5.59341 9.99316 0 12.53 0 15.6595V16.8884C0 20.0178 5.59341 22.5548 12.4932 22.5548Z" fill="#F87956"/>
<path d="M12.4932 28.8807C13.7016 28.8807 14.8697 28.8026 15.975 28.6576V25.1064C14.8694 25.2516 13.7019 25.3307 12.4932 25.3307C6.47043 25.3307 1.44354 23.3977 0.262753 20.825C0.0907966 21.1997 0 21.5877 0 21.9855V23.2144C0 26.3438 5.59341 28.8807 12.4932 28.8807Z" fill="#F87956"/>
<path d="M15.975 31.7089V31.4328C14.8694 31.578 13.7019 31.6572 12.4932 31.6572C6.47043 31.6572 1.44354 29.7241 0.262753 27.1514C0.0907966 27.526 0 27.914 0 28.3118V29.5407C0 32.6703 5.59341 35.2071 12.4932 35.2071C13.873 35.2071 15.2002 35.1054 16.4412 34.918C16.1336 34.2888 15.975 33.6251 15.975 32.9376V31.7089Z" fill="#F87956"/>
<path d="M30.5069 0.39624C23.6071 0.39624 18.0137 2.93309 18.0137 6.06258V7.29144C18.0137 10.4209 23.6071 12.9578 30.5069 12.9578C37.4066 12.9578 43.0001 10.4209 43.0001 7.29144V6.06258C43.0001 2.93309 37.4066 0.39624 30.5069 0.39624Z" fill="#F87956"/>
<path d="M30.5069 15.7341C24.4841 15.7341 19.4572 13.8011 18.2764 11.2283C18.1045 11.6029 18.0137 11.9909 18.0137 12.3888V13.6177C18.0137 16.7472 23.6071 19.284 30.5069 19.284C37.4066 19.284 43.0001 16.7472 43.0001 13.6177V12.3888C43.0001 11.9909 42.9093 11.6029 42.7373 11.2283C41.5565 13.8011 36.5296 15.7341 30.5069 15.7341Z" fill="#F87956"/>
<path d="M30.5069 22.0602C24.4841 22.0602 19.4572 20.1272 18.2764 17.5544C18.1045 17.9291 18.0137 18.3171 18.0137 18.715V19.9439C18.0137 23.0735 23.6071 25.6103 30.5069 25.6103C37.4066 25.6103 43.0001 23.0735 43.0001 19.9439V18.715C43.0001 18.3171 42.9093 17.9291 42.7373 17.5544C41.5565 20.1273 36.5296 22.0602 30.5069 22.0602Z" fill="#F87956"/>
<path d="M30.5069 28.728C24.4841 28.728 19.4572 26.7949 18.2764 24.2222C18.1045 24.5969 18.0137 24.9848 18.0137 25.3826V26.6116C18.0137 29.7411 23.6071 32.2779 30.5069 32.2779C37.4066 32.2779 43.0001 29.7411 43.0001 26.6116V25.3826C43.0001 24.9848 42.9093 24.5967 42.7373 24.2222C41.5565 26.7948 36.5296 28.728 30.5069 28.728Z" fill="#F87956"/>
<path d="M30.5069 35.0539C24.4841 35.0539 19.4572 33.1209 18.2764 30.5482C18.1045 30.923 18.0137 31.3111 18.0137 31.7086V32.9375C18.0137 36.067 23.6071 38.6038 30.5069 38.6038C37.4066 38.6038 43.0001 36.067 43.0001 32.9375V31.7085C43.0001 31.3108 42.9093 30.9226 42.7373 30.5481C41.5565 33.1208 36.5296 35.0539 30.5069 35.0539Z" fill="#F87956"/>
</svg>
