<svg width="103" height="103" viewBox="0 0 103 103" fill="none" xmlns="http://www.w3.org/2000/svg">
<circle cx="51.5" cy="51.5" r="51.5" fill="#F87956"/>
<path d="M71.9927 34.3344C71.989 33.998 71.8588 33.6683 71.6115 33.4209L61.5747 23.384C61.5743 23.3836 61.574 23.3835 61.5735 23.3831C61.3365 23.1463 61.009 23 60.6475 23H32.7648C31.2426 23 30.0044 24.2381 30.0044 25.7603V76.2396C30.0044 77.7617 31.2425 78.9999 32.7647 78.9999H69.2351C70.7572 78.9999 71.9954 77.7618 71.9954 76.2396V34.348C71.9956 34.3432 71.9931 34.3391 71.9927 34.3344ZM61.9587 27.4768L67.5187 33.0368H62.0968C62.0208 33.0368 61.9587 32.9748 61.9587 32.8988V27.4768ZM69.3732 76.2397C69.3732 76.3157 69.3112 76.3776 69.2352 76.3776H32.7648C32.6888 76.3776 32.6269 76.3157 32.6269 76.2397V25.7603C32.6269 25.6843 32.6888 25.6224 32.7648 25.6224H59.3364V32.8988C59.3364 34.4208 60.5747 35.6593 62.0969 35.6593H69.3733V76.2397H69.3732Z" fill="white"/>
<path d="M62.6034 40.939H39.3966C38.6726 40.939 38.0854 41.526 38.0854 42.2502C38.0854 42.9742 38.6726 43.5613 39.3966 43.5613H62.6033C63.3273 43.5613 63.9145 42.9742 63.9145 42.2502C63.9146 41.526 63.3273 40.939 62.6034 40.939Z" fill="white"/>
<path d="M62.6034 48.8511H39.3966C38.6726 48.8511 38.0854 49.4382 38.0854 50.1623C38.0854 50.8863 38.6726 51.4734 39.3966 51.4734H62.6033C63.3273 51.4734 63.9145 50.8863 63.9145 50.1623C63.9146 49.4382 63.3273 48.8511 62.6034 48.8511Z" fill="white"/>
<path d="M62.6034 56.7632H39.3966C38.6726 56.7632 38.0854 57.3503 38.0854 58.0744C38.0854 58.7985 38.6726 59.3856 39.3966 59.3856H62.6033C63.3273 59.3856 63.9145 58.7985 63.9145 58.0744C63.9146 57.3504 63.3273 56.7632 62.6034 56.7632Z" fill="white"/>
<path d="M51 64.6753H39.3966C38.6726 64.6753 38.0854 65.2624 38.0854 65.9865C38.0854 66.7107 38.6726 67.2977 39.3966 67.2977H51C51.7241 67.2977 52.3112 66.7107 52.3112 65.9865C52.3112 65.2623 51.7241 64.6753 51 64.6753Z" fill="white"/>
</svg>
