<svg width="30" height="36" viewBox="0 0 30 36" fill="none" xmlns="http://www.w3.org/2000/svg">
<path d="M28.4068 8.90636L21.0942 1.59353C20.3126 0.812261 19.281 0.304194 18 0.0700684V12H29.9301C29.6957 10.7184 29.1876 9.6873 28.4068 8.90636Z" fill="#F87956"/>
<path d="M17.2502 14.9998C16.6249 14.9998 16.0936 14.7812 15.6562 14.3437C15.2187 13.9064 15.0002 13.3751 15.0002 12.7499V0H2.25014C1.62525 0 1.09395 0.218611 0.656487 0.65616C0.218937 1.09346 0.000244141 1.62476 0.000244141 2.24989V33.7501C0.000244141 34.3754 0.218937 34.9067 0.656487 35.3441C1.09404 35.7812 1.62525 36.0001 2.25022 36.0001H27.7507C28.3755 36.0001 28.9064 35.7812 29.3438 35.3441C29.7812 34.9064 30.0001 34.3754 30.0001 33.7501V14.9998H17.2502Z" fill="#F87956"/>
</svg>
