<svg width="101" height="99" viewBox="0 0 101 99" fill="none" xmlns="http://www.w3.org/2000/svg">
<path d="M30.8846 23.2049C37.464 24.6753 44.2201 25.4218 50.963 25.4218C57.7059 25.4218 64.4607 24.6767 71.0783 23.1957C71.714 23.0361 72.136 22.4321 72.0674 21.7806C71.1139 12.6309 64.528 5.15082 56.1827 2.89176V1.42132C56.1827 0.693352 55.5932 0.102539 54.864 0.102539C54.1347 0.102539 53.5452 0.693352 53.5452 1.42132V2.36424C52.6932 2.25215 51.8334 2.17434 50.959 2.17434C50.0873 2.17434 49.2301 2.25215 48.3808 2.36293V1.42132C48.3808 0.693352 47.7913 0.102539 47.0621 0.102539C46.3328 0.102539 45.7433 0.693352 45.7433 1.42132V2.89044C37.4007 5.14687 30.8121 12.6283 29.8586 21.7806C29.7887 22.4453 30.2305 23.0585 30.8846 23.2049ZM45.7433 5.6269V9.23244C45.7433 9.96041 46.3328 10.5512 47.0621 10.5512C47.7913 10.5512 48.3808 9.96041 48.3808 9.23244V5.02554C49.2301 4.89762 50.0913 4.8119 50.967 4.8119C51.84 4.8119 52.6985 4.8963 53.5452 5.02422V9.23113C53.5452 9.95909 54.1347 10.5499 54.864 10.5499C55.5932 10.5499 56.1827 9.95909 56.1827 9.23113V5.62559C62.8241 7.7053 68.0781 13.6082 69.2874 20.8852C57.2404 23.4054 44.6315 23.3974 32.6399 20.8852C33.8466 13.6095 39.0993 7.70794 45.7433 5.6269ZM50.963 20.3497C48.2226 20.3497 45.4756 20.0464 42.7984 19.4477C42.0876 19.2881 41.6392 18.5839 41.7975 17.8731C41.9571 17.1623 42.6652 16.7178 43.3708 16.8734C48.3545 17.9865 53.5834 17.9852 58.5526 16.8734C59.2726 16.7165 59.9689 17.1623 60.1272 17.8731C60.2868 18.5839 59.8384 19.2895 59.1289 19.4477C56.4531 20.0464 53.7061 20.3497 50.963 20.3497ZM28.971 29.1645C28.9974 28.3086 29.0726 25.7027 30.9439 24.9971C32.7823 24.3034 34.6748 26.1774 35.0348 26.5612C35.532 27.094 35.503 27.9288 34.9715 28.426C34.444 28.9231 33.6079 28.8968 33.1081 28.364C32.7428 27.9776 32.1955 27.5912 31.904 27.5015C31.8157 27.6716 31.6416 28.1411 31.6086 29.2436C31.4754 33.7578 34.9187 35.0198 35.0651 35.0713C35.4739 35.215 35.797 35.5526 35.9118 35.9707L35.9685 36.1777C35.9896 36.2555 36.0028 36.3347 36.0094 36.4164C37.0196 48.4384 46.52 52.3275 50.963 52.3275C55.406 52.3275 64.9065 48.4384 65.9166 36.4164C65.9232 36.3347 65.9377 36.2555 65.9575 36.1777L66.0142 35.9707C66.1316 35.546 66.4521 35.2071 66.8688 35.0673C67.006 35.0185 70.4493 33.7565 70.3161 29.2423C70.2844 28.1424 70.1117 27.6729 70.0207 27.5015C69.7279 27.5938 69.1661 27.9908 68.8166 28.364C68.3168 28.8954 67.482 28.9218 66.9532 28.426C66.4217 27.9288 66.3927 27.094 66.8899 26.5612C67.2473 26.1761 69.1397 24.3034 70.9808 24.9971C72.8521 25.704 72.9286 28.3086 72.9536 29.1645C73.0868 33.7169 70.4176 36.2503 68.4856 37.2354C67.1668 49.4565 57.5173 54.9624 50.9617 54.9624C44.406 54.9624 34.7565 49.4565 33.4378 37.2354C31.5071 36.2489 28.8392 33.7169 28.971 29.1645ZM99.4466 75.9402C98.2689 74.756 96.4253 74.181 93.8101 74.181C91.195 74.181 89.35 74.7573 88.1737 75.9402C86.5991 77.5241 86.6096 79.7462 86.6215 81.7059L86.6228 90.8583C86.6228 94.8212 89.8472 98.0456 93.8101 98.0456C97.7731 98.0456 100.997 94.8212 100.997 90.8583L100.999 81.7059C101.009 79.7462 101.021 77.5241 99.4466 75.9402ZM98.3599 81.6914L98.3586 90.8583C98.3586 93.3666 96.3171 95.4081 93.8088 95.4081C91.9599 95.4081 90.3721 94.295 89.6613 92.7085H92.3476C93.0769 92.7085 93.6664 92.1177 93.6664 91.3897C93.6664 90.6618 93.0769 90.071 92.3476 90.071H89.259V87.8449H92.3476C93.0769 87.8449 93.6664 87.254 93.6664 86.5261C93.6664 85.7981 93.0769 85.2073 92.3476 85.2073H89.259V82.8058H92.3489C93.0782 82.8058 93.6677 82.215 93.6677 81.487C93.6677 80.7591 93.0782 80.1682 92.3489 80.1682H89.2814C89.3355 79.191 89.507 78.3404 90.0424 77.801C90.6899 77.1496 91.9573 76.8185 93.8088 76.8185C95.6604 76.8185 96.9277 77.1482 97.5752 77.801C98.3771 78.6055 98.3692 80.1049 98.3599 81.6914ZM7.67013 73.2961C4.87168 73.2961 2.90275 73.908 1.64991 75.1674C-0.0223049 76.8489 -0.00911722 79.2293 0.00275179 81.3288L0.00407057 91.2288C0.00407057 95.4568 3.44345 98.8962 7.67013 98.8962C11.8981 98.8962 15.3375 95.4568 15.3375 91.2288L15.3388 81.3288C15.3507 79.2293 15.3639 76.8489 13.6917 75.1674C12.4388 73.9093 10.4699 73.2961 7.67013 73.2961ZM7.67013 96.26C4.89674 96.26 2.64163 94.0035 2.64163 91.2302L2.63899 81.3156C2.62976 79.5761 2.62053 77.9316 3.51993 77.0282C4.24263 76.3029 5.63789 75.9336 7.67013 75.9336C9.70369 75.9336 11.1003 76.3016 11.8216 77.0282C12.4467 77.6573 12.6287 78.6451 12.6815 79.7726H9.25135C8.52206 79.7726 7.93257 80.3634 7.93257 81.0914C7.93257 81.8194 8.52206 82.4102 9.25135 82.4102H12.7026L12.7013 85.2244H9.25135C8.52206 85.2244 7.93257 85.8153 7.93257 86.5432C7.93257 87.2712 8.52206 87.862 9.25135 87.862H12.7013L12.7 90.4864H9.25135C8.52206 90.4864 7.93257 91.0772 7.93257 91.8052C7.93257 92.5331 8.52206 93.1239 9.25135 93.1239H12.3241C11.5737 94.9597 9.77358 96.26 7.67013 96.26ZM16.7539 70.9922C16.56 71.5302 16.0536 71.8652 15.5129 71.8652C15.3652 71.8652 15.2135 71.8402 15.0658 71.7861C14.3801 71.5395 14.0253 70.7838 14.2706 70.0994C17.3763 61.4666 25.0187 53.856 33.8809 50.472L33.8215 49.3814C33.782 48.6547 34.3385 48.0322 35.0651 47.9927C35.7865 47.9571 36.4142 48.5096 36.4538 49.2376L36.7901 55.3765L40.6172 53.5803C41.2766 53.2704 42.0639 53.5553 42.3712 54.2134C42.6798 54.8727 42.3975 55.6574 41.7381 55.9673L36.1413 58.5957C35.9632 58.6787 35.772 58.7209 35.5808 58.7209C35.346 58.7209 35.1126 58.659 34.9042 58.5337C34.5284 58.3095 34.287 57.9112 34.2646 57.4734L34.0325 53.2361C26.1977 56.4935 19.5154 63.3103 16.7539 70.9922ZM86.3815 71.7861C86.2337 71.8388 86.0821 71.8652 85.9344 71.8652C85.3937 71.8652 84.8873 71.5302 84.6934 70.9922C81.8317 63.0386 75.5424 56.359 68.0623 53.2216L67.8289 57.4747C67.8051 57.9125 67.5651 58.3095 67.1893 58.535C66.9822 58.659 66.7475 58.7223 66.5127 58.7223C66.3215 58.7223 66.1303 58.6814 65.9522 58.597L60.3553 55.9687C59.696 55.6587 59.4124 54.8727 59.7223 54.2147C60.0322 53.5566 60.8182 53.2704 61.4763 53.5817L65.3034 55.3778L65.6397 49.2389C65.6779 48.5123 66.3096 47.961 67.0284 47.994C67.7563 48.0336 68.3129 48.656 68.272 49.3827L68.2126 50.4562C76.7359 53.7149 83.9589 61.1633 87.1754 70.1007C87.4233 70.7851 87.0672 71.5395 86.3815 71.7861ZM50.963 57.7305C51.6923 57.7305 52.2818 58.3214 52.2818 59.0493V68.7859C52.2818 69.5138 51.6923 70.1046 50.963 70.1046C50.2337 70.1046 49.6442 69.5138 49.6442 68.7859V59.0493C49.6442 58.32 50.2337 57.7305 50.963 57.7305ZM84.0314 73.1814C84.0314 73.9093 83.4419 74.5001 82.7126 74.5001H19.2134C18.4841 74.5001 17.8946 73.9093 17.8946 73.1814C17.8946 72.4534 18.4841 71.8626 19.2134 71.8626H82.7126C83.4419 71.8626 84.0314 72.4534 84.0314 73.1814ZM82.7126 85.4908H79.2073H22.7187H19.2134C18.4841 85.4908 17.8946 86.0816 17.8946 86.8096C17.8946 87.5376 18.4841 88.1284 19.2134 88.1284H21.3999V97.1396C21.3999 97.8676 21.9894 98.4584 22.7187 98.4584H79.2073C79.9366 98.4584 80.5261 97.8676 80.5261 97.1396V88.1284H82.7126C83.4419 88.1284 84.0314 87.5376 84.0314 86.8096C84.0314 86.0816 83.4419 85.4908 82.7126 85.4908ZM24.0375 88.1284H49.6442V95.8208H24.0375V88.1284ZM77.8885 95.8208H52.2818V88.1284H77.8885V95.8208ZM33.5327 79.7739C33.5327 77.2735 31.4991 75.24 28.9987 75.24C26.4997 75.24 24.4661 77.2735 24.4661 79.7739C24.4661 82.2743 26.4997 84.3066 28.9987 84.3066C31.4991 84.3079 33.5327 82.2743 33.5327 79.7739ZM29.0001 77.8788C29.8124 77.8788 30.5021 78.3958 30.7712 79.1159H27.2303C27.498 78.3945 28.1864 77.8788 29.0001 77.8788ZM27.2289 80.4333H30.7699C30.5008 81.1534 29.8124 81.6703 28.9987 81.6703C28.1864 81.6703 27.498 81.1534 27.2289 80.4333ZM77.7896 79.7739C77.7896 77.2735 75.7561 75.24 73.2556 75.24C70.7552 75.24 68.7217 77.2735 68.7217 79.7739C68.7217 82.2743 70.7552 84.3066 73.2556 84.3066C75.7561 84.3066 77.7896 82.2743 77.7896 79.7739ZM73.2556 77.8788C74.068 77.8788 74.7577 78.3958 75.0268 79.1159H71.4858C71.7549 78.3945 72.4433 77.8788 73.2556 77.8788ZM71.4858 80.4333H75.0268C74.7577 81.1534 74.0693 81.6703 73.2556 81.6703C72.442 81.6703 71.7549 81.1534 71.4858 80.4333ZM17.8946 82.9891V76.5601C17.8946 75.8321 18.4841 75.2413 19.2134 75.2413C19.9427 75.2413 20.5322 75.8321 20.5322 76.5601V82.9891C20.5322 83.7171 19.9427 84.3079 19.2134 84.3079C18.4841 84.3079 17.8946 83.7171 17.8946 82.9891ZM84.0314 76.5601V82.9891C84.0314 83.7171 83.4419 84.3079 82.7126 84.3079C81.9833 84.3079 81.3938 83.7171 81.3938 82.9891V76.5601C81.3938 75.8321 81.9833 75.2413 82.7126 75.2413C83.4419 75.2413 84.0314 75.8308 84.0314 76.5601ZM59.7091 83.183C61.3906 83.183 62.7595 81.8141 62.7595 80.1326C62.7595 78.4512 61.3919 77.0823 59.7091 77.0823H42.2169C40.5354 77.0823 39.1678 78.4512 39.1678 80.1326C39.1678 81.8141 40.5354 83.183 42.2169 83.183H59.7091ZM41.8054 80.1326C41.8054 79.9058 41.9914 79.7199 42.2169 79.7199H59.7091C59.936 79.7199 60.1219 79.9045 60.1219 80.1326C60.1219 80.3608 59.936 80.5454 59.7091 80.5454H42.2169C41.99 80.5454 41.8054 80.3595 41.8054 80.1326ZM52.411 31.5304C53.1403 31.5304 53.7298 32.1212 53.7298 32.8491V40.7262C53.7298 41.4542 53.1403 42.045 52.411 42.045H49.5163C48.787 42.045 48.1975 41.4542 48.1975 40.7262C48.1975 39.9982 48.787 39.4074 49.5163 39.4074H51.0922V32.8491C51.0922 32.1199 51.6817 31.5304 52.411 31.5304Z" fill="#4F4F4F"/>
</svg>
