<svg width="38" height="34" viewBox="0 0 38 34" fill="none" xmlns="http://www.w3.org/2000/svg">
<path d="M15.4417 24.9053C14.2837 24.1571 12.7384 24.4893 11.9901 25.6472C12.7384 24.4892 12.4062 22.9439 11.2482 22.1956C10.0902 21.4473 8.54488 21.7795 7.7966 22.9375C8.54488 21.7795 8.21267 20.2341 7.05471 19.4859C5.89668 18.7376 4.35137 19.0698 3.6031 20.2278L1.04374 24.1886C0.295464 25.3466 0.627667 26.8919 1.78563 27.6402C2.94366 28.3885 4.48897 28.0563 5.23725 26.8983C4.48897 28.0564 4.82117 29.6017 5.97914 30.3499C7.13717 31.0982 8.68248 30.766 9.43075 29.6081C8.68248 30.7661 9.01468 32.3114 10.1726 33.0597C11.3306 33.8079 12.876 33.4757 13.6243 32.3178L16.1836 28.3569C16.9319 27.1989 16.5997 25.6535 15.4417 24.9053Z" fill="#F87956"/>
<path d="M32.404 18.0754L32.337 18.0318L19.6168 9.74958L17.5899 12.8258C16.6844 14.2194 15.1521 15.0511 13.4883 15.0511C12.5468 15.0511 11.6301 14.7804 10.8375 14.2682C8.57345 12.8052 7.92166 9.7731 9.38259 7.51218L10.6001 5.62146L6.32834 4.59375L0 17.6588L1.55184 18.9944L1.59377 18.9295C2.4985 17.5293 4.03446 16.6935 5.70237 16.6936C6.64391 16.6937 7.56052 16.9645 8.35295 17.4765C9.1033 17.9613 9.69378 18.6263 10.0798 19.4068C10.9565 19.4397 11.8058 19.7076 12.5465 20.1862C13.2968 20.671 13.8873 21.336 14.2733 22.1164C15.15 22.1494 15.9992 22.4171 16.74 22.8959C19.004 24.3589 19.6558 27.3911 18.1928 29.6551L16.8358 31.7552L18.9367 33.1481C20.0947 33.8964 21.64 33.5641 22.3883 32.4062C23.1366 31.2482 22.8044 29.7028 21.6464 28.9546L22.4956 29.5033C23.6537 30.2516 25.199 29.9194 25.9472 28.7615C26.6955 27.6034 26.3633 26.0582 25.2054 25.3099L26.0546 25.8586C27.2126 26.6069 28.7579 26.2747 29.5062 25.1167C30.2544 23.9588 29.9224 22.4137 28.7646 21.6653L29.6135 22.2139C30.7715 22.9621 32.3168 22.6299 33.0651 21.472C33.7958 20.3414 33.4961 18.8421 32.404 18.0754Z" fill="#F87956"/>
<path d="M34.6651 0.451904L16.3998 1.0337L11.3938 8.80737C10.6456 9.96541 10.9778 11.5107 12.1357 12.259C13.2938 13.0073 14.8391 12.6751 15.5873 11.5171L18.9282 6.44677L19.6595 6.92296L32.8426 15.5065L37.9999 11.6874L34.6651 0.451904Z" fill="#F87956"/>
</svg>
