<svg width="92" height="96" viewBox="0 0 92 96" fill="none" xmlns="http://www.w3.org/2000/svg">
<path d="M57.7152 30.4002H39.0681C36.4071 30.4002 34.2422 32.5651 34.2422 35.2261C34.2422 37.8872 36.4071 40.0521 39.0681 40.0521H57.7152C60.3776 40.0521 62.5425 37.8872 62.5425 35.2261C62.5425 32.5651 60.3762 30.4002 57.7152 30.4002ZM57.7152 37.399H39.0681C37.8702 37.399 36.8952 36.424 36.8952 35.2261C36.8952 34.0283 37.8689 33.0533 39.0681 33.0533H57.7152C58.9131 33.0533 59.8894 34.0283 59.8894 35.2261C59.8894 36.424 58.9131 37.399 57.7152 37.399ZM27.4861 12.7719C28.8763 3.93981 35.3246 0 48.3923 0C60.8949 0 68.0741 4.28073 69.7309 12.7241C69.8716 13.4431 69.4033 14.1395 68.6843 14.2815C68.5994 14.2987 68.5119 14.3067 68.4283 14.3067C67.8061 14.3067 67.2517 13.8676 67.1283 13.2348C65.7314 6.114 59.6015 2.65307 48.3923 2.65307C33.7805 2.65307 30.9683 7.71513 30.1074 13.1858C29.9919 13.9087 29.3128 14.3995 28.5898 14.2894C27.8668 14.1754 27.372 13.4962 27.4861 12.7719ZM90.0097 73.7646C89.1647 72.9143 87.9602 72.389 86.3922 72.1516C86.2238 71.0664 85.9664 70.0251 85.6666 69.009V42.4027C85.6666 41.6704 85.0736 41.0761 84.3401 41.0761C83.6065 41.0761 83.0135 41.6704 83.0135 42.4027V63.0343C81.0397 59.7975 78.4343 57.0662 75.5942 54.8588L75.9564 53.4819C76.1434 52.7735 75.7189 52.0479 75.0106 51.8609C74.3128 51.6765 73.5766 52.097 73.3909 52.8067L73.2874 53.2007C71.3546 51.9325 69.3728 50.8938 67.4506 50.0966V41.1319C68.9271 40.3691 72.2951 38.0158 72.132 32.463C72.1041 31.5755 72.0259 28.872 70.0626 28.1106C69.1605 27.7591 68.2373 27.9939 67.4493 28.3865V27.0202L70.8001 24.976C71.4263 24.594 71.6239 23.7781 71.2419 23.1533C70.8598 22.5272 70.0427 22.3282 69.4192 22.7116L67.4493 23.9134V20.747C67.4493 15.5417 62.6008 11.6523 58.2657 11.6523H38.5149C33.2804 11.6523 29.3313 15.5629 29.3313 20.747V23.9227L27.3468 22.7116C26.7234 22.3282 25.9062 22.5272 25.5242 23.1533C25.1421 23.7781 25.3398 24.594 25.9659 24.976L29.3313 27.0295V28.3043C28.6017 27.9421 27.7488 27.7312 26.9011 28.0522C24.9418 28.7924 24.8622 31.5556 24.8344 32.463C24.6699 38.0291 27.9265 40.3824 29.3313 41.1358V50.1802C27.3256 51.0252 25.4353 52.04 23.6803 53.1993L23.5768 52.8067C23.3911 52.097 22.6642 51.6738 21.9571 51.8609C21.2488 52.0479 20.8243 52.7722 21.0113 53.4806L21.3774 54.8734C16.1973 58.9618 12.4936 64.3648 11.0079 70.2068V65.3862C11.0079 64.654 10.4149 64.0597 9.68137 64.0597H9.00882V51.8834C9.00882 51.8834 9.00882 51.8821 9.00882 51.8808C9.00882 51.8794 9.00882 51.8794 9.00882 51.8781L9.0075 35.181C8.97168 34.0774 9.16137 30.6244 10.468 29.2753C10.8142 28.9171 11.2042 28.7513 11.6977 28.7513C12.4313 28.7513 13.0242 28.157 13.0242 27.4248C13.0242 26.6925 12.4313 26.0982 11.6977 26.0982C10.4879 26.0982 9.40148 26.5599 8.5578 27.4341C6.23636 29.8391 6.33851 34.7234 6.35708 35.2261V50.5556H4.46279V49.3113H2.33237V54.4516H4.46279V53.2086H6.35575V64.061H5.68055C4.94697 64.061 4.35401 64.6553 4.35401 65.3876V72.4169C3.38299 72.71 2.59503 73.1544 1.99013 73.7633C0.406244 75.3565 0.416856 77.5917 0.428795 79.5642L0.430122 88.7691C0.430122 92.7553 3.6735 95.9987 7.65974 95.9987C11.646 95.9987 14.8894 92.7553 14.8894 88.7691L14.8907 79.5642C14.9026 77.5917 14.9146 75.3565 13.3293 73.7633C13.259 73.693 13.1622 73.6439 13.0879 73.5776C13.787 67.6267 17.0874 61.9664 22.1163 57.6817L24.8304 68.0101V93.7489C24.8304 94.4811 25.4234 95.0754 26.1569 95.0754C26.8905 95.0754 27.4835 94.4811 27.4835 93.7489V69.1695H29.3327V71.3676C29.3327 76.4867 33.4993 80.6533 38.6184 80.6533H58.1675C63.2866 80.6533 67.452 76.488 67.452 71.3676V69.1695H69.4842V93.7515C69.4842 94.4838 70.0772 95.0781 70.8108 95.0781C71.5443 95.0781 72.1373 94.4838 72.1373 93.7515V68.0128L74.8593 57.6565C78.4423 60.6518 81.5013 64.5863 83.0135 69.3818V72.0733C81.0874 72.2457 79.6388 72.7896 78.6705 73.7646C77.0866 75.3578 77.0972 77.593 77.1091 79.5656L77.1105 88.7704C77.1105 92.7566 80.3538 96 84.3401 96C88.3263 96 91.5697 92.7566 91.5697 88.7704L91.571 79.5656C91.583 77.593 91.5949 75.3578 90.0097 73.7646ZM7.00708 66.7141H8.35617V71.1102H7.00708V66.7141ZM7.65974 93.3469C5.13667 93.3469 3.08319 91.2934 3.08319 88.7704L3.08187 79.551C3.07258 77.9538 3.06462 76.4469 3.87115 75.635C4.52248 74.9797 5.79728 74.6468 7.65974 74.6468C9.52219 74.6468 10.797 74.9784 11.4483 75.635C11.9869 76.1776 12.1593 77.0332 12.2137 78.0162H9.13086C8.39729 78.0162 7.80433 78.6105 7.80433 79.3427C7.80433 80.0749 8.39729 80.6692 9.13086 80.6692H12.2389V83.0862H9.13086C8.39729 83.0862 7.80433 83.6805 7.80433 84.4127C7.80433 85.145 8.39729 85.7393 9.13086 85.7393H12.2376V87.9784H9.13086C8.39729 87.9784 7.80433 88.5727 7.80433 89.305C7.80433 90.0372 8.39729 90.6315 9.13086 90.6315H11.833C11.1167 92.2273 9.51954 93.3469 7.65974 93.3469ZM27.4875 32.5412C27.5312 31.0091 27.827 30.5819 27.8085 30.5461C28.0857 30.5554 28.8153 31.0436 29.2743 31.5291C29.2902 31.5463 29.3128 31.553 29.33 31.5689V37.8566C28.4001 36.9214 27.4079 35.2805 27.4875 32.5412ZM27.1784 66.5164L24.3953 55.9254C25.9248 54.8522 27.575 53.8971 29.33 53.0839V66.5164H27.1784ZM69.0717 30.5673C69.0756 30.57 69.4312 30.9175 69.4802 32.5412C69.5625 35.3429 68.4561 37.001 67.452 37.923V31.6272C67.9932 31.082 68.7745 30.5474 69.0717 30.5673ZM64.7976 71.3676C64.7976 75.0248 61.8235 78.0002 58.1662 78.0002H38.6171C34.9598 78.0002 31.9844 75.0248 31.9844 71.3676V20.747C31.9844 17.0738 34.7914 14.3054 38.5149 14.3054H58.2684C60.9307 14.3054 64.7989 16.8152 64.7989 20.747V71.3676H64.7976ZM69.788 66.5164H67.452V52.9937C69.1579 53.7737 70.893 54.7527 72.5737 55.9201L69.788 66.5164ZM88.9179 79.551L88.9166 88.7704C88.9166 91.2934 86.8631 93.3469 84.3401 93.3469C82.4803 93.3469 80.8831 92.2273 80.1681 90.6315H82.8703C83.6039 90.6315 84.1968 90.0372 84.1968 89.305C84.1968 88.5727 83.6039 87.9784 82.8703 87.9784H79.7635V85.7393H82.8703C83.6039 85.7393 84.1968 85.145 84.1968 84.4127C84.1968 83.6805 83.6039 83.0862 82.8703 83.0862H79.7635V80.6692H82.8716C83.6052 80.6692 84.1981 80.0749 84.1981 79.3427C84.1981 78.6105 83.6052 78.0162 82.8716 78.0162H79.7874C79.8418 77.0332 80.0142 76.1776 80.5528 75.635C81.2041 74.9797 82.4789 74.6468 84.3414 74.6468C86.2039 74.6468 87.4787 74.9784 88.13 75.635C88.9352 76.4455 88.9272 77.9538 88.9179 79.551ZM60.4598 87.4505C60.4598 88.1827 59.8668 88.777 59.1333 88.777H37.8344C37.1008 88.777 36.5079 88.1827 36.5079 87.4505C36.5079 86.7182 37.1008 86.1239 37.8344 86.1239H59.1333C59.8668 86.1239 60.4598 86.7182 60.4598 87.4505Z" fill="#4F4F4F"/>
</svg>
