<svg width="96" height="96" viewBox="0 0 96 96" fill="none" xmlns="http://www.w3.org/2000/svg">
<path d="M26.6253 22.9659C33.0843 24.4092 39.7141 25.1418 46.3322 25.1418C52.9503 25.1418 59.5801 24.4105 66.0145 22.9711C66.6694 22.8391 67.1173 22.232 67.0474 21.568C66.1219 12.6963 59.8028 5.41548 51.7518 3.10373V1.56342C51.7518 0.848923 51.1719 0.269043 50.4574 0.269043C49.7429 0.269043 49.163 0.848923 49.163 1.56342V2.55621C48.231 2.419 47.2887 2.32581 46.3283 2.32581C45.3705 2.32581 44.4308 2.419 43.5001 2.55491V1.56342C43.5001 0.848923 42.9202 0.269043 42.2057 0.269043C41.4912 0.269043 40.9114 0.848923 40.9114 1.56342V3.10243C32.8629 5.41289 26.5425 12.6938 25.617 21.568C25.5497 22.2204 25.9846 22.8223 26.6253 22.9659ZM40.9114 5.81544V9.82413C40.9114 10.5386 41.4912 11.1185 42.2057 11.1185C42.9202 11.1185 43.5001 10.5386 43.5001 9.82413V5.16696C44.4282 5.01034 45.3731 4.91456 46.3348 4.91456C47.2939 4.91456 48.2362 5.01034 49.163 5.16567V9.82413C49.163 10.5386 49.7429 11.1185 50.4574 11.1185C51.1719 11.1185 51.7518 10.5386 51.7518 9.82413V5.81415C58.1291 7.93693 63.1487 13.6568 64.3176 20.6891C52.5115 23.1614 40.2046 23.1691 28.3468 20.6891C29.5157 13.6581 34.5327 7.93952 40.9114 5.81544ZM54.347 19.2808C51.7207 19.8685 49.0245 20.1662 46.3322 20.1662C43.6425 20.1662 40.9463 19.8685 38.3187 19.2808C37.621 19.1242 37.1823 18.433 37.3376 17.7354C37.4942 17.0377 38.188 16.6015 38.8818 16.7542C43.7732 17.8467 48.9028 17.8454 53.7826 16.7542C54.479 16.6002 55.1728 17.0377 55.3281 17.7354C55.4834 18.4317 55.0446 19.1242 54.347 19.2808ZM24.7485 28.8152C24.7731 27.9752 24.8481 25.4175 26.6836 24.725C28.497 24.0416 30.3479 25.8835 30.7 26.2601C31.188 26.783 31.1608 27.6024 30.6392 28.0904C30.1163 28.5771 29.2969 28.5512 28.8089 28.0295C28.4504 27.6503 27.9132 27.271 27.6272 27.183C27.5391 27.35 27.3683 27.8108 27.3359 28.8929C27.2052 33.3235 30.5861 34.5622 30.7298 34.6127C31.131 34.7538 31.4469 35.0852 31.5595 35.4955L31.6151 35.6987C31.6358 35.7751 31.6501 35.854 31.6566 35.933C32.6468 47.7325 41.9714 51.5496 46.3322 51.5496C50.6929 51.5496 60.0176 47.7325 61.0078 35.933C61.0143 35.8527 61.0285 35.7725 61.0506 35.6948L61.1062 35.4916C61.2214 35.0761 61.5359 34.746 61.945 34.6088C62.0796 34.561 65.4592 33.3222 65.3298 28.8916C65.2974 27.8095 65.1265 27.35 65.0385 27.1817C64.7525 27.2697 64.2153 27.649 63.8542 28.0308C63.3636 28.5486 62.5456 28.5732 62.0252 28.0852C61.5049 27.5972 61.4777 26.7818 61.9657 26.2601C62.3177 25.8835 64.1661 24.0441 65.9808 24.725C67.8163 25.4188 67.8926 27.9752 67.9172 28.8152C68.0492 33.2847 65.4281 35.7699 63.5306 36.7381C62.2375 48.7331 52.7665 54.1358 46.3322 54.1358C39.8979 54.1358 30.4256 48.7318 29.1338 36.7368C27.2363 35.7699 24.6164 33.2834 24.7485 28.8152ZM74.8201 80.6757L64.5725 80.6718C62.0032 80.6718 57.2192 80.6718 57.2192 88.2012C57.2192 95.7306 62.0019 95.7306 64.5713 95.7306L74.8214 95.7267C78.9712 95.7267 82.3469 92.351 82.3469 88.2012C82.3469 84.0514 78.9699 80.6757 74.8201 80.6757ZM74.8201 93.138L64.57 93.1418C61.8052 93.1418 59.8067 93.1418 59.8067 88.2012C59.8067 83.8767 61.3379 83.3382 63.5746 83.2709V86.6505C63.5746 87.365 64.1545 87.9449 64.869 87.9449C65.5835 87.9449 66.1633 87.365 66.1633 86.6505V83.2619L68.9255 83.2632V86.6505C68.9255 87.365 69.5054 87.9449 70.2199 87.9449C70.9344 87.9449 71.5143 87.365 71.5143 86.6505V83.2645L74.0901 83.2657V86.6505C74.0901 87.365 74.67 87.9449 75.3845 87.9449C76.099 87.9449 76.6788 87.365 76.6788 86.6505V83.6346C78.4819 84.3711 79.7569 86.138 79.7569 88.2025C79.7569 90.9233 77.5422 93.138 74.8201 93.138ZM31.2475 80.6718L21 80.6757C16.8502 80.6757 13.4745 84.0514 13.4745 88.2012C13.4745 92.351 16.8502 95.7267 21 95.7267L31.2501 95.7306C33.8195 95.7306 38.6022 95.7306 38.6022 88.2012C38.6022 80.6718 33.8169 80.6718 31.2475 80.6718ZM31.2488 93.1405L20.9987 93.1367C18.2766 93.1367 16.0619 90.922 16.0619 88.1999C16.0619 86.1354 17.3382 84.3686 19.1399 83.632V86.6479C19.1399 87.3624 19.7198 87.9423 20.4343 87.9423C21.1488 87.9423 21.7287 87.3624 21.7287 86.6479V83.2632L24.3045 83.2619V86.6479C24.3045 87.3624 24.8844 87.9423 25.5989 87.9423C26.3134 87.9423 26.8933 87.3624 26.8933 86.6479V83.2606L29.6555 83.2593V86.6479C29.6555 87.3624 30.2353 87.9423 30.9498 87.9423C31.6643 87.9423 32.2442 87.3624 32.2442 86.6479V83.2683C34.4809 83.3356 36.0121 83.8754 36.0121 88.1986C36.0121 93.1405 34.0136 93.1405 31.2488 93.1405ZM56.0892 88.2012C56.0892 88.9157 55.5093 89.4956 54.7948 89.4956H41.7514C41.0369 89.4956 40.457 88.9157 40.457 88.2012C40.457 87.4867 41.0369 86.9068 41.7514 86.9068H54.7948C55.5106 86.9068 56.0892 87.4854 56.0892 88.2012ZM7.95524 79.9508C7.95524 80.8893 7.19414 81.6504 6.25572 81.6504C5.3173 81.6504 4.5562 80.8893 4.5562 79.9508C4.5562 79.0124 5.3173 78.2513 6.25572 78.2513C7.19414 78.2513 7.95524 79.0124 7.95524 79.9508ZM94.7056 65.5884H84.7816C84.0671 65.5884 83.4873 66.1683 83.4873 66.8828V70.4061H68.2628L71.28 57.6513C73.8998 60.1987 75.9424 63.3233 77.1112 66.7456C77.295 67.2841 77.7972 67.6219 78.3357 67.6219C78.4742 67.6219 78.6152 67.5986 78.7537 67.552C79.4294 67.3216 79.7918 66.5851 79.5601 65.9082C77.0206 58.4694 70.7778 52.2797 63.2626 49.7388L63.3222 48.6593C63.361 47.9461 62.8135 47.3352 62.1003 47.2963C61.3987 47.264 60.7761 47.805 60.7373 48.5182L60.4072 54.5435L56.651 52.7806C56.0038 52.4764 55.2336 52.7534 54.9294 53.4019C54.6253 54.0491 54.9036 54.8192 55.5507 55.1234L61.0454 57.7031C61.2201 57.7847 61.4078 57.8261 61.5955 57.8261C61.8259 57.8261 62.055 57.7652 62.2595 57.6423C62.6297 57.4222 62.8653 57.0313 62.8886 56.6016L63.1164 52.4428C63.8024 52.7003 64.4768 52.9877 65.1356 53.3113L62.3074 65.0332H29.7849L27.0887 53.6362C27.9404 53.187 28.8167 52.7948 29.715 52.4583L29.9415 56.6016C29.9648 57.0313 30.2004 57.4209 30.5706 57.6423C30.7738 57.7639 31.0029 57.8261 31.2346 57.8261C31.4223 57.8261 31.61 57.7859 31.7847 57.7031L37.278 55.1234C37.9252 54.8192 38.2035 54.0478 37.8993 53.4019C37.5952 52.7547 36.8237 52.4764 36.1778 52.7806L32.4215 54.5435L32.0915 48.5182C32.0526 47.8037 31.4236 47.2614 30.7285 47.2963C30.0153 47.3352 29.4678 47.9461 29.5066 48.6593L29.5661 49.7401C27.9326 50.2928 26.3626 51.0293 24.8689 51.9056C24.8533 51.916 24.8365 51.9237 24.8223 51.9354C23.4929 52.7185 22.227 53.6142 21.0479 54.6212C21.0401 54.6277 21.0336 54.6354 21.0258 54.6406C18.6558 56.6676 16.6185 59.1049 15.086 61.8438C14.3546 63.1511 13.7424 64.518 13.2674 65.9094C13.0357 66.5851 13.3968 67.3216 14.0738 67.5533C14.2123 67.6012 14.3533 67.6232 14.4918 67.6232C15.0303 67.6232 15.5325 67.2841 15.7163 66.7469C16.1409 65.5043 16.6884 64.2811 17.3446 63.1084C18.3594 61.295 19.6227 59.6343 21.0621 58.151L23.9615 70.4074H12.5127V66.8841C12.5127 66.1696 11.9329 65.5897 11.2184 65.5897H1.29438C0.579881 65.5897 0 66.1696 0 66.8841V93.0189C0 93.7334 0.579881 94.3132 1.29438 94.3132H11.2184C11.9329 94.3132 12.5127 93.7334 12.5127 93.0189V72.9949H83.4873V93.0176C83.4873 93.7321 84.0671 94.312 84.7816 94.312H94.7056C95.4201 94.312 96 93.7321 96 93.0176V66.8828C96 66.1683 95.4201 65.5884 94.7056 65.5884ZM9.92398 91.7232H7.92288C7.83745 90.865 7.13719 90.1855 6.25701 90.1855C5.37554 90.1855 4.67658 90.8637 4.59115 91.7232H2.58875V68.1772H4.58727C4.66752 69.0406 5.37166 69.724 6.25572 69.724C7.13978 69.724 7.84392 69.0406 7.92417 68.1772H9.92269V91.7232H9.92398ZM69.0705 55.7499L65.6029 70.4061H63.6743L67.4797 54.6328C68.0247 54.9836 68.5553 55.3564 69.0705 55.7499ZM61.6835 67.6219L61.0117 70.4061H31.056L30.3971 67.6219H61.6835ZM23.2522 56.1563C23.7414 55.7615 24.2398 55.3797 24.7562 55.025L28.3947 70.4061H26.6227L23.2522 56.1563ZM93.4112 91.7232H91.4101C91.3247 90.865 90.6245 90.1855 89.7443 90.1855C88.8628 90.1855 88.1638 90.8637 88.0784 91.7232H86.076V68.1772H88.0745C88.1548 69.0406 88.8589 69.724 89.743 69.724C90.627 69.724 91.3312 69.0406 91.4114 68.1772H93.41V91.7232H93.4112ZM91.4425 79.9508C91.4425 80.8893 90.6814 81.6504 89.743 81.6504C88.8046 81.6504 88.0435 80.8893 88.0435 79.9508C88.0435 79.0124 88.8046 78.2513 89.743 78.2513C90.6814 78.2513 91.4425 79.0124 91.4425 79.9508ZM32.3892 27.5778C31.6747 27.5778 31.0948 28.1577 31.0948 28.8722C31.0948 32.4239 31.8507 35.0981 33.3418 36.8196C34.6427 38.3211 36.4419 39.0835 38.685 39.0835C41.7954 39.0835 44.9783 37.5756 46.3348 36.8468C47.6874 37.5639 50.8509 39.0421 53.9483 39.0421C56.7946 39.0421 61.5683 37.7205 61.5683 28.8735C61.5683 28.159 60.9884 27.5791 60.2739 27.5791H32.3892V27.5778ZM53.9496 36.452C50.6787 36.452 47.0389 34.2762 47.0027 34.2542C46.5898 34.0044 46.0681 34.0044 45.6539 34.2581C45.6177 34.2801 41.9766 36.4935 38.6863 36.4935C38.6863 36.4935 38.6863 36.4935 38.685 36.4935C37.2043 36.4935 36.0963 36.0456 35.2976 35.124C34.3916 34.0782 33.8635 32.4149 33.7224 30.1665H58.9394C58.5317 36.4533 55.1184 36.452 53.9496 36.452Z" fill="#4F4F4F"/>
</svg>

