<svg width="102" height="103" viewBox="0 0 102 103" fill="none" xmlns="http://www.w3.org/2000/svg">
<ellipse cx="51" cy="51.5" rx="51" ry="51.5" fill="#F87956"/>
<path d="M79.9996 77.445C79.9991 75.3979 78.7818 73.5571 76.898 72.7558L62.4494 66.6085V63.1516C63.7835 61.1829 64.6225 58.8531 64.7889 56.3424H66.5248C69.96 56.3424 72.7553 53.5471 72.7553 50.1119V45.0695C72.7553 42.1353 70.7154 39.6701 67.9802 39.0125C67.8563 34.0091 66.7244 30.2067 64.5305 27.4101C61.7139 23.82 57.1619 22 51 22C44.8381 22 40.2861 23.82 37.4695 27.4105C35.2751 30.2067 34.1437 34.0091 34.0198 39.0125C31.2842 39.6701 29.2447 42.1353 29.2447 45.0695V50.1119C29.2447 53.5471 32.04 56.3424 35.4752 56.3424H37.2111C37.3775 58.8531 38.2165 61.1829 39.5506 63.1516V66.6085L25.102 72.7558C23.2182 73.5571 22.0004 75.3984 22.0004 77.4454L22 78.2999C22 78.7508 22.1788 79.1831 22.4978 79.5017C22.8164 79.8203 23.2483 79.9996 23.6992 79.9996H78.3008C78.7517 79.9996 79.184 79.8203 79.5026 79.5017C79.8212 79.1827 80 78.7504 80 78.2999L79.9996 77.445ZM59.0527 67.8006C59.054 67.8413 59.1492 71.9654 56.7132 74.5023C55.3755 75.8949 53.4532 76.6007 51 76.6007C48.5556 76.6007 46.6382 75.8997 45.3014 74.5174C42.8362 71.9672 42.9464 67.8364 42.9473 67.8006C42.9482 67.7807 42.9486 67.7608 42.9486 67.7408C42.9486 67.7338 42.9491 67.7267 42.9491 67.7192V66.6456C45.2173 68.2776 47.9985 69.2396 51 69.2396C54.0015 69.2396 56.7827 68.2772 59.0509 66.6456V67.7196C59.0509 67.7262 59.0514 67.7333 59.0514 67.7404C59.0514 67.7603 59.0518 67.7802 59.0527 67.8006ZM61.4272 44.1005C61.425 44.1345 61.4219 44.1686 61.4219 44.2036V53.7373L58.1947 55.8892C57.1681 56.5738 55.9729 56.9358 54.7383 56.9358H51.8642C50.9261 56.9358 50.165 57.6964 50.165 58.635C50.165 59.5735 50.9261 60.3342 51.8642 60.3342H54.7383C56.6459 60.3342 58.4934 59.7749 60.0802 58.7164L61.0865 58.0456C59.9196 62.525 55.8397 65.8416 51 65.8416C45.2532 65.8416 40.5781 61.1661 40.5781 55.4197V44.2036C40.5781 44.1682 40.575 44.1341 40.5728 44.0996V41.7751C40.575 41.7406 40.5781 41.7065 40.5781 41.6711C40.5781 38.7479 41.2857 36.8168 42.6814 35.9323C44.9549 34.4906 48.9313 35.8163 50.269 36.4478C50.7292 36.6673 51.2668 36.6668 51.7279 36.4491C53.0687 35.8168 57.0446 34.491 59.3186 35.9323C60.7143 36.8168 61.4219 38.7479 61.4219 41.6711C61.4219 41.7061 61.425 41.7401 61.4272 41.7742V44.1005ZM69.3569 45.0695V50.1119C69.3569 51.6735 68.0864 52.9439 66.5248 52.9439H64.8256V42.2375H66.5248C68.0864 42.2375 69.3569 43.5079 69.3569 45.0695ZM51 25.3984C59.9983 25.3984 64.2243 29.5111 64.5699 38.6882C64.0946 36.0898 62.9428 34.2007 61.1267 33.0547C57.611 30.8355 52.8178 32.3528 51 33.0679C49.1822 32.3528 44.389 30.8355 40.8733 33.0547C39.0572 34.2007 37.9054 36.0898 37.4301 38.6882C37.7757 29.5111 42.0017 25.3984 51 25.3984ZM37.1744 52.9439H35.4752C33.9136 52.9439 32.6431 51.6735 32.6431 50.1119V45.0695C32.6431 43.5079 33.9136 42.2375 35.4752 42.2375H37.1744V52.9439ZM26.4326 75.8829L39.7453 70.2189C40.0436 72.0628 40.7843 74.5718 42.6004 76.6011H25.6232C25.8033 76.2865 26.0839 76.0312 26.4326 75.8829ZM59.3996 76.6011C61.2157 74.5718 61.9564 72.0628 62.2547 70.2189L75.5674 75.8829C75.9161 76.0312 76.1962 76.2865 76.3768 76.6011H59.3996Z" fill="white"/>
</svg>
