<svg width="81" height="91" viewBox="0 0 81 91" fill="none" xmlns="http://www.w3.org/2000/svg">
<path d="M71.9556 65.8562C71.9338 65.8504 71.912 65.8448 71.8898 65.84L56.9418 62.5429V54.7339C59.7632 52.2621 61.4515 48.4825 61.4515 44.4248V31.8992C62.9328 31.1332 64.2579 30.2782 65.3951 29.3412C65.8816 28.9402 66.0806 28.2406 65.8893 27.6049C65.698 26.9692 65.1591 26.54 64.552 26.54H64.4152C64.0482 19.6854 61.2736 13.417 56.9418 8.88632V8.19006C56.9418 7.33104 56.311 6.63499 55.5325 6.63499C55.2552 6.63499 54.9972 6.72477 54.7792 6.87737C52.3026 4.83794 49.4483 3.30816 46.3321 2.4481C46.0196 1.04501 44.873 0 43.5066 0H37.4936C36.1272 0 34.9808 1.04501 34.6681 2.4481C31.5519 3.30837 28.6976 4.83794 26.221 6.87737C26.0031 6.72477 25.7451 6.63499 25.4677 6.63499C24.6892 6.63499 24.0584 7.33104 24.0584 8.19006V8.88632C19.7267 13.417 16.952 19.6854 16.5851 26.54H16.4483C15.8412 26.54 15.3022 26.969 15.111 27.6049C14.9197 28.2408 15.1187 28.9402 15.6051 29.3412C16.7423 30.2782 18.0676 31.1332 19.5487 31.8992V44.4248C19.5487 48.4825 21.237 52.2621 24.0584 54.7339V62.5429L9.11021 65.84C9.08823 65.8448 9.06643 65.8504 9.04445 65.8562C3.72316 67.3242 0.0065918 72.5768 0.0065918 78.6296V91.1274C0.0065918 93.8142 1.98749 96 4.42236 96H76.5779C79.0127 96 80.9936 93.8142 80.9936 91.1274V78.6296C80.9936 72.5768 77.2771 67.3242 71.9556 65.8562ZM64.6459 92.8898H16.3543V84.4924C16.3543 82.606 17.7452 81.0713 19.4548 81.0713H61.5455C63.255 81.0713 64.6459 82.606 64.6459 84.4924V92.8898ZM34.1805 61.0473C36.1127 62.2103 38.2977 62.8251 40.5001 62.8251H40.5012C42.7024 62.8251 44.8873 62.2103 46.8195 61.0473L54.1232 56.6514V62.9287C54.1232 66.8025 50.5555 71.3261 40.5001 71.3261C30.4448 71.3261 26.877 66.8025 26.877 62.9287V56.6514L34.1805 61.0473ZM26.877 77.9611V69.8998C29.6826 72.7703 34.4387 74.4363 40.5001 74.4363C46.5616 74.4363 51.3176 72.7703 54.1232 69.8998V77.9611H26.877ZM24.0584 77.9611H20.864V66.4189L24.0584 65.7144V77.9611ZM60.1362 77.9611H56.9418V65.7144L60.1362 66.4189V77.9611ZM40.5001 33.1749C33.6921 33.1749 27.2359 31.9481 22.3673 29.8392V29.6501H58.6329V29.8392C53.7643 31.9481 47.3081 33.1749 40.5001 33.1749ZM26.877 10.2759C29.0892 8.20727 31.6975 6.624 34.5811 5.69759V26.54H26.877V10.2759ZM46.4191 5.69759C49.3027 6.624 51.911 8.20727 54.1232 10.2759V26.54H46.4191V5.69759ZM61.5872 26.54H56.9418V13.4611C59.6116 17.117 61.2905 21.6558 61.5872 26.54ZM37.4936 3.11015H43.5066C43.5583 3.11015 43.6005 3.1568 43.6005 3.21382V3.71497V3.71601V26.54H37.3997V3.21382C37.3997 3.1568 37.442 3.11015 37.4936 3.11015ZM24.0584 13.4611V26.54H19.413C19.7097 21.6558 21.3887 17.117 24.0584 13.4611ZM22.3673 44.4248V33.1754C24.6904 34.0935 27.2868 34.8242 30.0714 35.3469V38.0475C30.0714 38.9065 30.7022 39.6026 31.4807 39.6026C32.2592 39.6026 32.89 38.9065 32.89 38.0475V35.796C35.3292 36.1169 37.8818 36.2851 40.5001 36.2851C43.1184 36.2851 45.6711 36.1169 48.1103 35.796V38.0475C48.1103 38.9065 48.7411 39.6026 49.5196 39.6026C50.298 39.6026 50.9288 38.9065 50.9288 38.0475V35.3469C53.7134 34.8242 56.3099 34.0937 58.6329 33.1754V44.4248C58.6329 48.107 56.8129 51.4898 53.8835 53.253L45.47 58.317C43.9504 59.2316 42.2324 59.7149 40.5001 59.7149H40.499C38.768 59.7149 37.05 59.2316 35.5306 58.317L27.1171 53.253C24.1873 51.4898 22.3673 48.107 22.3673 44.4248ZM2.82517 91.1274V78.6296C2.82517 74.0185 5.649 70.0155 9.69666 68.8824L18.0455 67.0408V78.1496C15.4601 78.8492 13.5358 81.4269 13.5358 84.4924V92.8898H4.42236C3.54165 92.8898 2.82517 92.0993 2.82517 91.1274ZM78.1751 91.1274C78.1751 92.0993 77.4586 92.8898 76.5779 92.8898H67.4645V84.4924C67.4645 81.4269 65.5401 78.8494 62.9548 78.1496V67.0408L71.3036 68.8824C75.3512 70.0155 78.1751 74.0185 78.1751 78.6296V91.1274Z" fill="#4F4F4F"/>
</svg>


