<svg width="14" height="17" viewBox="0 0 14 17" fill="none" xmlns="http://www.w3.org/2000/svg">
<path fill-rule="evenodd" clip-rule="evenodd" d="M10.7225 11.0136C11.9614 9.8518 12.7354 8.20015 12.7354 6.36771C12.7354 2.85092 9.8845 0 6.36771 0C2.85092 0 0 2.85092 0 6.36771C0 9.8845 2.85092 12.7354 6.36771 12.7354C7.13585 12.7354 7.87221 12.5994 8.55404 12.3502L11.0888 16.3492C11.3845 16.8156 12.0023 16.9541 12.4688 16.6584L12.9309 16.3655C13.3974 16.0699 13.5358 15.452 13.2401 14.9855L10.7225 11.0136ZM6.36771 10.3387C4.17461 10.3387 2.39674 8.56082 2.39674 6.36771C2.39674 4.17461 4.17461 2.39674 6.36771 2.39674C8.56082 2.39674 10.3387 4.17461 10.3387 6.36771C10.3387 8.56082 8.56082 10.3387 6.36771 10.3387Z" fill="white"/>
</svg>
