<svg width="86" height="96" viewBox="0 0 86 96" fill="none" xmlns="http://www.w3.org/2000/svg">
<path d="M22.0403 24.9657H64.2038C64.9134 24.9657 65.4892 24.3898 65.4892 23.6803C65.4892 13.8647 65.4751 3.74961 48.2001 2.14667C48.1037 0.960219 45.8645 0 43.1214 0C40.3783 0 38.1391 0.960219 38.0439 2.14667C20.769 3.74961 20.7549 13.8647 20.7549 23.6803C20.7549 24.3898 21.3295 24.9657 22.0403 24.9657ZM43.1214 4.4913C62.1188 4.4913 62.8849 12.29 62.9158 22.3948H51.5178C51.4253 20.4332 49.1629 18.8457 46.3941 18.8457H39.8487C37.0799 18.8457 34.8175 20.4332 34.725 22.3948H23.327C23.3566 12.2913 24.124 4.4913 43.1214 4.4913ZM37.864 13.0214L38.3666 12.1512L37.864 11.281H36.1171C35.4075 11.281 34.8316 10.7051 34.8316 9.99553C34.8316 9.28597 35.4075 8.7101 36.1171 8.7101H38.607C39.0659 8.7101 39.4913 8.95433 39.7201 9.35281L40.5942 10.8658H45.6524L46.5265 9.35281C46.7566 8.95433 47.1808 8.7101 47.6397 8.7101H50.1296C50.8391 8.7101 51.415 9.28597 51.415 9.99553C51.415 10.7051 50.8391 11.281 50.1296 11.281H48.3827L47.8801 12.1512L48.3827 13.0214H50.1296C50.8391 13.0214 51.415 13.5973 51.415 14.3069C51.415 15.0164 50.8391 15.5923 50.1296 15.5923H47.6397C47.1808 15.5923 46.7553 15.3481 46.5265 14.9496L45.6524 13.4366H40.5942L39.7201 14.9496C39.4913 15.3481 39.0671 15.5923 38.607 15.5923H36.1171C35.4075 15.5923 34.8316 15.0164 34.8316 14.3069C34.8316 13.5973 35.4075 13.0214 36.1171 13.0214H37.864ZM17.0695 31.3093C17.0978 30.3324 17.1852 27.3604 19.2419 26.5828C21.2793 25.8154 23.417 27.9466 23.8245 28.3824C24.3091 28.9004 24.2821 29.7141 23.7641 30.2C23.2448 30.6833 22.4311 30.6563 21.9465 30.1396C21.3102 29.466 20.4052 28.9338 20.1456 28.9904C20.152 28.9904 19.6995 29.3503 19.6391 31.3851C19.472 37.0847 23.9273 38.6363 23.9723 38.6504C24.3798 38.7854 24.6921 39.1157 24.8053 39.5309L24.8734 39.7777C24.894 39.8536 24.9081 39.932 24.9145 40.0104C26.1395 54.6168 37.711 59.342 43.1214 59.342C48.5318 59.342 60.1033 54.6155 61.3283 40.0091C61.3347 39.9307 61.3488 39.8523 61.3694 39.7764L61.4375 39.5296C61.5507 39.1157 61.8643 38.7854 62.2705 38.6491C62.4466 38.5874 66.7695 37.0205 66.6037 31.3839C66.5433 29.3413 66.0882 28.9865 66.0831 28.9827C65.808 28.9132 64.8645 29.5277 64.2963 30.137C63.8117 30.6563 62.9981 30.6833 62.4787 30.1974C61.9594 29.7115 61.9337 28.8991 62.4183 28.3798C62.8258 27.9453 64.9609 25.8102 67.0009 26.5802C69.0576 27.3566 69.1437 30.3298 69.1733 31.3067C69.3327 36.7313 66.0895 39.689 63.8387 40.7765C62.3451 55.3469 50.8918 61.909 43.1214 61.909C35.351 61.909 23.8965 55.3469 22.4041 40.7765C20.1533 39.6916 16.9101 36.7338 17.0695 31.3093ZM25.2796 61.8358C21.1392 63.3526 3.0943 71.2631 3.0943 93.8778C3.0943 94.5873 2.51843 95.1632 1.80887 95.1632C1.09931 95.1632 0.523438 94.5873 0.523438 93.8778C0.523438 68.2115 22.8141 59.9552 25.1343 59.1672L25.0366 57.3856C24.9981 56.6773 25.5418 56.0706 26.2501 56.032C26.9468 55.9986 27.5638 56.5359 27.6037 57.2455L28.0921 66.1728L33.8586 63.467C34.5 63.1662 35.2661 63.44 35.5682 64.084C35.8703 64.7267 35.5939 65.4915 34.9512 65.7936L27.4597 69.3093C27.2862 69.3903 27.0998 69.4314 26.9134 69.4314C26.6846 69.4314 26.457 69.371 26.2539 69.2489C25.8876 69.0303 25.6537 68.6421 25.6305 68.2154L25.2796 61.8358ZM19.634 89.5767V93.8778C19.634 94.5873 19.0581 95.1632 18.3485 95.1632C17.639 95.1632 17.0631 94.5873 17.0631 93.8778V89.5767C17.0631 88.8671 17.639 88.2913 18.3485 88.2913C19.0581 88.2913 19.634 88.8671 19.634 89.5767ZM85.4777 93.8778C85.4777 94.5873 84.9018 95.1632 84.1923 95.1632C83.4827 95.1632 82.9068 94.5873 82.9068 93.8778C82.9068 72.0023 65.3337 63.6611 60.719 61.8499L60.3706 68.2154C60.3475 68.6421 60.1135 69.0291 59.7472 69.2489C59.5441 69.3697 59.3166 69.4314 59.0878 69.4314C58.9014 69.4314 58.715 69.3915 58.5415 69.3093L51.05 65.7936C50.4072 65.4915 50.1309 64.7267 50.4329 64.084C50.735 63.44 51.5011 63.1649 52.1426 63.467L57.9077 66.1728L58.3962 57.2455C58.4348 56.5372 59.0415 55.9999 59.7498 56.032C60.458 56.0706 61.0018 56.6773 60.9632 57.3856L60.8655 59.1633C64.3555 60.4166 85.4777 69.0393 85.4777 93.8778ZM68.9355 89.5767V93.8778C68.9355 94.5873 68.3596 95.1632 67.65 95.1632C66.9405 95.1632 66.3646 94.5873 66.3646 93.8778V89.5767C66.3646 88.8671 66.9405 88.2913 67.65 88.2913C68.3596 88.2913 68.9355 88.8671 68.9355 89.5767ZM45.5354 31.29C45.1601 31.29 44.804 31.4533 44.5598 31.7386C44.4531 31.8633 44.385 32.0099 44.3323 32.1615H41.9092C41.8565 32.0099 41.7884 31.8633 41.6817 31.7386C41.4375 31.4545 41.0814 31.29 40.7061 31.29H28.2541C27.9096 31.29 27.5792 31.4288 27.3376 31.6744C27.0959 31.9199 26.9635 32.2528 26.9687 32.5973C26.9867 33.6256 27.1846 38.8445 29.3107 40.5721C30.6476 41.657 32.7402 42.3319 34.7738 42.3319C36.6955 42.3319 38.3023 41.7303 39.2998 40.639C40.4426 39.387 41.1971 36.6618 41.6123 34.7324H44.6305C45.0457 36.6618 45.8002 39.387 46.943 40.639C47.9392 41.7316 49.5473 42.3319 51.469 42.3319C53.5038 42.3319 55.5965 41.657 56.9321 40.5721C59.0582 38.8445 59.2574 33.6269 59.2754 32.5973C59.2806 32.2528 59.1482 31.9199 58.9065 31.6744C58.6649 31.4288 58.3345 31.29 57.99 31.29H45.5354ZM37.4012 38.9049C36.9038 39.4487 35.9474 39.761 34.7738 39.761C33.347 39.761 31.8032 39.2841 30.9304 38.5759C30.2902 38.0552 29.7902 35.933 29.6089 33.8609H39.1661C38.7509 35.8546 38.0786 38.1632 37.4012 38.9049ZM55.3112 38.5759C54.4384 39.2841 52.8946 39.761 51.4677 39.761C50.2941 39.761 49.3378 39.4487 48.8416 38.9049C48.1654 38.1645 47.4919 35.8546 47.0767 33.8609H56.6339C56.4526 35.9343 55.9513 38.0565 55.3112 38.5759ZM44.921 66.3733V94.7146C44.921 95.4241 44.3451 96 43.6356 96C42.926 96 42.3501 95.4241 42.3501 94.7146V66.3733C42.3501 65.6638 42.926 65.0879 43.6356 65.0879C44.3451 65.0879 44.921 65.6638 44.921 66.3733ZM37.4449 85.0121C37.4449 85.7217 36.8691 86.2976 36.1595 86.2976H24.1625C23.453 86.2976 22.8771 85.7217 22.8771 85.0121C22.8771 84.3026 23.453 83.7267 24.1625 83.7267H36.1595C36.8691 83.7267 37.4449 84.3026 37.4449 85.0121Z" fill="#4F4F4F"/>
</svg>

