<svg width="109" height="93" viewBox="0 0 109 93" fill="none" xmlns="http://www.w3.org/2000/svg">
<path d="M21.269 24.3388C28.3731 25.9274 35.3088 26.7188 42.2085 26.7188C47.4952 26.7188 52.7589 26.2526 58.0556 25.3245C58.8384 25.1878 59.3608 24.441 59.2255 23.6582C59.0859 22.8754 58.3405 22.3531 57.5592 22.4898C54.2755 23.0654 51.0048 23.4366 47.7312 23.6438C48.5341 22.5229 49.0205 21.1602 49.0205 19.6795C49.0205 15.9095 45.9527 12.8431 42.1826 12.8431C38.4126 12.8431 35.3462 15.9095 35.3462 19.6795C35.3462 21.1645 35.8355 22.5315 36.6427 23.6539C32.2007 23.3719 27.7284 22.7646 23.1871 21.8106C24.4347 14.436 29.6897 8.4385 36.3693 6.17936V10.3393C36.3693 11.1336 37.0125 11.7783 37.8083 11.7783C38.604 11.7783 39.2472 11.1336 39.2472 10.3393V5.45557C40.2084 5.29729 41.1855 5.198 42.1798 5.198H42.1826C42.1855 5.198 42.187 5.198 42.1898 5.198C43.2345 5.198 44.1943 5.27426 45.1195 5.3865V10.3379C45.1195 11.1322 45.7627 11.7769 46.5585 11.7769C47.3542 11.7769 47.9974 11.1322 47.9974 10.3379V5.97791C51.2206 6.96358 53.9115 8.9594 56.916 12.4287C57.4369 13.0302 58.3477 13.0935 58.9449 12.574C59.5464 12.0546 59.6111 11.1452 59.0917 10.5437C55.4555 6.34628 52.1171 3.99936 47.9974 2.9662V1.57762C47.9974 0.783319 47.3542 0.138672 46.5585 0.138672C45.7627 0.138672 45.1195 0.783319 45.1195 1.57762V2.46976C44.1885 2.37191 43.2172 2.32011 42.1898 2.32011C42.187 2.32011 42.1812 2.31867 42.1783 2.32011C41.1855 2.32011 40.2113 2.41508 39.2472 2.55322V1.57762C39.2472 0.783319 38.604 0.138672 37.8083 0.138672C37.0125 0.138672 36.3693 0.783319 36.3693 1.57762V3.15758C27.8306 5.62968 21.1323 13.364 20.1524 22.7848C20.0761 23.5114 20.5568 24.1791 21.269 24.3388ZM42.1798 15.721C44.3641 15.721 46.1397 17.4967 46.1397 19.6795C46.1397 21.8624 44.3641 23.6381 42.1798 23.6381C39.9969 23.6381 38.2212 21.8624 38.2212 19.6795C38.2212 17.4967 39.9983 15.721 42.1798 15.721ZM23.8807 38.9211C25.2722 51.6572 35.3405 57.3957 42.1812 57.3957C47.0247 57.3957 55.5159 54.0689 59.0586 44.9071C59.3449 44.166 58.9766 43.3329 58.2355 43.0465C57.4973 42.7602 56.6613 43.1286 56.3749 43.8696C55.2943 46.664 53.6856 48.8109 51.8854 50.4298C51.989 49.5103 52.0926 48.6081 52.1962 47.7073C52.3632 46.2482 52.533 44.7704 52.7042 43.2322L57.3419 42.281C58.1204 42.1213 58.6226 41.3601 58.4614 40.5816C58.3031 39.8032 57.5506 39.2995 56.762 39.4621L51.3012 40.5831C45.2562 39.9341 39.1306 39.9341 33.0856 40.5816L26.8234 39.0736C26.7773 38.7211 26.7154 38.3858 26.6838 38.0189C26.6766 37.9297 26.6608 37.8433 26.6377 37.7584L26.5787 37.544C26.4521 37.0807 26.1024 36.7109 25.6477 36.5598C25.6103 36.5483 21.964 35.2777 22.1036 30.5623C22.1338 29.5219 22.2864 29.0327 22.377 28.8298C22.6806 28.9463 23.2001 29.3219 23.5483 29.6903C24.0937 30.2716 25.0045 30.3004 25.5815 29.7579C26.1614 29.2154 26.1931 28.3046 25.6506 27.7232C25.2707 27.3189 23.285 25.3346 21.3194 26.0785C19.3322 26.8296 19.2502 29.5737 19.2243 30.4759C19.0862 35.2216 21.8547 37.8735 23.8807 38.9211ZM49.7975 43.3171C49.6407 44.7114 49.4882 46.0453 49.3356 47.3778C49.1385 49.0944 48.9399 50.8183 48.7356 52.6644C46.3628 53.9595 43.9712 54.5178 42.1798 54.5178C40.4775 54.5178 38.0601 53.9624 35.6369 52.6385C35.4297 50.7607 35.2282 49.0369 35.0268 47.3202C34.8742 46.0093 34.7203 44.6999 34.5649 43.3171C39.6228 42.848 44.7368 42.848 49.7975 43.3171ZM31.6553 43.1947C31.828 44.7373 31.9992 46.2065 32.169 47.6526C32.2755 48.5591 32.3806 49.4685 32.487 50.3981C30.3401 48.4786 28.4594 45.8079 27.432 42.1789L31.6553 43.1947ZM26.4104 55.1279C26.6521 55.8848 26.2334 56.6935 25.4794 56.9367C24.5541 57.2331 2.87789 64.5012 2.87789 91.4224C2.87789 92.2167 2.23468 92.8613 1.43894 92.8613C0.643208 92.8613 0 92.2167 0 91.4224C0 62.35 24.3584 54.2717 24.6045 54.194C25.3556 53.9537 26.1686 54.371 26.4104 55.1279ZM20.2359 85.8666V91.4224C20.2359 92.2167 19.5927 92.8613 18.7969 92.8613C18.0012 92.8613 17.358 92.2167 17.358 91.4224V85.8666C17.358 85.0723 18.0012 84.4277 18.7969 84.4277C19.5927 84.4277 20.2359 85.0709 20.2359 85.8666ZM62.7437 82.534V91.4224C62.7437 92.2167 62.1005 92.8613 61.3048 92.8613C60.509 92.8613 59.8658 92.2167 59.8658 91.4224V82.534C59.8658 81.7397 60.509 81.0951 61.3048 81.0951C62.1005 81.0951 62.7437 81.7397 62.7437 82.534ZM105.722 27.6585C105.834 28.4974 108.357 48.362 96.6323 61.7744C89.8736 69.5058 79.7938 73.4255 66.6749 73.4255C65.8792 73.4255 65.236 72.7809 65.236 71.9866C65.236 71.1923 65.8792 70.5476 66.6749 70.5476C78.9275 70.5476 88.2778 66.9589 94.4652 59.8807C105.341 47.4411 102.896 28.2355 102.87 28.0441C102.765 27.257 103.318 26.5318 104.103 26.4253C104.912 26.3174 105.616 26.8714 105.722 27.6585ZM93.0752 39.6852C92.3241 39.4305 91.9197 38.6132 92.1744 37.8606C93.1687 34.9237 93.6738 31.5566 93.6738 27.8499C93.6738 27.0556 94.317 26.4109 95.1127 26.4109C95.9085 26.4109 96.5517 27.0556 96.5517 27.8499C96.5517 31.8703 95.9963 35.5496 94.9012 38.783C94.6969 39.383 94.1386 39.7614 93.5385 39.7614C93.3831 39.7629 93.2277 39.7384 93.0752 39.6852ZM80.8615 53.6458C74.8682 56.2186 68.4808 56.7654 64.1265 56.7654C61.0573 56.7654 58.9996 56.4935 58.801 56.4661C58.0139 56.3582 57.4642 55.6315 57.5721 54.8459C57.6786 54.0588 58.3995 53.5033 59.1924 53.6156C59.3003 53.6314 70.2636 55.0632 79.7261 51.001C80.4571 50.6873 81.3018 51.024 81.6155 51.755C81.9306 52.486 81.5924 53.3321 80.8615 53.6458ZM99.4425 4.65264C96.8294 4.65264 89.8836 4.65264 89.8836 11.4358V14.7569C89.8836 20.0263 94.1702 24.3144 99.4425 24.3144C104.712 24.3144 109 20.0278 109 14.7569V11.4358C109 4.65264 102.057 4.65264 99.4425 4.65264ZM106.122 14.7569C106.122 18.4406 103.126 21.4365 99.4425 21.4365C95.7588 21.4365 92.7615 18.4406 92.7615 14.7569V11.4358C92.7615 9.02559 93.8781 7.53053 99.4425 7.53053C105.004 7.53053 106.122 9.02559 106.122 11.4358V14.7569ZM55.7965 59.6606C56.3505 60.2304 56.3361 61.1427 55.7663 61.6953C51.8264 65.5128 46.7686 67.4222 41.7121 67.4222C36.6542 67.4222 31.6006 65.5128 27.6594 61.6953C27.0896 61.1413 27.0752 60.2304 27.6292 59.6606C28.1832 59.0879 29.094 59.0764 29.6638 59.6289C36.4182 66.179 47.0074 66.1776 53.7618 59.6289C54.3331 59.0764 55.2468 59.0879 55.7965 59.6606ZM60.7911 24.913V23.7935C60.7911 22.9805 61.4573 22.3142 62.2703 22.3142H86.8259C87.6389 22.3142 88.3051 22.9805 88.3051 23.7935V24.913C88.3051 25.726 87.6389 26.3922 86.8259 26.3922H62.2703C61.4559 26.3922 60.7911 25.726 60.7911 24.913ZM60.7911 30.4184V29.2989C60.7911 28.4859 61.4573 27.8196 62.2703 27.8196H86.8259C87.6389 27.8196 88.3051 28.4859 88.3051 29.2989V30.4184C88.3051 31.2314 87.6389 31.8976 86.8259 31.8976H62.2703C61.4559 31.8976 60.7911 31.2314 60.7911 30.4184ZM60.7911 35.9238V34.8043C60.7911 33.9913 61.4573 33.325 62.2703 33.325H86.8259C87.6389 33.325 88.3051 33.9913 88.3051 34.8043V35.9238C88.3051 36.7368 87.6389 37.403 86.8259 37.403H62.2703C61.4559 37.403 60.7911 36.7368 60.7911 35.9238ZM60.7911 41.4292V40.3097C60.7911 39.4967 61.4573 38.8304 62.2703 38.8304H86.8259C87.6389 38.8304 88.3051 39.4967 88.3051 40.3097V41.4292C88.3051 42.2422 87.6389 42.9084 86.8259 42.9084H62.2703C61.4559 42.9084 60.7911 42.2422 60.7911 41.4292ZM60.7911 46.9346V45.8151C60.7911 45.0021 61.4573 44.3358 62.2703 44.3358H86.8259C87.6389 44.3358 88.3051 45.0021 88.3051 45.8151V46.9346C88.3051 47.7476 87.6389 48.4138 86.8259 48.4138H62.2703C61.4559 48.4138 60.7911 47.7476 60.7911 46.9346ZM60.7911 2.83957V1.72007C60.7911 0.907068 61.4573 0.240837 62.2703 0.240837H86.8259C87.6389 0.240837 88.3051 0.907068 88.3051 1.72007V2.83957C88.3051 3.65257 87.6389 4.3188 86.8259 4.3188H62.2703C61.4559 4.3188 60.7911 3.65401 60.7911 2.83957ZM60.7911 8.34497V7.22547C60.7911 6.41247 61.4573 5.74624 62.2703 5.74624H86.8259C87.6389 5.74624 88.3051 6.41247 88.3051 7.22547V8.34497C88.3051 9.15797 87.6389 9.8242 86.8259 9.8242H62.2703C61.4559 9.8242 60.7911 9.15941 60.7911 8.34497ZM60.7911 13.8504V12.7309C60.7911 11.9179 61.4573 11.2516 62.2703 11.2516H86.8259C87.6389 11.2516 88.3051 11.9179 88.3051 12.7309V13.8504C88.3051 14.6634 87.6389 15.3296 86.8259 15.3296H62.2703C61.4559 15.3296 60.7911 14.6648 60.7911 13.8504ZM60.7911 19.3558V18.2363C60.7911 17.4233 61.4573 16.757 62.2703 16.757H86.8259C87.6389 16.757 88.3051 17.4233 88.3051 18.2363V19.3558C88.3051 20.1688 87.6389 20.835 86.8259 20.835H62.2703C61.4559 20.835 60.7911 20.1702 60.7911 19.3558Z" fill="#4F4F4F"/>
</svg>
