<svg width="102" height="103" viewBox="0 0 102 103" fill="none" xmlns="http://www.w3.org/2000/svg">
<ellipse cx="51" cy="51.5" rx="51" ry="51.5" fill="#F87956"/>
<path d="M72.0462 64.6899C70.3113 64.6899 68.6632 65.3694 67.4199 66.5983C66.1765 67.8416 65.4826 69.4608 65.4826 71.1957C65.4826 72.9306 66.1621 74.5498 67.4199 75.7931C68.6777 77.022 70.3113 77.7015 72.0462 77.7015C75.6027 77.7015 78.4942 74.7811 78.4942 71.1957C78.4942 67.6103 75.6027 64.6899 72.0462 64.6899ZM72.0462 74.8101C70.0511 74.8101 68.3741 73.1619 68.3741 71.1957C68.3741 69.2295 70.0511 67.5814 72.0462 67.5814C74.0124 67.5814 75.6027 69.2006 75.6027 71.1957C75.6027 73.1908 74.0124 74.8101 72.0462 74.8101ZM73.7233 43.0184C73.463 42.7726 73.1161 42.6425 72.7546 42.6425H65.338C64.5429 42.6425 63.8923 43.293 63.8923 44.0882V55.9432C63.8923 56.7384 64.5429 57.389 65.338 57.389H77.1063C77.9014 57.389 78.552 56.7384 78.552 55.9432V48.0061C78.552 47.6013 78.3785 47.211 78.0749 46.9363L73.7233 43.0184ZM75.6606 54.4975H66.7838V45.5195H72.1908L75.6606 48.6423V54.4975ZM36.7414 64.6899C35.0065 64.6899 33.3584 65.3694 32.115 66.5983C30.8717 67.8416 30.1778 69.4608 30.1778 71.1957C30.1778 72.9306 30.8573 74.5498 32.115 75.7931C33.3728 77.022 35.0065 77.7015 36.7414 77.7015C40.2979 77.7015 43.1894 74.7811 43.1894 71.1957C43.1894 67.6103 40.2979 64.6899 36.7414 64.6899ZM36.7414 74.8101C34.7463 74.8101 33.0692 73.1619 33.0692 71.1957C33.0692 69.2295 34.7463 67.5814 36.7414 67.5814C38.7076 67.5814 40.2979 69.2006 40.2979 71.1957C40.2979 73.1908 38.7076 74.8101 36.7414 74.8101ZM27.0984 66.4682H24.1924V62.6225C24.1924 61.8274 23.5418 61.1768 22.7467 61.1768C21.9515 61.1768 21.301 61.8274 21.301 62.6225V67.9139C21.301 68.709 21.9515 69.3596 22.7467 69.3596H27.0984C27.8935 69.3596 28.5441 68.709 28.5441 67.9139C28.5441 67.1187 27.8935 66.4682 27.0984 66.4682ZM34.4282 58.5889C34.4282 57.7938 33.7776 57.1432 32.9825 57.1432H15.4457C14.6506 57.1432 14 57.7938 14 58.5889C14 59.3841 14.6506 60.0346 15.4457 60.0346H32.9825C33.7776 60.0346 34.4282 59.3985 34.4282 58.5889ZM18.3806 53.3698L35.9173 53.471C36.7125 53.471 37.3631 52.8349 37.3775 52.0397C37.392 51.2301 36.7414 50.5795 35.9462 50.5795L18.4095 50.4783C18.395 50.4783 18.395 50.4783 18.395 50.4783C17.5999 50.4783 16.9493 51.1145 16.9493 51.9096C16.9348 52.7192 17.5854 53.3698 18.3806 53.3698ZM21.3299 46.8062H38.8666C39.6618 46.8062 40.3124 46.1556 40.3124 45.3604C40.3124 44.5653 39.6618 43.9147 38.8666 43.9147H21.3299C20.5347 43.9147 19.8841 44.5653 19.8841 45.3604C19.8841 46.1556 20.5347 46.8062 21.3299 46.8062ZM84.4651 44.8544L74.1136 36.2812C73.8534 36.0644 73.5353 35.9487 73.1884 35.9487H61.0153V30.7441C61.0153 29.9489 60.3647 29.2983 59.5695 29.2983H22.7467C21.9515 29.2983 21.301 29.9489 21.301 30.7441V41.3268C21.301 42.122 21.9515 42.7726 22.7467 42.7726C23.5418 42.7726 24.1924 42.122 24.1924 41.3268V32.1898H58.1383V66.4682H46.2832C45.4881 66.4682 44.8375 67.1187 44.8375 67.9139C44.8375 68.709 45.4881 69.3596 46.2832 69.3596H63.9357C64.7308 69.3596 65.3814 68.709 65.3814 67.9139C65.3814 67.1187 64.7308 66.4682 63.9357 66.4682H61.0297V38.8402H72.6823L82.1085 46.6472L82.0073 66.4392H80.5038C79.7086 66.4392 79.058 67.0898 79.058 67.885C79.058 68.6801 79.7086 69.3307 80.5038 69.3307H83.4386C84.2338 69.3307 84.8843 68.6946 84.8843 67.8994L85 45.9821C84.9855 45.5484 84.7976 45.1291 84.4651 44.8544Z" fill="white"/>
</svg>
