<svg width="659" height="76" viewBox="0 0 659 76" fill="none" xmlns="http://www.w3.org/2000/svg">
<path d="M141.304 46.608V62.12H132.904V54H105.24V62.12H96.84L96.896 46.608H98.464C100.816 46.5333 102.477 44.816 103.448 41.456C104.419 38.096 105.016 33.2987 105.24 27.064L105.688 14.8H135.816V46.608H141.304ZM113.248 27.904C113.061 32.5707 112.669 36.4907 112.072 39.664C111.475 42.8 110.56 45.1147 109.328 46.608H126.856V22.192H113.416L113.248 27.904ZM160.468 54.448C157.295 54.448 154.439 53.7947 151.9 52.488C149.399 51.144 147.439 49.296 146.02 46.944C144.602 44.592 143.892 41.9227 143.892 38.936C143.892 35.9493 144.602 33.28 146.02 30.928C147.439 28.576 149.399 26.7467 151.9 25.44C154.439 24.096 157.295 23.424 160.468 23.424C163.642 23.424 166.479 24.096 168.98 25.44C171.482 26.7467 173.442 28.576 174.86 30.928C176.279 33.28 176.988 35.9493 176.988 38.936C176.988 41.9227 176.279 44.592 174.86 46.944C173.442 49.296 171.482 51.144 168.98 52.488C166.479 53.7947 163.642 54.448 160.468 54.448ZM160.468 47.28C162.708 47.28 164.538 46.5333 165.956 45.04C167.412 43.5093 168.14 41.4747 168.14 38.936C168.14 36.3973 167.412 34.3813 165.956 32.888C164.538 31.3573 162.708 30.592 160.468 30.592C158.228 30.592 156.38 31.3573 154.924 32.888C153.468 34.3813 152.74 36.3973 152.74 38.936C152.74 41.4747 153.468 43.5093 154.924 45.04C156.38 46.5333 158.228 47.28 160.468 47.28ZM200.749 23.424C203.549 23.424 206.088 24.0773 208.365 25.384C210.68 26.6533 212.49 28.464 213.797 30.816C215.104 33.1307 215.757 35.8373 215.757 38.936C215.757 42.0347 215.104 44.76 213.797 47.112C212.49 49.4267 210.68 51.2373 208.365 52.544C206.088 53.8133 203.549 54.448 200.749 54.448C196.904 54.448 193.88 53.2347 191.677 50.808V64.864H182.941V23.872H191.285V27.344C193.45 24.7307 196.605 23.424 200.749 23.424ZM199.237 47.28C201.477 47.28 203.306 46.5333 204.725 45.04C206.181 43.5093 206.909 41.4747 206.909 38.936C206.909 36.3973 206.181 34.3813 204.725 32.888C203.306 31.3573 201.477 30.592 199.237 30.592C196.997 30.592 195.149 31.3573 193.693 32.888C192.274 34.3813 191.565 36.3973 191.565 38.936C191.565 41.4747 192.274 43.5093 193.693 45.04C195.149 46.5333 196.997 47.28 199.237 47.28ZM241.088 54.672C237.093 54.672 233.472 53.8133 230.224 52.096C227.013 50.3413 224.474 47.9333 222.608 44.872C220.778 41.7733 219.864 38.2827 219.864 34.4C219.864 30.5173 220.778 27.0453 222.608 23.984C224.474 20.8853 227.013 18.4773 230.224 16.76C233.472 15.0053 237.112 14.128 241.144 14.128C244.541 14.128 247.602 14.7253 250.328 15.92C253.09 17.1147 255.405 18.832 257.272 21.072L251.448 26.448C248.797 23.3867 245.512 21.856 241.592 21.856C239.165 21.856 237 22.3973 235.096 23.48C233.192 24.5253 231.698 26 230.616 27.904C229.57 29.808 229.048 31.9733 229.048 34.4C229.048 36.8267 229.57 38.992 230.616 40.896C231.698 42.8 233.192 44.2933 235.096 45.376C237 46.4213 239.165 46.944 241.592 46.944C245.512 46.944 248.797 45.3947 251.448 42.296L257.272 47.672C255.405 49.9493 253.09 51.6853 250.328 52.88C247.565 54.0747 244.485 54.672 241.088 54.672ZM287.004 31.04H276.812V54H268.132V31.04H257.94V23.872H287.004V31.04ZM309.413 23.424C312.213 23.424 314.752 24.0773 317.029 25.384C319.344 26.6533 321.154 28.464 322.461 30.816C323.768 33.1307 324.421 35.8373 324.421 38.936C324.421 42.0347 323.768 44.76 322.461 47.112C321.154 49.4267 319.344 51.2373 317.029 52.544C314.752 53.8133 312.213 54.448 309.413 54.448C305.568 54.448 302.544 53.2347 300.341 50.808V64.864H291.605V23.872H299.949V27.344C302.114 24.7307 305.269 23.424 309.413 23.424ZM307.901 47.28C310.141 47.28 311.97 46.5333 313.389 45.04C314.845 43.5093 315.573 41.4747 315.573 38.936C315.573 36.3973 314.845 34.3813 313.389 32.888C311.97 31.3573 310.141 30.592 307.901 30.592C305.661 30.592 303.813 31.3573 302.357 32.888C300.938 34.3813 300.229 36.3973 300.229 38.936C300.229 41.4747 300.938 43.5093 302.357 45.04C303.813 46.5333 305.661 47.28 307.901 47.28ZM344.656 54.448C341.482 54.448 338.626 53.7947 336.088 52.488C333.586 51.144 331.626 49.296 330.208 46.944C328.789 44.592 328.08 41.9227 328.08 38.936C328.08 35.9493 328.789 33.28 330.208 30.928C331.626 28.576 333.586 26.7467 336.088 25.44C338.626 24.096 341.482 23.424 344.656 23.424C347.829 23.424 350.666 24.096 353.168 25.44C355.669 26.7467 357.629 28.576 359.048 30.928C360.466 33.28 361.176 35.9493 361.176 38.936C361.176 41.9227 360.466 44.592 359.048 46.944C357.629 49.296 355.669 51.144 353.168 52.488C350.666 53.7947 347.829 54.448 344.656 54.448ZM344.656 47.28C346.896 47.28 348.725 46.5333 350.144 45.04C351.6 43.5093 352.328 41.4747 352.328 38.936C352.328 36.3973 351.6 34.3813 350.144 32.888C348.725 31.3573 346.896 30.592 344.656 30.592C342.416 30.592 340.568 31.3573 339.112 32.888C337.656 34.3813 336.928 36.3973 336.928 38.936C336.928 41.4747 337.656 43.5093 339.112 45.04C340.568 46.5333 342.416 47.28 344.656 47.28ZM367.184 23.872H375.864V41.792L390.536 23.872H398.544V54H389.864V36.08L375.248 54H367.184V23.872ZM382.304 20.624C375.734 20.624 372.43 17.7307 372.392 11.944H378.104C378.142 13.2507 378.496 14.2773 379.168 15.024C379.878 15.7333 380.904 16.088 382.248 16.088C383.592 16.088 384.619 15.7333 385.328 15.024C386.075 14.2773 386.448 13.2507 386.448 11.944H392.272C392.235 17.7307 388.912 20.624 382.304 20.624ZM443.286 54L443.23 30.536L431.694 49.856H427.662L416.126 30.984V54H407.614V14.8H415.118L429.79 39.16L444.238 14.8H451.742L451.798 54H443.286ZM474.976 54.448C471.803 54.448 468.947 53.7947 466.408 52.488C463.907 51.144 461.947 49.296 460.528 46.944C459.109 44.592 458.4 41.9227 458.4 38.936C458.4 35.9493 459.109 33.28 460.528 30.928C461.947 28.576 463.907 26.7467 466.408 25.44C468.947 24.096 471.803 23.424 474.976 23.424C478.149 23.424 480.987 24.096 483.488 25.44C485.989 26.7467 487.949 28.576 489.368 30.928C490.787 33.28 491.496 35.9493 491.496 38.936C491.496 41.9227 490.787 44.592 489.368 46.944C487.949 49.296 485.989 51.144 483.488 52.488C480.987 53.7947 478.149 54.448 474.976 54.448ZM474.976 47.28C477.216 47.28 479.045 46.5333 480.464 45.04C481.92 43.5093 482.648 41.4747 482.648 38.936C482.648 36.3973 481.92 34.3813 480.464 32.888C479.045 31.3573 477.216 30.592 474.976 30.592C472.736 30.592 470.888 31.3573 469.432 32.888C467.976 34.3813 467.248 36.3973 467.248 38.936C467.248 41.4747 467.976 43.5093 469.432 45.04C470.888 46.5333 472.736 47.28 474.976 47.28ZM497.505 23.872H506.185V35.632H519.289V23.872H528.025V54H519.289V42.744H506.185V54H497.505V23.872ZM561.7 31.04H551.508V54H542.828V31.04H532.636V23.872H561.7V31.04ZM578.06 23.424C582.727 23.424 586.311 24.544 588.812 26.784C591.314 28.9867 592.564 32.328 592.564 36.808V54H584.388V50.248C582.746 53.048 579.684 54.448 575.204 54.448C572.89 54.448 570.874 54.056 569.156 53.272C567.476 52.488 566.188 51.4053 565.292 50.024C564.396 48.6427 563.948 47.0747 563.948 45.32C563.948 42.52 564.994 40.3173 567.084 38.712C569.212 37.1067 572.479 36.304 576.884 36.304H583.828C583.828 34.4 583.25 32.944 582.092 31.936C580.935 30.8907 579.199 30.368 576.884 30.368C575.279 30.368 573.692 30.6293 572.124 31.152C570.594 31.6373 569.287 32.3093 568.204 33.168L565.068 27.064C566.711 25.9067 568.671 25.0107 570.948 24.376C573.263 23.7413 575.634 23.424 578.06 23.424ZM577.388 48.568C578.882 48.568 580.207 48.232 581.364 47.56C582.522 46.8507 583.343 45.824 583.828 44.48V41.4H577.836C574.252 41.4 572.46 42.576 572.46 44.928C572.46 46.048 572.89 46.944 573.748 47.616C574.644 48.2507 575.858 48.568 577.388 48.568ZM630.001 42.576H625.801V54H617.177V42.576H612.977L606.593 54H596.289L605.753 38.432L596.961 23.872H606.201L612.865 35.576H617.177V23.872H625.801V35.576H630.057L636.777 23.872H646.017L637.225 38.432L646.745 54H636.385L630.001 42.576Z" fill="white"/>
<path fill-rule="evenodd" clip-rule="evenodd" d="M7.125 0C3.18997 0 0 3.18997 0 7.125V40.875C0 44.81 3.18997 48 7.125 48H12.0001V19.1255C12.0001 15.1905 15.19 12.0005 19.1251 12.0005H48V7.125C48 3.18997 44.81 0 40.875 0H7.125ZM24 64.8745V60.0005H52.8751C56.8101 60.0005 60.0001 56.8105 60.0001 52.8755V23.9995H64.875C68.81 23.9995 72 27.1895 72 31.1245V64.8745C72 68.8096 68.81 71.9995 64.875 71.9995H31.125C27.19 71.9995 24 68.8096 24 64.8745ZM48.0001 40.875V23.9995H31.125C27.19 23.9995 24 27.1895 24 31.1245V48H40.8751C44.8101 48 48.0001 44.81 48.0001 40.875Z" fill="#FFB71B"/>
</svg>
