<svg width="277" height="32" viewBox="0 0 277 32" fill="none" xmlns="http://www.w3.org/2000/svg">
<path d="M59.4159 19.8321V26.4801H55.8159V23.0001H43.9599V26.4801H40.3599L40.3839 19.8321H41.0559C42.0639 19.8001 42.7759 19.0641 43.1919 17.6241C43.6079 16.1841 43.8639 14.1281 43.9599 11.4561L44.1519 6.20007H57.0639V19.8321H59.4159ZM47.3919 11.8161C47.3119 13.8161 47.1439 15.4961 46.8879 16.8561C46.6319 18.2001 46.2399 19.1921 45.7119 19.8321H53.2239V9.36807H47.4639L47.3919 11.8161Z" fill="white"/>
<path d="M67.6291 23.1921C66.2691 23.1921 65.0451 22.9121 63.9571 22.3521C62.8851 21.7761 62.0451 20.9841 61.4371 19.9761C60.8291 18.9681 60.5251 17.8241 60.5251 16.5441C60.5251 15.2641 60.8291 14.1201 61.4371 13.1121C62.0451 12.1041 62.8851 11.3201 63.9571 10.7601C65.0451 10.1841 66.2691 9.89608 67.6291 9.89608C68.9891 9.89608 70.2051 10.1841 71.2771 10.7601C72.3491 11.3201 73.1891 12.1041 73.7971 13.1121C74.4051 14.1201 74.7091 15.2641 74.7091 16.5441C74.7091 17.8241 74.4051 18.9681 73.7971 19.9761C73.1891 20.9841 72.3491 21.7761 71.2771 22.3521C70.2051 22.9121 68.9891 23.1921 67.6291 23.1921ZM67.6291 20.1201C68.5891 20.1201 69.3731 19.8001 69.9811 19.1601C70.6051 18.5041 70.9171 17.6321 70.9171 16.5441C70.9171 15.4561 70.6051 14.5921 69.9811 13.9521C69.3731 13.2961 68.5891 12.9681 67.6291 12.9681C66.6691 12.9681 65.8771 13.2961 65.2531 13.9521C64.6291 14.5921 64.3171 15.4561 64.3171 16.5441C64.3171 17.6321 64.6291 18.5041 65.2531 19.1601C65.8771 19.8001 66.6691 20.1201 67.6291 20.1201Z" fill="white"/>
<path d="M84.8922 9.89608C86.0922 9.89608 87.1802 10.1761 88.1562 10.7361C89.1482 11.2801 89.9242 12.0561 90.4842 13.0641C91.0442 14.0561 91.3242 15.2161 91.3242 16.5441C91.3242 17.8721 91.0442 19.0401 90.4842 20.0481C89.9242 21.0401 89.1482 21.8161 88.1562 22.3761C87.1802 22.9201 86.0922 23.1921 84.8922 23.1921C83.2442 23.1921 81.9482 22.6721 81.0042 21.6321V27.6561H77.2602V10.0881H80.8362V11.5761C81.7642 10.4561 83.1162 9.89608 84.8922 9.89608ZM84.2442 20.1201C85.2042 20.1201 85.9882 19.8001 86.5962 19.1601C87.2202 18.5041 87.5322 17.6321 87.5322 16.5441C87.5322 15.4561 87.2202 14.5921 86.5962 13.9521C85.9882 13.2961 85.2042 12.9681 84.2442 12.9681C83.2842 12.9681 82.4922 13.2961 81.8682 13.9521C81.2602 14.5921 80.9562 15.4561 80.9562 16.5441C80.9562 17.6321 81.2602 18.5041 81.8682 19.1601C82.4922 19.8001 83.2842 20.1201 84.2442 20.1201Z" fill="white"/>
<path d="M102.18 23.2881C100.468 23.2881 98.9163 22.9201 97.5243 22.1841C96.1483 21.4321 95.0603 20.4001 94.2603 19.0881C93.4763 17.7601 93.0843 16.2641 93.0843 14.6001C93.0843 12.9361 93.4763 11.4481 94.2603 10.1361C95.0603 8.80807 96.1483 7.77607 97.5243 7.04007C98.9163 6.28807 100.476 5.91208 102.204 5.91208C103.66 5.91208 104.972 6.16808 106.14 6.68008C107.324 7.19208 108.316 7.92808 109.116 8.88808L106.62 11.1921C105.484 9.88007 104.076 9.22408 102.396 9.22408C101.356 9.22408 100.428 9.45608 99.6123 9.92007C98.7963 10.3681 98.1563 11.0001 97.6923 11.8161C97.2443 12.6321 97.0203 13.5601 97.0203 14.6001C97.0203 15.6401 97.2443 16.5681 97.6923 17.3841C98.1563 18.2001 98.7963 18.8401 99.6123 19.3041C100.428 19.7521 101.356 19.9761 102.396 19.9761C104.076 19.9761 105.484 19.3121 106.62 17.9841L109.116 20.2881C108.316 21.2641 107.324 22.0081 106.14 22.5201C104.956 23.0321 103.636 23.2881 102.18 23.2881Z" fill="white"/>
<path d="M121.859 13.1601H117.491V23.0001H113.771V13.1601H109.403V10.0881H121.859V13.1601Z" fill="white"/>
<path d="M131.463 9.89608C132.663 9.89608 133.751 10.1761 134.727 10.7361C135.719 11.2801 136.495 12.0561 137.055 13.0641C137.615 14.0561 137.895 15.2161 137.895 16.5441C137.895 17.8721 137.615 19.0401 137.055 20.0481C136.495 21.0401 135.719 21.8161 134.727 22.3761C133.751 22.9201 132.663 23.1921 131.463 23.1921C129.815 23.1921 128.519 22.6721 127.575 21.6321V27.6561H123.831V10.0881H127.407V11.5761C128.335 10.4561 129.687 9.89608 131.463 9.89608ZM130.815 20.1201C131.775 20.1201 132.559 19.8001 133.167 19.1601C133.791 18.5041 134.103 17.6321 134.103 16.5441C134.103 15.4561 133.791 14.5921 133.167 13.9521C132.559 13.2961 131.775 12.9681 130.815 12.9681C129.855 12.9681 129.063 13.2961 128.439 13.9521C127.831 14.5921 127.527 15.4561 127.527 16.5441C127.527 17.6321 127.831 18.5041 128.439 19.1601C129.063 19.8001 129.855 20.1201 130.815 20.1201Z" fill="white"/>
<path d="M146.567 23.1921C145.207 23.1921 143.983 22.9121 142.895 22.3521C141.823 21.7761 140.983 20.9841 140.375 19.9761C139.767 18.9681 139.463 17.8241 139.463 16.5441C139.463 15.2641 139.767 14.1201 140.375 13.1121C140.983 12.1041 141.823 11.3201 142.895 10.7601C143.983 10.1841 145.207 9.89608 146.567 9.89608C147.927 9.89608 149.143 10.1841 150.215 10.7601C151.287 11.3201 152.127 12.1041 152.735 13.1121C153.343 14.1201 153.647 15.2641 153.647 16.5441C153.647 17.8241 153.343 18.9681 152.735 19.9761C152.127 20.9841 151.287 21.7761 150.215 22.3521C149.143 22.9121 147.927 23.1921 146.567 23.1921ZM146.567 20.1201C147.527 20.1201 148.311 19.8001 148.919 19.1601C149.543 18.5041 149.855 17.6321 149.855 16.5441C149.855 15.4561 149.543 14.5921 148.919 13.9521C148.311 13.2961 147.527 12.9681 146.567 12.9681C145.607 12.9681 144.815 13.2961 144.191 13.9521C143.567 14.5921 143.255 15.4561 143.255 16.5441C143.255 17.6321 143.567 18.5041 144.191 19.1601C144.815 19.8001 145.607 20.1201 146.567 20.1201Z" fill="white"/>
<path d="M156.222 10.0881H159.942V17.7681L166.23 10.0881H169.662V23.0001H165.942V15.3201L159.678 23.0001H156.222V10.0881ZM162.702 8.69607C159.886 8.69607 158.47 7.45607 158.454 4.97607H160.902C160.918 5.53607 161.07 5.97607 161.358 6.29607C161.662 6.60007 162.102 6.75207 162.678 6.75207C163.254 6.75207 163.694 6.60007 163.998 6.29607C164.318 5.97607 164.478 5.53607 164.478 4.97607H166.974C166.958 7.45607 165.534 8.69607 162.702 8.69607Z" fill="white"/>
<path d="M188.837 23.0001L188.813 12.9441L183.869 21.2241H182.141L177.197 13.1361V23.0001H173.549V6.20007H176.765L183.053 16.6401L189.245 6.20007H192.461L192.485 23.0001H188.837Z" fill="white"/>
<path d="M202.418 23.1921C201.058 23.1921 199.834 22.9121 198.746 22.3521C197.674 21.7761 196.834 20.9841 196.226 19.9761C195.618 18.9681 195.314 17.8241 195.314 16.5441C195.314 15.2641 195.618 14.1201 196.226 13.1121C196.834 12.1041 197.674 11.3201 198.746 10.7601C199.834 10.1841 201.058 9.89608 202.418 9.89608C203.778 9.89608 204.994 10.1841 206.066 10.7601C207.138 11.3201 207.978 12.1041 208.586 13.1121C209.194 14.1201 209.498 15.2641 209.498 16.5441C209.498 17.8241 209.194 18.9681 208.586 19.9761C207.978 20.9841 207.138 21.7761 206.066 22.3521C204.994 22.9121 203.778 23.1921 202.418 23.1921ZM202.418 20.1201C203.378 20.1201 204.162 19.8001 204.77 19.1601C205.394 18.5041 205.706 17.6321 205.706 16.5441C205.706 15.4561 205.394 14.5921 204.77 13.9521C204.162 13.2961 203.378 12.9681 202.418 12.9681C201.458 12.9681 200.666 13.2961 200.042 13.9521C199.418 14.5921 199.106 15.4561 199.106 16.5441C199.106 17.6321 199.418 18.5041 200.042 19.1601C200.666 19.8001 201.458 20.1201 202.418 20.1201Z" fill="white"/>
<path d="M212.073 10.0881H215.793V15.1281H221.409V10.0881H225.153V23.0001H221.409V18.1761H215.793V23.0001H212.073V10.0881Z" fill="white"/>
<path d="M239.585 13.1601H235.217V23.0001H231.497V13.1601H227.129V10.0881H239.585V13.1601Z" fill="white"/>
<path d="M246.597 9.89608C248.597 9.89608 250.133 10.3761 251.205 11.3361C252.277 12.2801 252.813 13.7121 252.813 15.6321V23.0001H249.309V21.3921C248.605 22.5921 247.293 23.1921 245.373 23.1921C244.381 23.1921 243.517 23.0241 242.781 22.6881C242.061 22.3521 241.509 21.8881 241.125 21.2961C240.741 20.7041 240.549 20.0321 240.549 19.2801C240.549 18.0801 240.997 17.1361 241.893 16.4481C242.805 15.7601 244.205 15.4161 246.093 15.4161H249.069C249.069 14.6001 248.821 13.9761 248.325 13.5441C247.829 13.0961 247.085 12.8721 246.093 12.8721C245.405 12.8721 244.725 12.9841 244.053 13.2081C243.397 13.4161 242.837 13.7041 242.373 14.0721L241.029 11.4561C241.733 10.9601 242.573 10.5761 243.549 10.3041C244.541 10.0321 245.557 9.89608 246.597 9.89608ZM246.309 20.6721C246.949 20.6721 247.517 20.5281 248.013 20.2401C248.509 19.9361 248.861 19.4961 249.069 18.9201V17.6001H246.501C244.965 17.6001 244.197 18.1041 244.197 19.1121C244.197 19.5921 244.381 19.9761 244.749 20.2641C245.133 20.5361 245.653 20.6721 246.309 20.6721Z" fill="white"/>
<path d="M268.857 18.1041H267.057V23.0001H263.361V18.1041H261.561L258.825 23.0001H254.409L258.465 16.3281L254.697 10.0881H258.657L261.513 15.1041H263.361V10.0881H267.057V15.1041H268.881L271.761 10.0881H275.721L271.953 16.3281L276.033 23.0001H271.593L268.857 18.1041Z" fill="white"/>
<path fill-rule="evenodd" clip-rule="evenodd" d="M3 0C1.34315 0 0 1.34315 0 3V18.3333C0 19.9902 1.34315 21.3333 3 21.3333H5.33335V8.3334C5.33335 6.67655 6.6765 5.3334 8.33335 5.3334H21.3333V3C21.3333 1.34315 19.9902 0 18.3333 0H3ZM10.6667 28.9999V26.6667H23.6667C25.3235 26.6667 26.6667 25.3236 26.6667 23.6667V10.6666H29C30.6568 10.6666 32 12.0097 32 13.6666V28.9999C32 30.6568 30.6568 31.9999 29 31.9999H13.6667C12.0098 31.9999 10.6667 30.6568 10.6667 28.9999ZM21.3334 18.3334V10.6666H13.6667C12.0098 10.6666 10.6667 12.0097 10.6667 13.6666V21.3334H18.3334C19.9902 21.3334 21.3334 19.9903 21.3334 18.3334Z" fill="#FFB71B"/>
</svg>
