<svg width="309" height="32" viewBox="0 0 309 32" fill="none" xmlns="http://www.w3.org/2000/svg">
<path d="M59.416 19.832V26.48H55.816V23H43.96V26.48H40.36L40.384 19.832H41.056C42.064 19.8 42.776 19.064 43.192 17.624C43.608 16.184 43.864 14.128 43.96 11.456L44.152 6.2H57.064V19.832H59.416ZM47.392 11.816C47.312 13.816 47.144 15.496 46.888 16.856C46.632 18.2 46.24 19.192 45.712 19.832H53.224V9.368H47.464L47.392 11.816ZM70.0493 23.288C68.3053 23.288 66.7293 22.912 65.3213 22.16C63.9293 21.408 62.8333 20.376 62.0333 19.064C61.2493 17.736 60.8573 16.248 60.8573 14.6C60.8573 12.952 61.2493 11.472 62.0333 10.16C62.8333 8.832 63.9293 7.792 65.3213 7.04C66.7293 6.288 68.3053 5.912 70.0493 5.912C71.7933 5.912 73.3613 6.288 74.7533 7.04C76.1453 7.792 77.2413 8.832 78.0413 10.16C78.8413 11.472 79.2413 12.952 79.2413 14.6C79.2413 16.248 78.8413 17.736 78.0413 19.064C77.2413 20.376 76.1453 21.408 74.7533 22.16C73.3613 22.912 71.7933 23.288 70.0493 23.288ZM70.0493 19.976C71.0413 19.976 71.9373 19.752 72.7373 19.304C73.5373 18.84 74.1613 18.2 74.6093 17.384C75.0733 16.568 75.3053 15.64 75.3053 14.6C75.3053 13.56 75.0733 12.632 74.6093 11.816C74.1613 11 73.5373 10.368 72.7373 9.92C71.9373 9.456 71.0413 9.224 70.0493 9.224C69.0573 9.224 68.1613 9.456 67.3613 9.92C66.5613 10.368 65.9293 11 65.4653 11.816C65.0173 12.632 64.7933 13.56 64.7933 14.6C64.7933 15.64 65.0173 16.568 65.4653 17.384C65.9293 18.2 66.5613 18.84 67.3613 19.304C68.1613 19.752 69.0573 19.976 70.0493 19.976ZM89.5084 6.2C90.9964 6.2 92.2844 6.448 93.3724 6.944C94.4764 7.44 95.3244 8.144 95.9164 9.056C96.5084 9.968 96.8044 11.048 96.8044 12.296C96.8044 13.528 96.5084 14.608 95.9164 15.536C95.3244 16.448 94.4764 17.152 93.3724 17.648C92.2844 18.128 90.9964 18.368 89.5084 18.368H86.1244V23H82.2364V6.2H89.5084ZM89.2924 15.2C90.4604 15.2 91.3484 14.952 91.9564 14.456C92.5644 13.944 92.8684 13.224 92.8684 12.296C92.8684 11.352 92.5644 10.632 91.9564 10.136C91.3484 9.624 90.4604 9.368 89.2924 9.368H86.1244V15.2H89.2924ZM107.548 23.288C105.836 23.288 104.284 22.92 102.892 22.184C101.516 21.432 100.428 20.4 99.6276 19.088C98.8436 17.76 98.4516 16.264 98.4516 14.6C98.4516 12.936 98.8436 11.448 99.6276 10.136C100.428 8.808 101.516 7.776 102.892 7.04C104.284 6.288 105.844 5.912 107.572 5.912C109.028 5.912 110.34 6.168 111.508 6.68C112.692 7.192 113.684 7.928 114.484 8.888L111.988 11.192C110.852 9.88 109.444 9.224 107.764 9.224C106.724 9.224 105.796 9.456 104.98 9.92C104.164 10.368 103.524 11 103.06 11.816C102.612 12.632 102.388 13.56 102.388 14.6C102.388 15.64 102.612 16.568 103.06 17.384C103.524 18.2 104.164 18.84 104.98 19.304C105.796 19.752 106.724 19.976 107.764 19.976C109.444 19.976 110.852 19.312 111.988 17.984L114.484 20.288C113.684 21.264 112.692 22.008 111.508 22.52C110.324 23.032 109.004 23.288 107.548 23.288ZM129.694 9.368H124.318V23H120.478V9.368H115.126V6.2H129.694V9.368ZM139.407 6.2C140.895 6.2 142.183 6.448 143.271 6.944C144.375 7.44 145.223 8.144 145.815 9.056C146.407 9.968 146.703 11.048 146.703 12.296C146.703 13.528 146.407 14.608 145.815 15.536C145.223 16.448 144.375 17.152 143.271 17.648C142.183 18.128 140.895 18.368 139.407 18.368H136.023V23H132.135V6.2H139.407ZM139.191 15.2C140.359 15.2 141.247 14.952 141.855 14.456C142.463 13.944 142.767 13.224 142.767 12.296C142.767 11.352 142.463 10.632 141.855 10.136C141.247 9.624 140.359 9.368 139.191 9.368H136.023V15.2H139.191ZM157.518 23.288C155.774 23.288 154.198 22.912 152.79 22.16C151.398 21.408 150.302 20.376 149.502 19.064C148.718 17.736 148.326 16.248 148.326 14.6C148.326 12.952 148.718 11.472 149.502 10.16C150.302 8.832 151.398 7.792 152.79 7.04C154.198 6.288 155.774 5.912 157.518 5.912C159.262 5.912 160.83 6.288 162.222 7.04C163.614 7.792 164.71 8.832 165.51 10.16C166.31 11.472 166.71 12.952 166.71 14.6C166.71 16.248 166.31 17.736 165.51 19.064C164.71 20.376 163.614 21.408 162.222 22.16C160.83 22.912 159.262 23.288 157.518 23.288ZM157.518 19.976C158.51 19.976 159.406 19.752 160.206 19.304C161.006 18.84 161.63 18.2 162.078 17.384C162.542 16.568 162.774 15.64 162.774 14.6C162.774 13.56 162.542 12.632 162.078 11.816C161.63 11 161.006 10.368 160.206 9.92C159.406 9.456 158.51 9.224 157.518 9.224C156.526 9.224 155.63 9.456 154.83 9.92C154.03 10.368 153.398 11 152.934 11.816C152.486 12.632 152.262 13.56 152.262 14.6C152.262 15.64 152.486 16.568 152.934 17.384C153.398 18.2 154.03 18.84 154.83 19.304C155.63 19.752 156.526 19.976 157.518 19.976ZM169.705 6.2H173.569V17.144L181.585 6.2H185.233V23H181.393V12.08L173.377 23H169.705V6.2ZM177.457 5.12C174.385 5.12 172.833 3.896 172.801 1.448H175.465C175.497 2.616 176.161 3.2 177.457 3.2C178.097 3.2 178.585 3.056 178.921 2.768C179.257 2.464 179.433 2.024 179.449 1.448H182.113C182.097 2.648 181.705 3.56 180.937 4.184C180.169 4.808 179.009 5.12 177.457 5.12ZM204.704 23L204.68 12.944L199.736 21.224H198.008L193.064 13.136V23H189.416V6.2H192.632L198.92 16.64L205.112 6.2H208.328L208.352 23H204.704ZM220.542 23.288C218.798 23.288 217.222 22.912 215.814 22.16C214.422 21.408 213.326 20.376 212.526 19.064C211.742 17.736 211.35 16.248 211.35 14.6C211.35 12.952 211.742 11.472 212.526 10.16C213.326 8.832 214.422 7.792 215.814 7.04C217.222 6.288 218.798 5.912 220.542 5.912C222.286 5.912 223.854 6.288 225.246 7.04C226.638 7.792 227.734 8.832 228.534 10.16C229.334 11.472 229.734 12.952 229.734 14.6C229.734 16.248 229.334 17.736 228.534 19.064C227.734 20.376 226.638 21.408 225.246 22.16C223.854 22.912 222.286 23.288 220.542 23.288ZM220.542 19.976C221.534 19.976 222.43 19.752 223.23 19.304C224.03 18.84 224.654 18.2 225.102 17.384C225.566 16.568 225.798 15.64 225.798 14.6C225.798 13.56 225.566 12.632 225.102 11.816C224.654 11 224.03 10.368 223.23 9.92C222.43 9.456 221.534 9.224 220.542 9.224C219.55 9.224 218.654 9.456 217.854 9.92C217.054 10.368 216.422 11 215.958 11.816C215.51 12.632 215.286 13.56 215.286 14.6C215.286 15.64 215.51 16.568 215.958 17.384C216.422 18.2 217.054 18.84 217.854 19.304C218.654 19.752 219.55 19.976 220.542 19.976ZM248.137 6.2V23H244.249V16.112H236.617V23H232.729V6.2H236.617V12.824H244.249V6.2H248.137ZM265.186 9.368H259.81V23H255.97V9.368H250.618V6.2H265.186V9.368ZM278.159 19.4H270.359L268.871 23H264.887L272.375 6.2H276.215L283.727 23H279.647L278.159 19.4ZM276.935 16.448L274.271 10.016L271.607 16.448H276.935ZM300.328 16.232H297.88V23H294.064V16.232H291.568L287.8 23H283.312L288.352 14.216L283.624 6.2H287.728L291.496 12.992H294.064V6.2H297.88V12.992H300.376L304.168 6.2H308.272L303.568 14.216L308.584 23H304.096L300.328 16.232Z" fill="white"/>
<path fill-rule="evenodd" clip-rule="evenodd" d="M3 0C1.34315 0 0 1.34315 0 3V18.3333C0 19.9902 1.34315 21.3333 3 21.3333H5.33335V8.3333C5.33335 6.67645 6.6765 5.3333 8.33335 5.3333H21.3333V3C21.3333 1.34315 19.9902 0 18.3333 0H3ZM10.6667 29V26.6666H23.6667C25.3235 26.6666 26.6667 25.3235 26.6667 23.6666V10.6667H29C30.6568 10.6667 32 12.0098 32 13.6667V29C32 30.6569 30.6568 32 29 32H13.6667C12.0098 32 10.6667 30.6569 10.6667 29ZM21.3334 18.3333V10.6667H13.6667C12.0098 10.6667 10.6667 12.0098 10.6667 13.6667V21.3333H18.3334C19.9902 21.3333 21.3334 19.9901 21.3334 18.3333Z" fill="#FFB71B"/>
</svg>
