<svg width="24" height="24" viewBox="0 0 24 24" fill="none" xmlns="http://www.w3.org/2000/svg">
<path d="M18.1252 14.2422C17.4826 13.6002 16.6713 13.6002 16.0207 14.2422C15.5307 14.7318 15.0315 15.2224 14.5496 15.7201C14.4225 15.8552 14.3046 15.8898 14.1439 15.7963C13.8227 15.6186 13.4851 15.4845 13.1812 15.2905C11.7436 14.3956 10.544 13.2386 9.48766 11.9384C8.96307 11.2964 8.49032 10.6037 8.16906 9.82764C8.10095 9.66715 8.11823 9.56557 8.24531 9.43962C8.74449 8.96627 9.22537 8.47667 9.70726 7.98706C10.3833 7.30345 10.3833 6.50912 9.70726 5.8255C9.32703 5.43748 8.93867 5.05758 8.54929 4.66854C8.15178 4.27137 7.76342 3.87522 7.35777 3.47805C6.70712 2.84523 5.89583 2.83609 5.24517 3.47805C4.74701 3.96766 4.27325 4.4664 3.76594 4.94788C3.30132 5.39481 3.06444 5.93622 3.01361 6.56905C2.93736 7.59904 3.19051 8.57012 3.54634 9.52494C4.28138 11.4925 5.38851 13.2315 6.73253 14.8283C8.55031 16.9898 10.7219 18.7045 13.2655 19.9376C14.4062 20.4943 15.5988 20.926 16.8828 20.993C17.7622 21.0438 18.5389 20.8244 19.156 20.1316C19.579 19.6583 20.0517 19.2367 20.5001 18.7806C21.168 18.1133 21.168 17.3027 20.4919 16.6099C19.705 15.8126 18.9192 15.0274 18.1252 14.2422Z" fill="#FFB71B"/>
</svg>
