<svg width="24" height="24" viewBox="0 0 24 24" fill="none" xmlns="http://www.w3.org/2000/svg">
<path d="M21.2825 8.58468H20.7062V5.80404C20.7062 5.78671 20.7035 5.76924 20.7014 5.75151C20.7005 5.64121 20.6651 5.53278 20.5895 5.44686L15.962 0.160951C15.9606 0.159594 15.9592 0.159113 15.9583 0.157668C15.9307 0.126852 15.8986 0.101202 15.8645 0.0790529C15.8545 0.072312 15.8443 0.0666653 15.8338 0.0607123C15.8043 0.0447354 15.773 0.0312972 15.7409 0.0216236C15.7322 0.0193474 15.7243 0.0157581 15.7157 0.0134819C15.6807 0.00516514 15.6444 0 15.6077 0H4.23538C3.71611 0 3.29423 0.42236 3.29423 0.941194V8.58442H2.71802C1.97515 8.58442 1.3728 9.18655 1.3728 9.92968V16.925C1.3728 17.6674 1.97515 18.2702 2.71802 18.2702H3.29423V23.0588C3.29423 23.5777 3.71611 24 4.23538 24H19.7648C20.2836 24 20.7059 23.5777 20.7059 23.0588V18.2702H21.2822C22.0249 18.2702 22.6273 17.6678 22.6273 16.9251V9.92994C22.6274 9.1866 22.0253 8.58468 21.2825 8.58468ZM4.23538 0.941194H15.1371V5.75642C15.1371 6.01643 15.3479 6.22701 15.6077 6.22701H19.7648V8.58464H4.23538V0.941194ZM13.7698 13.7735C12.8452 13.4513 12.2418 12.9398 12.2418 12.1301C12.2418 11.1803 13.0346 10.4537 14.348 10.4537C14.9753 10.4537 15.438 10.5856 15.768 10.7344L15.4874 11.75C15.2646 11.6429 14.8682 11.4857 14.3232 11.4857C13.7781 11.4857 13.5139 11.7335 13.5139 12.0226C13.5139 12.3778 13.8278 12.5346 14.5461 12.8071C15.5286 13.1706 15.9911 13.6825 15.9911 14.4669C15.9911 15.4003 15.2726 16.1931 13.7448 16.1931C13.1091 16.1931 12.4815 16.0281 12.1676 15.8544L12.4234 14.814C12.7621 14.9872 13.2825 15.161 13.8191 15.161C14.3977 15.161 14.7028 14.9215 14.7028 14.558C14.703 14.2114 14.4388 14.0129 13.7698 13.7735ZM11.6399 15.0533V16.1107H8.16269V10.544H9.4267V15.0533H11.6399ZM4.12508 16.1107H2.68821L4.2985 13.2938L2.74577 10.5438H4.19117L4.67814 11.5597C4.84334 11.8983 4.9673 12.1705 5.09958 12.4848H5.11565C5.24815 12.1296 5.35539 11.8819 5.49537 11.5597L5.96619 10.5438H7.4031L5.83395 13.2605L7.48592 16.1102H6.03259L5.52855 15.1025C5.32243 14.7149 5.19019 14.4256 5.03322 14.1035H5.01681C4.90103 14.4256 4.76096 14.7149 4.58736 15.1025L4.12508 16.1107ZM19.7648 22.804H4.23538V18.2702H19.7648V22.804H19.7648ZM19.7733 16.1107L19.2694 15.103C19.063 14.715 18.9309 14.4261 18.7739 14.1039H18.7579C18.6421 14.4261 18.5015 14.715 18.3278 15.103L17.8659 16.1107H16.4286L18.0389 13.2938L16.4863 10.5438H17.9316L18.4192 11.5597C18.5842 11.8983 18.7078 12.1705 18.8402 12.4848H18.8567C18.9886 12.1296 19.0957 11.8819 19.2363 11.5597L19.7069 10.5438H21.1442L19.575 13.2605L21.2266 16.1102H19.7733V16.1107Z" fill="#219653"/>
</svg>
