<svg width="84" height="84" viewBox="0 0 84 84" fill="none" xmlns="http://www.w3.org/2000/svg">
<rect x="3" y="3" width="78" height="78" fill="white" stroke="#FFB71B" stroke-width="6"/>
<g clip-path="url(#clip0)">
<path d="M52.0646 30.9692C51.4598 30.9692 50.9688 31.458 50.9688 32.0626C50.9688 32.6667 51.4598 33.1563 52.0646 33.1563C52.6708 33.1563 53.1605 32.6667 53.1605 32.0626C53.1605 31.458 52.6708 30.9692 52.0646 30.9692Z" fill="#2B2831"/>
<path d="M32.1528 50.8418C31.5466 50.8418 31.0569 51.3318 31.0569 51.9355C31.0569 52.5405 31.5466 53.0293 32.1528 53.0293C32.7577 53.0293 33.2487 52.5405 33.2487 51.9355C33.2487 51.3318 32.7577 50.8418 32.1528 50.8418Z" fill="#2B2831"/>
<path d="M68.8006 20.7288C68.4307 20.6429 68.042 20.7544 67.7749 21.0236L63.2317 25.5939H61.0536L58.6559 23.1145V20.9104L63.1341 16.3743C63.3991 16.106 63.5069 15.7202 63.4192 15.3532C63.3318 14.9866 63.0613 14.691 62.7034 14.5705C61.5784 14.1919 60.4012 14.0001 59.2038 14.0001C55.6345 14.0001 52.3918 15.6612 50.307 18.5575C48.3558 21.2688 47.7544 24.5915 48.6161 27.7715L40.5437 35.8281L27.0951 22.375V19.7346C27.0951 19.3505 26.8931 18.9942 26.563 18.7968L18.8143 14.156C18.3828 13.8976 17.831 13.9655 17.4757 14.3205L14.3764 17.4134C14.0211 17.7684 13.953 18.3191 14.2115 18.7498L18.8605 26.4834C19.0583 26.8128 19.4149 27.014 19.7997 27.0145L22.4444 27.0153L35.8943 40.4684L27.8528 48.4943C24.6666 47.6346 21.3357 48.2358 18.6178 50.1845C15.7175 52.2639 14.0544 55.4994 14.0544 59.0618C14.0544 60.2564 14.2467 61.4317 14.6259 62.5541C14.7471 62.9134 15.0463 63.1847 15.4162 63.2702C15.7865 63.356 16.1747 63.2445 16.4423 62.9754L20.9851 58.4055H23.1752L25.6705 60.8959V63.0817L21.0917 67.6157C20.822 67.8827 20.7103 68.2702 20.7963 68.6398C20.8819 69.0089 21.1538 69.3076 21.5138 69.4285C22.6383 69.807 23.816 69.9989 25.0129 69.9989C28.5823 69.9989 31.8237 68.3386 33.9076 65.444C35.8601 62.7314 36.4624 59.4074 35.6011 56.2274L42.0596 49.7816L43.539 51.3854L42.8601 52.0626C42.432 52.4899 42.432 53.1824 42.8601 53.6097C43.2882 54.0365 43.9817 54.0365 44.4102 53.6097L45.0249 52.9962L58.9059 68.0446C58.9162 68.0557 58.9269 68.0664 58.9376 68.0771C61.5061 70.6406 65.6675 70.6414 68.2372 68.0767C70.7997 65.5179 70.7997 61.3544 68.2372 58.7956C68.2261 58.7845 68.2146 58.7738 68.203 58.7631L53.1015 44.9357L53.7094 44.329C54.1375 43.9022 54.1375 43.2097 53.7094 42.7824C53.2813 42.3552 52.5878 42.3552 52.1593 42.7824L51.4851 43.4557L49.8751 41.9809L56.3648 35.5038C57.2873 35.7499 58.2394 35.8747 59.2038 35.8747C65.2467 35.8747 70.1623 30.9682 70.1623 24.9376C70.1623 23.7426 69.9701 22.5677 69.5908 21.4449C69.4697 21.0856 69.1705 20.8143 68.8006 20.7288ZM23.6747 25.1491C23.4693 24.9436 23.1906 24.8389 22.8995 24.8389L20.4209 24.8381L16.5313 18.3567L18.4205 16.4713L24.9033 20.3541V22.8279C24.9033 23.1175 25.0185 23.3953 25.2235 23.6003L38.9941 37.3752L37.444 38.9218L23.6747 25.1491ZM51.5502 46.4841L66.703 60.358C68.3956 62.0653 68.3905 64.8296 66.6872 66.5305C64.98 68.2343 62.2163 68.2395 60.5022 66.5454L46.5758 51.4478L51.5502 46.4841ZM49.9337 45.0037L45.09 49.8371L43.6105 48.2332L48.3237 43.5288L49.9337 45.0037ZM59.2038 33.6872C58.2454 33.6872 57.3027 33.5338 56.4029 33.2313C56.0086 33.0993 55.5729 33.201 55.2783 33.4945C49.7843 38.9778 37.9461 50.7924 33.587 55.1435C33.2925 55.4374 33.1901 55.8724 33.3233 56.2663C34.2342 58.9661 33.7985 61.8457 32.1272 64.1678C30.4607 66.483 27.8674 67.8114 25.0129 67.8114C24.6923 67.8114 24.3734 67.7938 24.0574 67.7601L27.5382 64.3131C27.7454 64.108 27.8622 63.8286 27.8622 63.5368V60.4426C27.8622 60.1525 27.7467 59.8744 27.5412 59.6693L24.4038 56.538C24.1983 56.333 23.9196 56.2176 23.6289 56.2176H20.5288C20.2364 56.2176 19.9564 56.3342 19.7505 56.541L16.2972 60.015C16.2629 59.6997 16.2458 59.3814 16.2458 59.0613C16.2458 56.212 17.5763 53.6242 19.8965 51.9609C22.2227 50.293 25.1084 49.8576 27.8139 50.7672C28.2081 50.9001 28.6439 50.798 28.9384 50.504C28.9988 50.4442 50.6144 28.8704 50.6298 28.855C50.9243 28.5611 51.0262 28.1266 50.8935 27.7327C49.9821 25.0329 50.417 22.1541 52.087 19.8337C53.7548 17.5163 56.3485 16.1876 59.2034 16.1876C59.5339 16.1876 59.8622 16.206 60.1876 16.2419L56.7792 19.6944C56.5771 19.8991 56.4641 20.1747 56.4641 20.4618V23.5559C56.4641 23.8396 56.5741 24.1117 56.7715 24.3155L59.7993 27.4468C60.0056 27.6605 60.2903 27.7809 60.5878 27.7809H63.688C63.98 27.7809 64.2599 27.6647 64.4658 27.4575L67.9192 23.984C67.9534 24.2993 67.9705 24.6176 67.9705 24.9376C67.9705 29.7621 64.0378 33.6872 59.2038 33.6872Z" fill="#2B2831"/>
<path d="M48.1906 34.3827L34.477 48.0695C34.0493 48.4963 34.0493 49.1889 34.477 49.6162C34.9051 50.0434 35.599 50.0434 36.0271 49.6162L49.7407 35.9293C50.1688 35.5025 50.1688 34.8099 49.7407 34.3827C49.3126 33.9554 48.6187 33.9554 48.1906 34.3827Z" fill="#2B2831"/>
<path d="M62.039 63.4375C62.4671 63.8634 63.161 63.8634 63.5891 63.4349C64.0163 63.0072 64.015 62.3147 63.5865 61.8883L53.7085 52.0612C53.28 51.6348 52.5857 51.6361 52.1589 52.0637C51.7312 52.4918 51.7325 53.184 52.161 53.6104L62.039 63.4375Z" fill="#2B2831"/>
</g>
<defs>
<clipPath id="clip0">
<rect x="14" y="14" width="56" height="56" fill="white"/>
</clipPath>
</defs>
</svg>

