<svg width="84" height="84" viewBox="0 0 84 84" fill="none" xmlns="http://www.w3.org/2000/svg">
<rect x="3" y="3" width="78" height="78" fill="white" stroke="#FFB71B" stroke-width="6"/>
<g clip-path="url(#clip0)">
<path d="M51.3334 44.8C48.245 44.8 45.7334 47.3116 45.7334 50.4C45.7334 53.4885 48.245 56 51.3334 56C54.4218 56 56.9334 53.4885 56.9334 50.4C56.9334 47.3116 54.4218 44.8 51.3334 44.8ZM51.3334 54.1333C49.2744 54.1333 47.6001 52.4589 47.6001 50.4C47.6001 48.3411 49.2745 46.6668 51.3334 46.6668C53.3924 46.6668 55.0667 48.3412 55.0667 50.4C55.0668 52.459 53.3924 54.1333 51.3334 54.1333Z" fill="#2B2831"/>
<path d="M53.2001 54.1333V57.9899L51.8505 57.0901C51.5369 56.8801 51.1291 56.8801 50.8154 57.0901L49.4667 57.9899V54.1333H47.6001V59.7333C47.6001 60.0777 47.7895 60.3942 48.0938 60.5565C48.3962 60.7189 48.7658 60.7002 49.0514 60.5098L51.3334 58.9885L53.6154 60.5098C53.7713 60.6133 53.9524 60.6666 54.1334 60.6666C54.2846 60.6666 54.4358 60.6302 54.574 60.5565C54.8773 60.394 55.0668 60.0776 55.0668 59.7333V54.1333H53.2001Z" fill="#2B2831"/>
<path d="M47.6001 23.3333H35.4668V25.2H47.6001V23.3333Z" fill="#2B2831"/>
<path d="M56.9334 28.9333H27.0667V30.8001H56.9334V28.9333Z" fill="#2B2831"/>
<path d="M47.5999 34.5334H27.0667V36.4002H47.5999V34.5334Z" fill="#2B2831"/>
<path d="M56.9333 34.5334H51.3333V36.4002H56.9333V34.5334Z" fill="#2B2831"/>
<path d="M56.9334 40.1333H27.0667V42H56.9334V40.1333Z" fill="#2B2831"/>
<path d="M38.2667 45.7334H27.0667V47.6001H38.2667V45.7334Z" fill="#2B2831"/>
<path d="M31.7334 50.3999H27.0667V52.2666H31.7334V50.3999Z" fill="#2B2831"/>
<path d="M38.2668 50.3999H35.4668V52.2666H38.2668V50.3999Z" fill="#2B2831"/>
<path d="M65.3332 14C62.7601 14 60.6665 16.0934 60.6665 18.6667V20.5334C60.6665 21.0486 61.0837 21.4667 61.5998 21.4667H69.0665C69.5827 21.4667 69.9998 21.0486 69.9998 20.5334V18.6667C69.9999 16.0934 67.9065 14 65.3332 14ZM68.1332 19.6H62.5332V18.6667C62.5332 17.123 63.7895 15.8667 65.3332 15.8667C66.8769 15.8667 68.1332 17.123 68.1332 18.6667V19.6Z" fill="#2B2831"/>
<path d="M65.3334 14H26.1334C23.5602 14 21.4668 16.0934 21.4668 18.6667V63.4667H23.3335V18.6667C23.3335 17.123 24.5898 15.8667 26.1335 15.8667H61.6021C61.015 16.647 60.6669 17.6167 60.6669 18.6667V65.3334C60.6669 66.8771 59.4106 68.1334 57.8669 68.1334H22.4001V70H57.8668C60.4399 70 62.5335 67.9066 62.5335 65.3333V18.6667C62.5335 17.123 63.7898 15.8667 65.3335 15.8667C65.8496 15.8667 66.2668 15.4486 66.2668 14.9334C66.2668 14.4183 65.8495 14 65.3334 14Z" fill="#2B2831"/>
<path d="M57.8667 68.1334C56.323 68.1334 55.0667 66.8772 55.0667 65.3334V63.4667C55.0667 62.9506 54.6495 62.5334 54.1334 62.5334H14.9333C14.4181 62.5334 14 62.9506 14 63.4667V65.3334C14 67.9067 16.0934 70.0001 18.6667 70.0001H57.8667C58.3828 70.0001 58.8 69.583 58.8 69.0669C58.8 68.5507 58.3828 68.1334 57.8667 68.1334ZM18.6667 68.1334C17.123 68.1334 15.8667 66.8772 15.8667 65.3334V64.4001H53.2V65.3334C53.2 66.3834 53.5481 67.3532 54.1352 68.1334H18.6667Z" fill="#2B2831"/>
</g>
<defs>
<clipPath id="clip0">
<rect x="14" y="14" width="56" height="56" fill="white"/>
</clipPath>
</defs>
</svg>
