<svg width="84" height="84" viewBox="0 0 84 84" fill="none" xmlns="http://www.w3.org/2000/svg">
<rect x="3" y="3" width="78" height="78" fill="white" stroke="#FFB71B" stroke-width="6"/>
<g clip-path="url(#clip0)">
<path d="M56.9109 38.7265C56.9109 36.9536 55.4686 35.5115 53.6958 35.5115H47.7871C49.2227 33.8979 50.1609 32.0605 50.3421 30.4121C50.4528 29.4053 50.1418 28.406 49.4885 27.6702C48.8914 26.9976 48.0749 26.6228 47.1894 26.6146C47.1791 26.6145 47.1688 26.6145 47.1587 26.6145C46.3021 26.6145 45.4982 26.9444 44.8915 27.5455C44.2847 28.1467 43.9489 28.9477 43.945 29.8025C43.9138 29.9896 43.5846 30.6348 42.7791 31.4009C42.1195 32.0282 40.9803 32.8907 39.2982 33.4368C38.6387 33.6509 38.0359 34.0452 37.5068 34.6087C37.229 34.9043 36.8132 35.3124 36.2984 35.7222C36.0457 35.5883 35.7584 35.5117 35.4531 35.5117H29.8414C28.8422 35.5117 28.0293 36.3246 28.0293 37.3238V52.2883C28.0293 53.2876 28.8422 54.1004 29.8414 54.1004H35.4531C36.1343 54.1004 36.7283 53.7222 37.0379 53.1652H51.3576C52.8725 53.1652 54.105 51.9327 54.105 50.4178C54.105 49.9084 53.9657 49.4311 53.7231 49.0216C54.5125 48.5384 55.0402 47.668 55.0402 46.6766C55.0402 46.1673 54.901 45.6899 54.6584 45.2804C55.4478 44.7972 55.9755 43.9268 55.9755 42.9354C55.9755 42.3621 55.799 41.8292 55.4974 41.3882C56.3498 40.8093 56.9109 39.8321 56.9109 38.7265ZM53.6958 40.1878H53.2281C52.7439 40.1878 52.3512 40.5804 52.3512 41.0647C52.3512 41.5489 52.7438 41.9416 53.2281 41.9416C53.7761 41.9416 54.2219 42.3874 54.2219 42.9353C54.2219 43.4833 53.7761 43.9291 53.2281 43.9291H52.2928C51.8086 43.9291 51.416 44.3217 51.416 44.806C51.416 45.2902 51.8085 45.6828 52.2928 45.6828C52.8408 45.6828 53.2866 46.1286 53.2866 46.6766C53.2866 47.2246 52.8408 47.6704 52.2928 47.6704H51.3576C50.8734 47.6704 50.4807 48.0629 50.4807 48.5473C50.4807 49.0315 50.8733 49.4241 51.3576 49.4241C51.9055 49.4241 52.3513 49.8699 52.3513 50.4179C52.3513 50.9659 51.9055 51.4117 51.3576 51.4117H37.2653V42.9357C37.2653 42.4515 36.8727 42.0588 36.3884 42.0588C35.9041 42.0588 35.5115 42.4514 35.5115 42.9357V52.2884C35.5115 52.3207 35.4854 52.3468 35.4531 52.3468H29.8414C29.8092 52.3468 29.783 52.3207 29.783 52.2884V37.3235C29.783 37.2913 29.8092 37.2651 29.8414 37.2651H35.4531C35.4854 37.2651 35.5115 37.2913 35.5115 37.3235V39.1942C35.5115 39.6784 35.9041 40.071 36.3884 40.071C36.8727 40.071 37.2653 39.6785 37.2653 39.1942V37.3235C37.2653 37.281 37.2618 37.2393 37.2588 37.1975C37.9163 36.6886 38.442 36.1741 38.785 35.809C39.1095 35.4633 39.4643 35.2264 39.8396 35.1046C41.9035 34.4346 43.2925 33.3557 44.0941 32.5687C45.0988 31.5822 45.6985 30.5539 45.6985 29.8177C45.6985 29.4287 45.8502 29.0642 46.1257 28.7912C46.4046 28.5148 46.774 28.3688 47.1731 28.3682C47.6646 28.3728 47.9901 28.6243 48.1768 28.8345C48.4969 29.1949 48.6544 29.7131 48.5987 30.2205C48.4072 31.9627 47.0138 34.1163 45.049 35.7068C44.7604 35.9406 44.6503 36.3308 44.7742 36.6809C44.8981 37.0311 45.2293 37.2651 45.6007 37.2651H53.6956C54.5014 37.2651 55.1569 37.9206 55.1569 38.7265C55.1569 39.5323 54.5015 40.1878 53.6958 40.1878Z" fill="#2B2831"/>
<path d="M32.6473 48.5959C32.1631 48.5959 31.7659 48.9932 31.7659 49.4774C31.7659 49.9616 32.1631 50.3589 32.6473 50.3589C33.1315 50.3589 33.5288 49.9616 33.5288 49.4774C33.5289 48.9933 33.1316 48.5959 32.6473 48.5959Z" fill="#2B2831"/>
<path d="M68.4368 42.0004L69.9431 38.0145C70.0528 37.7245 70.0011 37.3983 69.8072 37.1562L67.1429 33.8308L67.3437 29.5745C67.3584 29.2649 67.2083 28.9704 66.9493 28.8003L63.3879 26.4609L62.2637 22.3508C62.1819 22.0518 61.9483 21.8181 61.6493 21.7364L57.5392 20.6123L55.1998 17.0509C55.0296 16.7918 54.7352 16.6424 54.4257 16.6565L50.1693 16.8573L46.8439 14.1931C46.602 13.9992 46.2757 13.9475 45.9856 14.0571L41.9997 15.5634L38.0139 14.0572C37.7238 13.9475 37.3976 13.9992 37.1557 14.1932L33.8302 16.8574L29.5739 16.6566C29.2629 16.642 28.9698 16.792 28.7998 17.051L26.4604 20.6125L22.3504 21.7367C22.0513 21.8185 21.8177 22.0521 21.736 22.351L20.6118 26.4611L17.0504 28.8004C16.7913 28.9706 16.6413 29.265 16.656 29.5746L16.8568 33.8309L14.1925 37.1563C13.9987 37.3983 13.947 37.7245 14.0566 38.0146L15.5628 42.0004L14.0564 45.9863C13.9467 46.2762 13.9985 46.6025 14.1924 46.8446L16.8567 50.17L16.6559 54.4263C16.6412 54.7359 16.7913 55.0304 17.0503 55.2005L20.6117 57.5399L21.7359 61.65C21.8177 61.949 22.0513 62.1827 22.3502 62.2644L26.4603 63.3885L28.7996 66.95C28.9698 67.2091 29.2648 67.3581 29.5738 67.3444L33.8301 67.1436L37.1556 69.8078C37.3975 70.0018 37.7239 70.0535 38.0138 69.9438L41.9998 68.4375L45.9857 69.9438C46.0864 69.9817 46.1913 70.0003 46.2956 70.0003C46.492 70.0003 46.686 69.9344 46.8439 69.8078L50.1693 67.1436L54.4257 67.3444C54.7362 67.3582 55.0296 67.209 55.1998 66.95L57.5392 63.3885L61.6493 62.2644C61.9484 62.1825 62.182 61.9489 62.2637 61.65L63.3879 57.5399L66.9493 55.2005C67.2084 55.0303 67.3584 54.7359 67.3437 54.4263L67.1429 50.17L69.8072 46.8446C70.001 46.6026 70.0527 46.2764 69.9431 45.9863L68.4368 42.0004ZM66.6793 42.3104L68.1259 46.1384L65.5671 49.3321C65.4336 49.4987 65.3655 49.7083 65.3755 49.9216L65.5685 54.0093L62.1482 56.2559C61.9698 56.3731 61.8401 56.5515 61.7838 56.7575L60.7041 60.7048L56.7569 61.7844C56.5509 61.8407 56.3727 61.9704 56.2553 62.1489L54.0086 65.5691L49.9209 65.3762C49.7076 65.3663 49.498 65.4343 49.3314 65.5678L46.1378 68.1265L42.3098 66.6799C42.2099 66.6422 42.1048 66.6234 41.9998 66.6234C41.8948 66.6234 41.7897 66.6423 41.6898 66.6799L37.8618 68.1265L34.6682 65.5678C34.5016 65.4343 34.2916 65.3663 34.0786 65.3762L29.991 65.5691L27.7443 62.1489C27.6271 61.9705 27.4488 61.8407 27.2427 61.7844L23.2955 60.7048L22.2158 56.7575C22.1595 56.5516 22.0299 56.3733 21.8514 56.2559L18.4311 54.0093L18.6241 49.9216C18.6341 49.7082 18.566 49.4987 18.4324 49.3321L15.8737 46.1384L17.3204 42.3104C17.3959 42.1107 17.3959 41.8902 17.3204 41.6905L15.8737 37.8625L18.4324 34.6688C18.566 34.5022 18.6341 34.2926 18.6241 34.0793L18.4311 29.9916L21.8514 27.7449C22.0298 27.6278 22.1595 27.4494 22.2158 27.2434L23.2955 23.2961L27.2427 22.2165C27.4486 22.1602 27.6269 22.0305 27.7443 21.852L29.991 18.4318L34.0786 18.6247C34.2917 18.6347 34.5016 18.5666 34.6682 18.4331L37.8618 15.8744L41.6898 17.3211C41.8896 17.3965 42.11 17.3965 42.3098 17.3211L46.1378 15.8744L49.3314 18.4331C49.498 18.5667 49.7078 18.6348 49.9209 18.6247L54.0086 18.4318L56.2553 21.852C56.3724 22.0304 56.5508 22.1602 56.7569 22.2165L60.7041 23.2961L61.7838 27.2434C61.8401 27.4493 61.9697 27.6276 62.1482 27.7449L65.5685 29.9916L65.3755 34.0793C65.3655 34.2927 65.4336 34.5022 65.5671 34.6688L68.1259 37.8625L66.6792 41.6905C66.6038 41.8903 66.6038 42.1107 66.6793 42.3104Z" fill="#2B2831"/>
<path d="M58.4756 26.8598C58.2574 26.6222 58.0311 26.386 57.8026 26.1576C57.5741 25.9292 57.338 25.7028 57.1004 25.4846C56.7438 25.1571 56.1891 25.1807 55.8615 25.5375C55.5341 25.8942 55.5577 26.4489 55.9145 26.7764C56.1336 26.9777 56.3517 27.1866 56.5625 27.3975C56.7733 27.6082 56.9823 27.8264 57.1837 28.0456C57.3566 28.234 57.5928 28.3294 57.8299 28.3294C58.0417 28.3294 58.2542 28.2531 58.4226 28.0985C58.7793 27.7712 58.8031 27.2164 58.4756 26.8598Z" fill="#2B2831"/>
<path d="M53.9866 23.0918C49.7582 20.3979 44.6672 19.2007 39.652 19.7199C34.5633 20.2471 29.7651 22.5332 26.1408 26.1574C22.1522 30.1459 19.83 35.4445 19.6018 41.077C19.3751 46.6763 21.2297 52.1127 24.8241 56.3845C24.9974 56.5905 25.2455 56.6967 25.4955 56.6967C25.6948 56.6967 25.8952 56.6291 26.0596 56.4909C26.43 56.1791 26.4777 55.6259 26.166 55.2555C22.854 51.3192 21.1451 46.3092 21.354 41.1481C21.5642 35.9569 23.7045 31.0736 27.3807 27.3975C30.721 24.057 35.1433 21.9499 39.8326 21.4642C44.4564 20.9851 49.1482 22.0886 53.0442 24.5708C53.4527 24.831 53.9946 24.7109 54.2548 24.3025C54.5151 23.894 54.3949 23.352 53.9866 23.0918Z" fill="#2B2831"/>
<path d="M60.8683 29.9735C60.6081 29.565 60.0659 29.4449 59.6577 29.7051C59.2492 29.9653 59.1292 30.5073 59.3894 30.9156C61.8715 34.8118 62.9748 39.5038 62.496 44.1273C62.0102 48.8166 59.9031 53.2387 56.5628 56.5793C52.8866 60.2554 48.0032 62.3957 42.8122 62.6059C37.652 62.8157 32.6409 61.1061 28.7048 57.7942C28.3343 57.4824 27.7812 57.5301 27.4694 57.9006C27.1575 58.2711 27.2052 58.8242 27.5758 59.136C31.614 62.5338 36.6923 64.3769 41.9658 64.3768C42.2709 64.3768 42.5771 64.3706 42.8834 64.3582C48.5159 64.1302 53.8143 61.8079 57.803 57.8194C61.4272 54.1951 63.7135 49.3967 64.2405 44.3081C64.7598 39.2926 63.5622 34.2018 60.8683 29.9735Z" fill="#2B2831"/>
</g>
<defs>
<clipPath id="clip0">
<rect x="14" y="14" width="56" height="56" fill="white"/>
</clipPath>
</defs>
</svg>
