<svg width="84" height="84" viewBox="0 0 84 84" fill="none" xmlns="http://www.w3.org/2000/svg">
<rect x="3" y="3" width="78" height="78" fill="white" stroke="#FFB71B" stroke-width="6"/>
<path d="M27.0668 50.8667C23.9784 50.8667 21.4668 53.3783 21.4668 56.4667C21.4668 59.5551 23.9784 62.0667 27.0668 62.0667C30.1552 62.0667 32.6668 59.5551 32.6668 56.4667C32.6668 53.3783 30.1551 50.8667 27.0668 50.8667ZM27.0668 60.2C25.0078 60.2 23.3335 58.5256 23.3335 56.4667C23.3335 54.4077 25.0079 52.7334 27.0668 52.7334C29.1257 52.7334 30.8001 54.4078 30.8001 56.4667C30.8001 58.5256 29.1257 60.2 27.0668 60.2Z" fill="#2B2831"/>
<path d="M58.8 50.8667C55.7115 50.8667 53.2 53.3783 53.2 56.4667C53.2 59.5551 55.7115 62.0667 58.8 62.0667C61.8884 62.0667 64.3999 59.5551 64.3999 56.4667C64.3999 53.3783 61.8884 50.8667 58.8 50.8667ZM58.8 60.2C56.741 60.2 55.0667 58.5256 55.0667 56.4667C55.0667 54.4077 56.7411 52.7334 58.8 52.7334C60.8589 52.7334 62.5332 54.4078 62.5332 56.4667C62.5332 58.5256 60.8589 60.2 58.8 60.2Z" fill="#2B2831"/>
<path d="M69.8517 45.6951L61.4517 32.6284C61.28 32.3614 60.9841 32.2 60.6667 32.2H50.4001C49.884 32.2 49.4668 32.6181 49.4668 33.1332V56.4665C49.4668 56.9827 49.884 57.3998 50.4001 57.3998H54.1334V55.5331H51.3334V34.0667H60.1571L68.1334 46.4744V55.5334H63.4667V57.4H69.0667C69.5828 57.4 70 56.9828 70 56.4667V46.2C70.0001 46.0217 69.9488 45.8452 69.8517 45.6951Z" fill="#2B2831"/>
<path d="M55.0668 44.3334V37.8001H62.5335V35.9333H54.1335C53.6174 35.9333 53.2002 36.3515 53.2002 36.8666V45.2667C53.2002 45.7828 53.6174 46.2 54.1335 46.2H68.1335V44.3332H55.0668V44.3334Z" fill="#2B2831"/>
<path d="M50.4 25.6667H14.9333C14.4181 25.6667 14 26.0849 14 26.6V56.4667C14 56.9829 14.4181 57.4 14.9333 57.4H22.4V55.5333H15.8667V27.5333H49.4667V55.5333H31.7333V57.4H50.4C50.9161 57.4 51.3333 56.9829 51.3333 56.4667V26.6C51.3333 26.0849 50.9161 25.6667 50.4 25.6667Z" fill="#2B2831"/>
<path d="M20.5333 51.8H14.9333V53.6667H20.5333V51.8Z" fill="#2B2831"/>
<path d="M49.4668 51.8H33.6001V53.6667H49.4668V51.8Z" fill="#2B2831"/>
<path d="M69.0665 51.8H65.3333V53.6667H69.0665V51.8Z" fill="#2B2831"/>
<path d="M50.4001 29.3999H17.7334V31.2666H50.4001V29.3999Z" fill="#2B2831"/>
<path d="M28 55.5334H26.1333V57.4001H28V55.5334Z" fill="#2B2831"/>
<path d="M59.7334 55.5334H57.8667V57.4001H59.7334V55.5334Z" fill="#2B2831"/>
<path d="M30.8001 21.9333H17.7334V23.8001H30.8001V21.9333Z" fill="#2B2831"/>
<path d="M15.8667 21.9333H14V23.8001H15.8667V21.9333Z" fill="#2B2831"/>
</svg>

