<svg width="84" height="84" viewBox="0 0 84 84" fill="none" xmlns="http://www.w3.org/2000/svg">
<rect x="3" y="3" width="78" height="78" fill="white" stroke="#FFB71B" stroke-width="6"/>
<path d="M54.1333 37.3333C45.3705 37.3333 38.2666 44.4372 38.2666 53.1999C38.2666 61.9627 45.3705 69.0666 54.1333 69.0666C62.896 69.0666 69.9999 61.9627 69.9999 53.1999C69.9904 44.4413 62.8919 37.3428 54.1333 37.3333ZM54.1333 67.1999C46.4014 67.1999 40.1333 60.9318 40.1333 53.1999C40.1333 45.468 46.4014 39.1999 54.1333 39.1999C61.8652 39.1999 68.1333 45.468 68.1333 53.1999C68.1246 60.9282 61.8615 67.1913 54.1333 67.1999Z" fill="#2B2831"/>
<path d="M55.0668 50.5719V44.8H53.2001V50.5719C52.4094 50.854 51.7873 51.476 51.5052 52.2667H47.6001V54.1334H51.5052C51.9368 55.362 53.1604 56.1295 54.4547 55.9832C55.749 55.8365 56.7698 54.8156 56.9166 53.5213C57.0629 52.2271 56.2954 51.0034 55.0668 50.5719ZM54.1334 54.1334C53.618 54.1334 53.2001 53.7155 53.2001 53.2001C53.2001 52.6846 53.618 52.2667 54.1334 52.2667C54.6489 52.2667 55.0668 52.6846 55.0668 53.2001C55.0668 53.7155 54.6489 54.1334 54.1334 54.1334Z" fill="#2B2831"/>
<path d="M42 52.2666H43.8667V54.1333H42V52.2666Z" fill="#2B2831"/>
<path d="M53.2 63.4666H55.0666V65.3332H53.2V63.4666Z" fill="#2B2831"/>
<path d="M64.3999 52.2666H66.2666V54.1333H64.3999V52.2666Z" fill="#2B2831"/>
<path d="M53.2 41.0667H55.0666V42.9333H53.2V41.0667Z" fill="#2B2831"/>
<path d="M15.8667 55.0667V28H58.8V36.4H60.6667V23.3333C60.6635 20.7571 58.5762 18.6699 56 18.6667H49.4667V17.7333C49.4667 16.1871 48.213 14.9333 46.6667 14.9333C45.1204 14.9333 43.8667 16.1871 43.8667 17.7333V18.6667H30.8V17.7333C30.8 16.1871 29.5463 14.9333 28 14.9333C26.4537 14.9333 25.2 16.1871 25.2 17.7333V18.6667H18.6667C16.0904 18.6699 14.0032 20.7571 14 23.3333V55.0667C14.0032 57.6429 16.0904 59.7302 18.6667 59.7333H37.3333V57.8667H18.6667C17.1204 57.8667 15.8667 56.613 15.8667 55.0667ZM45.7333 17.7333C45.7333 17.2179 46.1512 16.8 46.6667 16.8C47.1821 16.8 47.6 17.2179 47.6 17.7333V21.4667C47.6 21.9821 47.1821 22.4 46.6667 22.4C46.1512 22.4 45.7333 21.9821 45.7333 21.4667V17.7333ZM27.0667 17.7333C27.0667 17.2179 27.4846 16.8 28 16.8C28.5154 16.8 28.9333 17.2179 28.9333 17.7333V21.4667C28.9333 21.9821 28.5154 22.4 28 22.4C27.4846 22.4 27.0667 21.9821 27.0667 21.4667V17.7333ZM18.6667 20.5333H25.2V21.4667C25.2 23.013 26.4537 24.2667 28 24.2667C29.5463 24.2667 30.8 23.013 30.8 21.4667V20.5333H43.8667V21.4667C43.8667 23.013 45.1204 24.2667 46.6667 24.2667C48.213 24.2667 49.4667 23.013 49.4667 21.4667V20.5333H56C57.5463 20.5333 58.8 21.7871 58.8 23.3333V26.1333H15.8667V23.3333C15.8667 21.7871 17.1204 20.5333 18.6667 20.5333Z" fill="#2B2831"/>
<path d="M27.0668 35.4668C27.0668 34.4359 26.231 33.6001 25.2001 33.6001H21.4668C20.4359 33.6001 19.6001 34.4359 19.6001 35.4668V39.2001C19.6001 40.231 20.4359 41.0668 21.4668 41.0668H25.2001C26.231 41.0668 27.0668 40.231 27.0668 39.2001V35.4668ZM21.4668 39.2001V35.4668H25.2001V39.2001H21.4668Z" fill="#2B2831"/>
<path d="M36.4 35.4668C36.4 34.4359 35.5642 33.6001 34.5333 33.6001H30.8C29.7692 33.6001 28.9333 34.4359 28.9333 35.4668V39.2001C28.9333 40.231 29.7692 41.0668 30.8 41.0668H34.5333C35.5642 41.0668 36.4 40.231 36.4 39.2001V35.4668ZM30.8 39.2001V35.4668H34.5333V39.2001H30.8Z" fill="#2B2831"/>
<path d="M45.7333 38.2668V35.4668C45.7333 34.4359 44.8975 33.6001 43.8666 33.6001H40.1333C39.1024 33.6001 38.2666 34.4359 38.2666 35.4668V39.2001C38.2666 40.231 39.1024 41.0668 40.1333 41.0668H41.9999V39.2001H40.1333V35.4668H43.8666V38.2668H45.7333Z" fill="#2B2831"/>
<path d="M25.2001 44.8H21.4668C20.4359 44.8 19.6001 45.6359 19.6001 46.6667V50.4C19.6001 51.4309 20.4359 52.2667 21.4668 52.2667H25.2001C26.231 52.2667 27.0668 51.4309 27.0668 50.4V46.6667C27.0668 45.6359 26.231 44.8 25.2001 44.8ZM21.4668 50.4V46.6667H25.2001V50.4H21.4668Z" fill="#2B2831"/>
<path d="M34.5333 44.8H30.8C29.7692 44.8 28.9333 45.6359 28.9333 46.6667V50.4C28.9333 51.4309 29.7692 52.2667 30.8 52.2667H34.5333C35.5642 52.2667 36.4 51.4309 36.4 50.4V46.6667C36.4 45.6359 35.5642 44.8 34.5333 44.8ZM30.8 50.4V46.6667H34.5333V50.4H30.8Z" fill="#2B2831"/>
<path d="M55.0668 36.4001V35.4668C55.0668 34.4359 54.231 33.6001 53.2001 33.6001H49.4668C48.4359 33.6001 47.6001 34.4359 47.6001 35.4668V36.4001H49.4668V35.4668H53.2001V36.4001H55.0668Z" fill="#2B2831"/>
</svg>

