<svg width="84" height="84" viewBox="0 0 84 84" fill="none" xmlns="http://www.w3.org/2000/svg">
<rect x="3" y="3" width="78" height="78" fill="white" stroke="#FFB71B" stroke-width="6"/>
<path fill-rule="evenodd" clip-rule="evenodd" d="M24.1644 56.6673C22.8397 56.6673 21.6358 56.1252 20.7633 55.2532C19.8909 54.3807 19.3493 53.1768 19.3493 51.8517V39.1763C19.3493 36.8584 20.2891 34.7594 21.8082 33.2408C23.3273 31.7217 25.4262 30.7819 27.7437 30.7819C30.0617 30.7819 32.1606 31.7217 33.6792 33.2408C35.1984 34.7599 36.1381 36.8584 36.1381 39.1763C36.1381 41.4943 35.1984 43.5928 33.6792 45.1124C32.1601 46.6315 30.0617 47.5712 27.7437 47.5712C27.3863 47.5712 27.0244 47.5467 26.6601 47.4995C26.2923 47.4519 25.9364 47.3817 25.5942 47.2914L25.2048 47.1883V46.7876V42.1095V41.129L26.0184 41.6774C26.2653 41.8439 26.5349 41.9745 26.8187 42.0609C27.0927 42.1444 27.3887 42.1895 27.7 42.1895C28.5327 42.1895 29.2869 41.8527 29.8319 41.3082C30.3764 40.7632 30.7132 40.0095 30.7132 39.1763C30.7132 38.3436 30.3764 37.5895 29.8319 37.045C29.2869 36.5005 28.5327 36.1636 27.7 36.1636C26.8673 36.1636 26.1136 36.5005 25.5681 37.045C25.0236 37.59 24.6868 38.3441 24.6868 39.1763V56.1453V56.6673H24.1644ZM21.5013 54.5153C22.0684 55.0823 22.8137 55.4712 23.643 55.5871V39.1763C23.643 38.0579 24.0971 37.044 24.8312 36.3095L24.8331 36.3075C25.5672 35.5735 26.581 35.1193 27.7 35.1193C28.8185 35.1193 29.8324 35.5735 30.5669 36.3075L30.5688 36.3095C31.3029 37.0435 31.757 38.0574 31.757 39.1763C31.757 40.2953 31.3029 41.3087 30.5688 42.0427L30.5669 42.0447C29.8329 42.7787 28.819 43.2329 27.7 43.2329C27.293 43.2329 26.8953 43.1705 26.5167 43.0551C26.4259 43.0276 26.336 42.9967 26.2482 42.9628V46.3752C26.4284 46.4125 26.609 46.4434 26.7902 46.467C27.0922 46.5063 27.4103 46.5264 27.7432 46.5264C29.773 46.5264 31.6112 45.7035 32.9408 44.3734C34.2709 43.0433 35.0938 41.2056 35.0938 39.1754C35.0938 37.1451 34.2709 35.3074 32.9408 33.9778C31.6107 32.6477 29.773 31.8248 27.7432 31.8248C25.7135 31.8248 23.8757 32.6477 22.5456 33.9778C21.2155 35.3078 20.3926 37.1456 20.3926 39.1754V51.8512C20.3931 52.8886 20.8174 53.8313 21.5013 54.5153ZM55.5419 37.724H69.4781H70V38.2459V42.6633V43.1852H69.4781H66.4227V48.5738V49.0957H65.9007H59.1192H58.5973V48.5738V43.1852H55.5419H55.02V42.6633V38.2459V37.724H55.5419ZM68.9562 38.7678H56.0638V42.1414H59.1192H59.6412V42.6633V48.0519H65.3788V42.6633V42.1414H65.9007H68.9562V38.7678ZM61.7303 27.728C59.5106 26.53 56.5504 25.1405 53.1061 24.0343C49.5308 22.8859 45.4315 22.0443 41.0976 22.0443C33.8157 22.0443 26.8427 23.9435 21.9481 28.0074C17.7266 31.5125 15.0438 36.6478 15.0438 43.5888C15.0438 50.578 17.5867 55.6941 21.6781 59.1556C26.3626 63.1188 33.0901 64.9414 40.3778 64.9414C45.2469 64.9414 49.6849 63.9908 53.386 62.7633C56.9294 61.5879 59.8002 60.1592 61.7303 59.0652V51.5124C60.0963 52.431 57.9085 53.4974 55.4393 54.2761C53.3659 54.9296 51.0921 55.3833 48.7727 55.3833C42.9864 55.3833 39.3447 52.3672 37.7461 48.4938C37.1225 46.9835 36.8132 45.3412 36.8117 43.6983C36.8103 42.0565 37.1166 40.4121 37.7235 38.897C39.2912 34.9828 42.8509 31.9141 48.291 31.8921C51.0538 31.8808 53.7758 32.4238 56.2229 33.1824C58.3032 33.8275 60.1886 34.6303 61.7303 35.38V27.728ZM53.4243 23.043C49.7537 21.8641 45.5454 21 41.0976 21C33.5904 21 26.3788 22.9767 21.2833 27.2075C16.83 30.9052 14 36.3055 14 43.5883C14 50.9153 16.6847 56.2951 21.0054 59.95C25.8912 64.0836 32.8578 65.9842 40.3778 65.9842C45.3633 65.9842 49.9147 65.0086 53.712 63.7492C57.5024 62.4918 60.5406 60.9506 62.511 59.815L62.7741 59.6633V59.3642V50.6109V49.6962L61.9871 50.1646C60.3595 51.1328 57.935 52.3971 55.1295 53.2814C53.1483 53.9059 50.9787 54.3395 48.7727 54.3395C43.4774 54.3395 40.1563 51.6071 38.7079 48.0981C38.1359 46.7125 37.8521 45.2057 37.8512 43.6978C37.8502 42.189 38.1315 40.6778 38.6898 39.2839C40.1117 35.734 43.3463 32.9511 48.2949 32.931C50.9365 32.9202 53.5554 33.4441 55.9165 34.1766C58.2895 34.9126 60.3992 35.8573 62.0156 36.6831L62.7741 37.0705V36.2206V27.4197V27.1123L62.5007 26.963C60.2078 25.7076 57.0836 24.2184 53.4243 23.043Z" fill="#2B2831" stroke="#2B2831"/>
</svg>
