<svg width="84" height="84" viewBox="0 0 84 84" fill="none" xmlns="http://www.w3.org/2000/svg">
<rect x="3" y="3" width="78" height="78" fill="white" stroke="#FFB71B" stroke-width="6"/>
<g clip-path="url(#clip0)">
<path d="M61.2132 23.2093C59.4799 22.9901 57.7858 22.6056 56.179 22.0669C55.7492 21.9229 55.2843 22.1544 55.1403 22.5838C54.9963 23.0136 55.2279 23.4785 55.6573 23.6225C57.3667 24.1958 59.1667 24.6043 61.0077 24.8371C63.7686 25.1866 65.739 27.7347 65.3998 30.5169C64.955 34.1656 64.1407 39.6117 62.7872 44.8361C61.3128 50.5266 59.5824 54.4859 57.644 56.6042C53.6633 60.954 48.6727 64.8095 45.1872 67.2777C43.3556 68.5748 40.8946 68.5748 39.0635 67.2777C35.578 64.8095 30.5873 60.954 26.6066 56.6042C24.6682 54.4859 22.9374 50.5266 21.4634 44.8361C20.1099 39.6117 19.2956 34.1656 18.8504 30.5169C18.5116 27.7347 20.4816 25.1866 23.2429 24.8371C31.2021 23.8305 36.4773 19.8315 39.5014 16.6541C40.1905 15.9303 41.1224 15.5313 42.1251 15.5313C43.1279 15.5313 44.0597 15.9303 44.7493 16.6541C46.9278 18.9432 49.446 20.8099 52.2338 22.2023C52.6388 22.4048 53.1318 22.2403 53.3344 21.8349C53.5364 21.4294 53.372 20.9368 52.9669 20.7347C50.3496 19.4273 47.9848 17.6739 45.9374 15.5231C44.9355 14.4704 43.5816 13.8906 42.1251 13.8906C40.6686 13.8906 39.3147 14.4704 38.3128 15.5231C35.4724 18.5075 30.5168 22.2634 23.037 23.2093C19.3823 23.6716 16.7736 27.0392 17.2217 30.7156C17.9857 36.9816 20.3116 52.1557 25.3963 57.7121C29.4747 62.1687 34.5641 66.1019 38.115 68.6167C39.3142 69.4661 40.7195 69.8907 42.1251 69.8907C43.5303 69.8903 44.936 69.4661 46.1352 68.6167C49.6861 66.1019 54.7755 62.1687 58.854 57.7121C63.9391 52.1557 66.2646 36.9816 67.0285 30.7156C67.4767 27.0392 64.8679 23.6716 61.2132 23.2093Z" fill="#2B2831"/>
<path d="M40.2743 21.5964C36.1244 25.1874 31.2799 27.5377 25.8756 28.5819C24.229 28.9002 23.1173 30.4571 23.3446 32.1267C23.727 34.9342 24.5089 40.1846 25.4467 43.8043C27.1561 50.4035 28.8091 52.9162 29.6423 53.8262C32.3809 56.8186 37.4626 60.8172 40.2478 62.9342C40.8007 63.3542 41.4629 63.564 42.1251 63.564C42.7874 63.564 43.4496 63.3542 44.0025 62.9342C46.7877 60.8172 51.8694 56.8186 54.608 53.8262C55.4411 52.9162 57.0942 50.4035 58.8036 43.8043C59.7418 40.1838 60.5232 34.9338 60.9061 32.1267C61.1334 30.4571 60.0212 28.9002 58.3746 28.5819C52.9704 27.5377 48.1258 25.1874 43.976 21.5964C42.9207 20.6834 41.3296 20.6834 40.2743 21.5964ZM59.2804 31.905C58.9027 34.6766 58.1324 39.8539 57.2155 43.3928C55.4873 50.0639 53.8565 52.2172 53.398 52.7188C50.647 55.7245 45.2167 59.9504 43.0095 61.6277C42.4887 62.0238 41.7615 62.0238 41.2407 61.6277C39.0336 59.9504 33.6033 55.724 30.8526 52.7188C30.3938 52.2172 28.763 50.0639 27.0348 43.3928C26.1183 39.8548 25.348 34.677 24.9703 31.905C24.8601 31.0979 25.3946 30.346 26.1867 30.1926C31.8772 29.0933 36.9781 26.6187 41.348 22.8371C41.5693 22.6453 41.8474 22.5492 42.1251 22.5492C42.4028 22.5492 42.681 22.6453 42.9023 22.8371C47.2722 26.6187 52.3731 29.0933 58.0636 30.1926C58.8557 30.346 59.3902 31.0979 59.2804 31.905Z" fill="#2B2831"/>
<path d="M37.5759 39.4916C36.9589 38.9892 34.8765 37.9518 33.3854 39.9218C31.8948 41.8915 33.1987 43.6098 33.8157 44.1123L36.1946 46.0477C36.5458 46.3335 37.0627 46.281 37.3486 45.9294C37.6344 45.5777 37.5814 45.0612 37.2302 44.7749L34.8513 42.8395C34.5745 42.6139 33.9695 41.8795 34.6582 40.9571C35.3469 40.0351 36.2634 40.5384 36.5402 40.7639L41.466 44.772C41.7911 45.0364 42.2632 45.0133 42.561 44.7181L49.7691 37.5775C50.2933 37.058 51.1418 37.0623 51.6614 37.5865C52.1805 38.1103 52.1762 38.9593 51.6524 39.4784L43.0669 47.984C42.3871 48.6394 41.6386 48.3664 41.281 48.0712L39.918 46.9624C39.5664 46.6766 39.0499 46.7296 38.7636 47.0808C38.4778 47.432 38.5308 47.949 38.8824 48.2348L40.2453 49.3439C40.7747 49.7746 41.442 50.0121 42.1248 50.0121C42.9156 50.0121 43.6603 49.7058 44.2217 49.1495L52.8068 40.6443C53.9736 39.4882 53.9826 37.5985 52.8265 36.4317C51.6708 35.2653 49.781 35.2563 48.6142 36.412L41.9295 43.0343L37.5759 39.4916Z" fill="#2B2831"/>
</g>
<defs>
<clipPath id="clip0">
<rect x="14" y="14" width="56" height="56" fill="white"/>
</clipPath>
</defs>
</svg>

