<svg width="84" height="84" viewBox="0 0 84 84" fill="none" xmlns="http://www.w3.org/2000/svg">
<rect x="3" y="3" width="78" height="78" fill="white" stroke="#FFB71B" stroke-width="6"/>
<g clip-path="url(#clip0)">
<path d="M18.5108 43.1629C18.5727 43.1629 18.6356 43.1557 18.6985 43.1411C19.1397 43.0378 19.4136 42.5964 19.3103 42.1553C19.2332 41.8259 19.0728 41.1406 19.2982 40.8459C19.4588 40.6359 19.8854 40.5084 20.4993 40.4869C22.937 40.4013 23.6846 39.2748 24.4074 38.1854C24.7948 37.6017 25.1952 36.9982 25.9245 36.433C26.6427 35.8766 26.9505 35.8662 27.0004 35.869C27.0457 35.9171 27.3664 36.3282 27.2479 38.1363C27.1857 39.0847 27.3688 39.7816 27.8077 40.2666C28.4217 40.9451 29.316 40.9756 30.0346 41.0002C30.358 41.0113 30.6634 41.0218 30.8848 41.0835C31.5826 41.2778 32.1948 41.2164 32.6866 41.1671C32.9897 41.1366 33.3032 41.1052 33.3697 41.178C33.6974 41.5355 34.0716 41.709 34.4823 41.6998C35.2564 41.6784 35.7809 41.039 36.575 40.071C36.6476 39.9825 36.723 39.8907 36.8013 39.7958C36.8443 39.7437 36.8754 39.7161 36.8929 39.7026C37.0062 39.7279 37.2578 39.8809 37.4281 39.9844C38.0347 40.3531 38.9513 40.9103 40.093 40.4211C41.3496 39.8827 41.6746 39.4836 42.29 38.632C42.5127 38.3238 42.7899 37.9402 43.2119 37.4372C43.955 36.5512 45.0303 36.2936 45.4741 36.4988C45.5443 36.5313 45.7581 36.6301 45.657 37.222C45.5125 38.0681 45.6756 38.7048 46.1416 39.1144C46.9491 39.824 48.2081 39.4374 49.1274 39.1551C49.3376 39.0905 49.576 39.0173 49.6801 39.0017C49.7598 38.9946 49.999 39.0529 50.1577 39.0921C50.9531 39.2885 52.6081 39.6966 53.4294 37.3498C53.9837 35.7662 54.3894 35.7066 55.5941 35.5297C55.722 35.5109 55.8545 35.4914 55.9919 35.4694C58.6636 35.0419 59.1627 33.2926 59.5637 31.8868C59.6776 31.4877 59.7851 31.1107 59.9348 30.7656C60.179 30.2019 60.6302 29.9126 61.2013 29.5463C61.9349 29.0758 62.8479 28.4904 63.2325 27.1823C63.4171 26.5551 63.9454 26.1955 64.2294 26.103C64.2211 26.263 64.168 26.5483 63.9926 26.9789C63.3754 28.4936 63.2485 29.3298 63.5398 29.9618C63.8066 30.5405 64.3405 30.7174 64.6596 30.8231C64.7827 30.8639 64.899 30.9024 64.9552 30.9411C64.9552 30.9411 64.9602 30.9455 64.9694 30.9557C65.2705 31.2943 65.7891 31.3244 66.1278 31.0232C66.4662 30.722 66.4964 30.2034 66.1951 29.865C66.1018 29.7601 66.0009 29.6697 65.8945 29.596C65.639 29.4191 65.382 29.334 65.1757 29.2656C65.1311 29.2509 65.0771 29.2329 65.0323 29.2165C65.0348 29.0547 65.0962 28.6187 65.512 27.598C65.9915 26.4214 65.99 25.5311 65.5082 24.9519C65.1516 24.5232 64.5886 24.3517 63.9639 24.4807C63.0923 24.6609 62.0205 25.4879 61.6583 26.7194C61.4463 27.4398 60.9721 27.7441 60.3155 28.1652C59.639 28.599 58.8723 29.0907 58.4292 30.1133C58.2367 30.5572 58.1092 31.0044 57.9858 31.4368C57.6164 32.7316 57.3725 33.587 55.7326 33.8494C55.6024 33.8703 55.4769 33.8886 55.3557 33.9064C54.0224 34.1022 52.7629 34.287 51.8806 36.8079C51.5522 37.7465 51.32 37.6891 50.5507 37.4991C50.1951 37.4114 49.8275 37.3207 49.4387 37.3788C49.2114 37.4129 48.9491 37.4933 48.6456 37.5865C48.3367 37.6814 47.5501 37.9225 47.2514 37.8756C47.2438 37.8148 47.2403 37.6972 47.2743 37.4981C47.47 36.3524 47.0546 35.4222 46.1633 35.0095C44.9287 34.438 43.0798 35.0412 41.9547 36.3827C41.4949 36.9311 41.1984 37.3412 40.9603 37.6708C40.4581 38.3655 40.3388 38.5306 39.4468 38.9129C39.1148 39.0552 38.8498 38.9284 38.2806 38.5823C37.7175 38.24 36.5463 37.5279 35.5364 38.7505C35.4568 38.8469 35.3802 38.9402 35.3065 39.0301C35.0278 39.3699 34.6951 39.7755 34.4828 39.971C33.8765 39.3985 33.1294 39.4735 32.523 39.5342C32.1129 39.5753 31.7258 39.6142 31.3251 39.5026C30.9151 39.3884 30.496 39.3741 30.0907 39.3602C29.6602 39.3455 29.1722 39.3288 29.0243 39.1653C28.9684 39.1035 28.8428 38.89 28.8853 38.2435C28.9732 36.9023 28.9532 35.0464 27.7688 34.417C26.6292 33.8115 25.3422 34.8083 24.9195 35.1359C23.9771 35.8663 23.4577 36.6491 23.0403 37.2781C22.3929 38.2536 22.0364 38.7909 20.4417 38.8468C19.2959 38.8871 18.4727 39.2242 17.9948 39.8489C17.2984 40.7595 17.5783 41.9547 17.7127 42.5292C17.8012 42.9075 18.1383 43.1629 18.5108 43.1629ZM68.3728 38.0261C68.1419 37.7401 67.9155 37.4823 67.6966 37.2329C66.7028 36.1008 66.4058 35.6755 66.6936 34.969C66.7591 34.8086 66.8169 34.6366 66.8654 34.4581C66.984 34.0209 66.7259 33.5701 66.2887 33.4513C65.8518 33.3328 65.4006 33.5907 65.282 34.028C65.2509 34.1423 65.2147 34.2504 65.1743 34.3495C64.4794 36.055 65.488 37.2041 66.4635 38.3153C66.6714 38.5522 66.8866 38.7972 67.0963 39.0569C67.818 39.9504 68.298 41.4115 68.3615 42.1078C66.6643 41.6666 65.7168 40.8797 65.5432 39.7656L65.4978 39.4697C65.2978 38.155 65.091 36.7956 63.9385 36.5076C63.2145 36.3268 62.2806 36.5671 61.6671 37.0924C61.128 37.5542 60.8666 38.1987 60.931 38.907C60.951 39.1277 60.9807 39.3593 61.0121 39.6044C61.1218 40.4601 61.2875 41.753 60.8102 42.0795C59.6298 42.8872 59.5031 44.1433 59.3689 45.4732C59.3399 45.761 59.31 46.0585 59.2688 46.3664C59.1519 47.2443 59.467 47.7102 59.7521 47.9464C60.4703 48.5415 61.4999 48.2012 62.3271 47.9275C62.5112 47.8667 62.6849 47.8092 62.813 47.7771C63.1103 47.7028 63.5296 48.2276 64.131 49.43C64.3068 49.7818 64.5021 50.0835 64.6744 50.3497C65.2434 51.2289 65.6928 51.9232 65.1877 54.2937C64.9673 55.3274 64.6474 55.6655 64.5448 55.7207C64.4667 55.6699 64.3247 55.4363 64.4109 55.1562C64.7752 53.9725 64.7664 53.0541 64.3847 52.4266C64.1361 52.0179 63.7495 51.7556 63.2667 51.668C62.7792 51.5796 62.4722 51.647 62.1339 51.9168C62.0484 51.985 61.8211 52.1663 60.6753 52.3619C59.3891 52.5816 59.1403 52.3775 58.5387 51.8845C58.2654 51.6605 57.9253 51.3817 57.4535 51.1096C56.6542 50.6487 56.0745 50.7736 55.7286 50.9597C54.7158 51.5048 54.5731 53.0557 54.424 55.541C54.403 55.8908 54.3279 56.1348 54.2127 56.228C53.9516 56.4391 53.1203 56.3124 52.4521 56.2108C51.6592 56.0899 50.7604 55.9532 49.9398 56.1408C48.8235 56.396 48.0173 56.1056 47.3693 55.8721C46.9842 55.7334 46.6517 55.6137 46.2964 55.6137C45.4392 55.6137 45.2023 56.4462 45.1011 56.8017C45.0659 56.9255 45.0019 57.1504 44.9482 57.2222C44.9077 57.2284 44.7575 57.2381 44.4303 57.123C42.7702 56.5397 41.7785 57.1618 41.1223 57.5733C40.7687 57.7952 40.5576 57.9207 40.3322 57.9207C39.5933 57.9207 37.824 57.733 37.3543 55.995C36.8832 54.2522 35.5255 54.1196 34.7961 54.0483C34.7161 54.0405 34.6198 54.0311 34.5391 54.0201C34.2462 52.3124 32.4699 52.2296 30.2422 52.126C28.7709 52.0575 28.0932 52.4538 27.9022 53.494C27.8955 53.5299 27.8873 53.5751 27.8799 53.6065C27.8514 53.6209 27.7955 53.6444 27.6981 53.6687C26.6631 53.9273 25.5989 52.6193 25.4705 52.2225C25.2519 51.5469 24.4902 50.4837 21.845 50.9562C20.3723 51.2191 20.2769 52.6585 20.2257 53.4318C20.2181 53.5455 20.2084 53.6928 20.1945 53.8146C19.1975 53.9014 18.7367 54.944 18.425 55.6901C18.2049 54.9366 17.7638 53.9255 16.4218 53.1838C16.0755 52.9923 15.6584 52.6768 15.6383 52.2601C15.6276 52.0344 15.7306 51.841 15.8096 51.746C16.4144 51.7613 18.2029 51.7061 18.948 50.5774C19.2607 50.1037 19.4932 49.2847 18.8254 48.0722C18.4918 47.4666 18.3793 46.8431 18.4816 46.1664C18.5493 45.7183 18.2409 45.3002 17.793 45.2325C17.3453 45.1652 16.9269 45.4732 16.8592 45.9211C16.7032 46.9533 16.8812 47.9434 17.3882 48.8639C17.5947 49.2387 17.6659 49.5412 17.5788 49.6733C17.3478 50.0232 16.2603 50.1522 15.7691 50.1033C14.9995 50.0266 14.3377 50.775 14.1058 51.5185C13.9648 51.9708 13.6579 53.531 15.6282 54.6199C16.6047 55.1596 16.7758 55.8376 16.9413 56.4932C17.0728 57.014 17.2714 57.8011 18.1147 57.9699C19.1655 58.18 19.6157 57.0988 19.9137 56.3834C20.0304 56.1035 20.2415 55.5969 20.3915 55.4545C20.8314 55.4813 21.1299 55.3138 21.3045 55.1653C21.7822 54.759 21.8251 54.1115 21.8629 53.5402C21.9161 52.7381 21.9862 52.5977 22.1334 52.5714C23.3218 52.3592 23.8535 52.5547 23.9094 52.7276C24.2731 53.8516 26.081 55.764 28.096 55.2604C29.3015 54.9592 29.4463 54.1695 29.516 53.79C29.5163 53.7884 29.5165 53.7867 29.5169 53.7851C29.62 53.767 29.8171 53.7487 30.1659 53.7649C31.2051 53.8132 32.1048 53.8659 32.5908 54.0219C32.9072 54.1234 32.9146 54.1977 32.9325 54.3773C33.0474 55.526 34.1207 55.6308 34.6366 55.6811C35.3184 55.7476 35.6019 55.7996 35.7703 56.4228C36.5574 59.3349 39.461 59.5613 40.3322 59.5613C41.0407 59.5613 41.5694 59.2296 41.9942 58.9631C42.5831 58.5937 42.972 58.3497 43.8863 58.671C44.6234 58.9298 45.2196 58.9326 45.7089 58.6793C46.3154 58.3652 46.5284 57.7674 46.6487 57.3571C46.7055 57.377 46.7619 57.3973 46.8132 57.4158C47.5726 57.6893 48.7202 58.1023 50.3054 57.7403C50.8222 57.6222 51.5252 57.7292 52.2052 57.8328C53.2944 57.9985 54.4204 58.1698 55.2442 57.5039C55.7363 57.106 56.0114 56.4786 56.0618 55.6392C56.1195 54.6758 56.224 52.9346 56.4872 52.4575C56.5233 52.4723 56.5716 52.4953 56.6334 52.5309C56.9889 52.736 57.248 52.9483 57.4986 53.1537C58.362 53.8612 59.0683 54.3007 60.9513 53.9795C62.172 53.7711 62.6837 53.5345 63.0008 53.3161C63.0512 53.4513 63.0917 53.8636 62.8425 54.6738C62.6059 55.4428 62.8037 56.2957 63.3469 56.8467C63.7954 57.3015 64.4085 57.4722 64.9882 57.3029C65.5893 57.1275 66.3901 56.5222 66.7921 54.6359C67.4387 51.6017 66.7335 50.5121 66.0515 49.4584C65.888 49.2056 65.7334 48.9668 65.5982 48.6964C65.0486 47.5971 64.1282 45.7576 62.4148 46.1855C62.2275 46.2323 62.0254 46.2992 61.8115 46.3698C61.5813 46.446 61.1579 46.586 60.8898 46.6258C60.8912 46.6124 60.8928 46.5983 60.8949 46.5833C60.9394 46.2494 60.9707 45.9385 61.0011 45.6378C61.1256 44.4039 61.2087 43.7947 61.7364 43.4337C63.0421 42.5403 62.8093 40.7229 62.6392 39.3958C62.6097 39.166 62.582 38.949 62.5645 38.7583C62.5483 38.5797 62.599 38.4541 62.7339 38.3385C62.9692 38.137 63.3324 38.0748 63.4979 38.0923C63.6617 38.3143 63.7893 39.1533 63.875 39.7163L63.9213 40.018C64.1281 41.3456 65.0704 43.0793 68.385 43.7997C68.9576 43.9245 69.4724 43.7186 69.7619 43.2495C70.5226 42.0177 69.2947 39.1674 68.3728 38.0261Z" fill="#2B2831"/>
</g>
<defs>
<clipPath id="clip0">
<rect x="14" y="14" width="56" height="56" fill="white"/>
</clipPath>
</defs>
</svg>

