<svg width="104" height="104" viewBox="0 0 104 104" fill="none" xmlns="http://www.w3.org/2000/svg">
<rect x="3" y="3" width="98" height="98" fill="white" stroke="#FFB71B" stroke-width="6"/>
<rect x="21" y="28" width="62" height="48" rx="3" fill="white" stroke="#2B2831" stroke-width="2"/>
<rect x="27" y="34" width="50" height="36" rx="1" fill="#FFB71B" stroke="#2B2831" stroke-width="2"/>
<g clip-path="url(#clip0)">
<path d="M57.0001 63.9979C57.0001 64.5804 56.5279 65.0525 55.9454 65.0525H31.0549C30.4724 65.0525 30.0003 64.5804 30.0003 63.9979C30.0003 63.4153 30.4724 62.9432 31.0549 62.9432H42.4598L42.4472 58.428L39.56 56.9844L37.0123 59.5319C36.6753 59.8689 36.1479 59.9416 35.7294 59.6938L30.5177 56.6087C30.0163 56.3118 29.8505 55.665 30.1473 55.1638C30.444 54.6626 31.091 54.4968 31.5922 54.7934L36.0995 57.4619L38.5142 55.047L41.1355 50.6822L39.217 48.7669L36.824 50.3569C36.3391 50.6793 35.6844 50.5473 35.3621 50.0622C35.0397 49.5771 35.1715 48.9224 35.6566 48.6L38.768 46.5327C39.1859 46.255 39.7417 46.3102 40.0968 46.6647L45.7112 52.2698L48.1001 50.6754C48.5846 50.352 49.2395 50.4828 49.5629 50.9673C49.8863 51.4518 49.7557 52.1067 49.2712 52.4301L46.1633 54.5042C45.7437 54.7842 45.1871 54.7273 44.8326 54.3734L42.6736 52.2181L40.8425 55.2674L43.9718 56.832C44.3281 57.0101 44.5537 57.3741 44.5547 57.7725L44.5692 62.9434H50.7424V40.1621H36.2579V45.3336C36.2579 45.9161 35.7858 46.3883 35.2032 46.3883C34.6209 46.3883 34.1486 45.9161 34.1486 45.3336V39.1074C34.1486 38.5249 34.6209 38.0527 35.2032 38.0527H51.7971C52.3794 38.0527 52.8518 38.5249 52.8518 39.1074V62.9432H55.9454C56.5279 62.9432 57.0001 63.4153 57.0001 63.9979ZM45.5777 48.4657C43.8507 48.4657 42.4456 47.0606 42.4456 45.3334C42.4456 43.6063 43.8507 42.2012 45.5777 42.2012C47.305 42.2012 48.71 43.6063 48.71 45.3334C48.71 47.0606 47.305 48.4657 45.5777 48.4657ZM45.5777 46.3563C46.1419 46.3563 46.6007 45.8976 46.6007 45.3334C46.6007 44.7694 46.1419 44.3106 45.5777 44.3106C45.0137 44.3106 44.5549 44.7694 44.5549 45.3334C44.5549 45.8976 45.0137 46.3563 45.5777 46.3563Z" fill="#2B2831"/>
</g>
<path d="M72.7071 52.7071C73.0976 52.3166 73.0976 51.6834 72.7071 51.2929L66.3431 44.9289C65.9526 44.5384 65.3195 44.5384 64.9289 44.9289C64.5384 45.3195 64.5384 45.9526 64.9289 46.3431L70.5858 52L64.9289 57.6569C64.5384 58.0474 64.5384 58.6805 64.9289 59.0711C65.3195 59.4616 65.9526 59.4616 66.3431 59.0711L72.7071 52.7071ZM58 53H72V51H58V53Z" fill="#2B2831"/>
<defs>
<clipPath id="clip0">
<rect x="30" y="38" width="27" height="27" fill="white"/>
</clipPath>
</defs>
</svg>
