<svg width="104" height="104" viewBox="0 0 104 104" fill="none" xmlns="http://www.w3.org/2000/svg">
<rect x="3" y="3" width="98" height="98" fill="white" stroke="#FFB71B" stroke-width="6"/>
<rect x="21" y="21" width="62" height="62" rx="31" fill="white" stroke="#2B2831" stroke-width="2"/>
<path fill-rule="evenodd" clip-rule="evenodd" d="M45.7861 20.7999L20.7856 46.2999L22.2138 47.7001L47.2143 22.2001L45.7861 20.7999ZM59.3026 21.7837L21.3023 58.7835L22.6976 60.2164L60.6978 23.2166L59.3026 21.7837ZM25.2936 68.293L68.2936 25.293L69.7078 26.7072L26.7078 69.7072L25.2936 68.293ZM75.7937 31.793L31.7937 75.793L33.2079 77.2072L77.2079 33.2072L75.7937 31.793ZM40.8023 80.2841L80.8023 41.2841L82.1985 42.7161L42.1985 81.7161L40.8023 80.2841ZM82.3056 54.2806L53.3056 82.2806L54.6948 83.7194L83.6948 55.7194L82.3056 54.2806Z" fill="#2B2831"/>
<rect x="33" y="33" width="38" height="38" rx="19" fill="#FFB71B" stroke="#2B2831" stroke-width="2"/>
<circle cx="52" cy="33.625" r="2.125" fill="white" stroke="#2B2831"/>
<circle cx="52" cy="70.375" r="2.125" fill="white" stroke="#2B2831"/>
<circle cx="70.375" cy="52" r="2.125" transform="rotate(90 70.375 52)" fill="white" stroke="#2B2831"/>
<circle cx="33.625" cy="52" r="2.125" transform="rotate(90 33.625 52)" fill="white" stroke="#2B2831"/>
<circle cx="64.993" cy="64.9931" r="2.125" transform="rotate(135 64.993 64.9931)" fill="white" stroke="#2B2831"/>
<circle cx="39.0067" cy="39.0069" r="2.125" transform="rotate(135 39.0067 39.0069)" fill="white" stroke="#2B2831"/>
<circle cx="39.0071" cy="64.9932" r="2.125" transform="rotate(-135 39.0071 64.9932)" fill="white" stroke="#2B2831"/>
<circle cx="64.9929" cy="39.0065" r="2.125" transform="rotate(-135 64.9929 39.0065)" fill="white" stroke="#2B2831"/>
<path d="M51.354 55.12V54.62H50.854H47.8979L49.2357 53.357C49.8973 52.7431 50.3833 52.1613 50.6468 51.6124C50.9041 51.0763 51.032 50.5028 51.032 49.898C51.032 49.2199 50.8532 48.6083 50.4799 48.0856C50.1216 47.5616 49.6191 47.1707 48.9958 46.9056C48.3784 46.6298 47.6729 46.5 46.892 46.5C45.9615 46.5 45.1156 46.6752 44.3659 47.0391C43.6206 47.3915 43.0217 47.8914 42.585 48.5411L42.3006 48.9643L42.7293 49.2404L44.3813 50.3044L44.7819 50.5624L45.0589 50.1746C45.2445 49.9147 45.4671 49.7306 45.7288 49.6103L45.7288 49.6104L45.7387 49.6056C46.0082 49.4745 46.3194 49.404 46.682 49.404C47.1369 49.404 47.3908 49.5008 47.5266 49.6124L47.5341 49.6185L47.5418 49.6243C47.6676 49.7198 47.75 49.8591 47.75 50.122C47.75 50.3029 47.704 50.501 47.5944 50.7212C47.4921 50.9174 47.2698 51.1972 46.8838 51.5653C46.8835 51.5656 46.8832 51.5659 46.883 51.5661L43.1047 55.1345L42.948 55.2825V55.498V56.968V57.468H43.448H50.854H51.354V56.968V55.12ZM53.2408 55.0082L53.2408 55.0083L53.244 55.0149C53.6437 55.8451 54.2024 56.4995 54.9252 56.9566C55.6464 57.4126 56.4639 57.636 57.3625 57.636C58.2611 57.636 59.0786 57.4126 59.7997 56.9566C60.5235 56.4989 61.0782 55.8433 61.4686 55.0115C61.8709 54.165 62.0625 53.1787 62.0625 52.068C62.0625 50.9585 61.8713 49.9765 61.4686 49.1384C61.0787 48.2985 60.5244 47.6377 59.7997 47.1794C59.0786 46.7234 58.2611 46.5 57.3625 46.5C56.4639 46.5 55.6464 46.7234 54.9252 47.1794C54.2008 47.6375 53.6421 48.2979 53.2429 49.1372L53.2418 49.1396C52.8489 49.9772 52.6625 50.9586 52.6625 52.068C52.6625 53.1776 52.849 54.1627 53.2408 55.0082ZM58.3476 54.1689L58.3476 54.1689L58.3441 54.1742C58.0975 54.551 57.7857 54.718 57.3625 54.718C56.952 54.718 56.637 54.5535 56.3791 54.1716C56.124 53.78 55.9585 53.1058 55.9585 52.068C55.9585 51.0302 56.124 50.356 56.3791 49.9644C56.637 49.5825 56.952 49.418 57.3625 49.418C57.7857 49.418 58.0975 49.585 58.3441 49.9618L58.3441 49.9619L58.3476 49.9671C58.6099 50.357 58.7805 51.0295 58.7805 52.068C58.7805 53.1065 58.6099 53.779 58.3476 54.1689Z" fill="white" stroke="#2B2831"/>
</svg>
