<svg width="104" height="104" viewBox="0 0 104 104" fill="none" xmlns="http://www.w3.org/2000/svg">
<rect x="3" y="3" width="98" height="98" fill="white" stroke="#FFB71B" stroke-width="6"/>
<path d="M53.9359 32.6489L75.732 70.4007H32.1399L53.9359 32.6489Z" fill="#C4C4C4"/>
<path d="M49.5163 23.4299C50.6233 21.5234 53.3767 21.5234 54.4837 23.4299L82.6059 71.8626C83.7176 73.7772 82.3362 76.1767 80.1222 76.1767H23.8778C21.6638 76.1767 20.2824 73.7772 21.3941 71.8626L49.5163 23.4299Z" stroke="#2B2831" stroke-width="2"/>
<path d="M49.405 31.3724C50.561 29.3792 53.4392 29.3792 54.5952 31.3724L75.7229 67.7995C76.8829 69.7995 75.4399 72.3047 73.1278 72.3047H30.8723C28.5603 72.3047 27.1172 69.7995 28.2772 67.7995L49.405 31.3724Z" fill="#FFB71B" stroke="#2B2831" stroke-width="2"/>
<path fill-rule="evenodd" clip-rule="evenodd" d="M47.7591 46.3138C46.3015 46.3138 45.1156 47.4996 45.1156 48.9573C45.1156 50.4149 46.3015 51.6008 47.7591 51.6008C49.2168 51.6008 50.4026 50.4149 50.4026 48.9573C50.4026 47.4997 49.2168 46.3138 47.7591 46.3138ZM41.9672 55.9325C41.3396 55.556 40.5244 55.7614 40.1506 56.391L34.7629 65.4654C34.2407 66.3451 34.8758 67.462 35.8994 67.462H46.4374C47.1673 67.462 47.7591 66.8702 47.7591 66.1403C47.7591 61.955 45.5573 58.0866 41.9672 55.9325ZM38.2213 64.8185L41.6964 58.9655C43.4904 60.4322 44.6832 62.5333 45.0188 64.8185H38.2213ZM58.3291 60.3059L63.2289 65.2057C63.7451 65.7219 63.7451 66.5588 63.2288 67.0751C62.7127 67.5913 61.8757 67.5912 61.3596 67.0751L56.0726 61.7881C55.8247 61.5401 55.6855 61.2039 55.6855 60.8534V58.7574L53.042 61.4009V66.1404C53.042 66.8704 52.4502 67.4622 51.7202 67.4622C50.9902 67.4622 50.3985 66.8704 50.3985 66.1404V60.8534C50.3985 60.5028 50.5377 60.1667 50.7856 59.9188L55.138 55.5663L52.2979 52.7262L50.3307 58.6278C50.0998 59.3203 49.3514 59.6947 48.6587 59.4638C47.9662 59.2329 47.5918 58.4843 47.8227 57.7918L50.4576 49.8871C50.623 49.3547 51.1155 48.9574 51.7202 48.9575H59.6508C60.3808 48.9575 60.9726 49.5492 60.9726 50.2792V52.9227C60.9726 53.6527 60.3808 54.2445 59.6508 54.2445C58.9208 54.2445 58.3291 53.6527 58.3291 52.9227V51.601H54.9113L57.9417 54.6314C58.1967 54.8864 58.3292 55.2346 58.3291 55.5668V60.3059Z" fill="#2B2831"/>
</svg>
