<svg width="104" height="104" viewBox="0 0 104 104" fill="none" xmlns="http://www.w3.org/2000/svg">
<rect x="3" y="3" width="98" height="98" fill="white" stroke="#FFB71B" stroke-width="6"/>
<path d="M46.7215 23.6799C49.6375 20.7639 54.3653 20.7639 57.2812 23.6799L80.3224 46.721C83.2384 49.637 83.2384 54.3648 80.3224 57.2808L57.2812 80.3219C54.3653 83.2379 49.6375 83.2379 46.7215 80.3219L23.6804 57.2808C20.7644 54.3648 20.7644 49.637 23.6804 46.721L46.7215 23.6799Z" fill="white"/>
<path d="M81.4385 45.8121L58.1855 22.5591C54.7733 19.147 49.2219 19.147 45.8093 22.5591L30.4949 37.8739C30.0066 38.3617 30.0066 39.1533 30.4949 39.6416C30.9832 40.1299 31.7748 40.1299 32.263 39.6416L47.5774 24.3272C50.0149 21.8897 53.9803 21.8902 56.4174 24.3272L79.6704 47.5802C80.8511 48.7609 81.501 50.3303 81.501 52.0002C81.501 53.6697 80.8511 55.2396 79.6704 56.4203L56.4174 79.6728C53.9803 82.1103 50.0144 82.1103 47.5774 79.6728L24.3244 56.4203C21.8951 53.9905 21.8888 50.0314 24.3112 47.5944C24.798 47.1046 24.7956 46.3131 24.3058 45.8263C23.8161 45.3399 23.0246 45.3419 22.5377 45.8316C19.1465 49.2438 19.1553 54.7864 22.5568 58.1879L45.8097 81.4409C47.5153 83.147 49.7566 84 51.9974 84C54.2386 84 56.4794 83.147 58.1855 81.4409L81.4385 58.1879C83.0914 56.535 84.0015 54.3372 84.0015 51.9998C84.0015 49.6623 83.0914 47.465 81.4385 45.8121Z" fill="#2B2831"/>
<path d="M26.7193 43.7628C27.1509 44.0504 27.7276 44.0387 28.1476 43.735C28.5621 43.4352 28.7521 42.8937 28.6202 42.4005C28.482 41.8834 28.0138 41.505 27.4801 41.4761C26.9488 41.4473 26.4473 41.7706 26.2515 42.2643C26.0386 42.8019 26.2325 43.444 26.7193 43.7628Z" fill="#2B2831"/>
<rect x="52.0916" y="28.6145" width="33.2009" height="33.2009" rx="5" transform="rotate(45 52.0916 28.6145)" fill="#FFB71B" stroke="#2B2831" stroke-width="2"/>
</svg>
